<svg xmlns="http://www.w3.org/2000/svg" data-name="Layer 1" width="600.44" height="3000.561"><path d="M359.489 663.045a18.564 18.564 0 00-6.62 10.372 9.444 9.444 0 005.068 10.403l-2.917 6.026a7.611 7.611 0 00-.778 2.19 3.852 3.852 0 003.095 4.115 3.806 3.806 0 004.209-2.956 22.532 22.532 0 002.307 10.217 12.02 12.02 0 0016.553 3.323 12.995 12.995 0 003.28-16.872 6.08 6.08 0 007.845-.274c11.086-9.028 4.996-18.474-4.235-24.145-10.063-6.09-17.17-11.738-27.807-2.399zM501.848 893.596a15.484 15.484 0 00-5.522 8.65 7.878 7.878 0 004.227 8.678l-2.433 5.027a6.349 6.349 0 00-.65 1.825 3.213 3.213 0 002.583 3.433 3.174 3.174 0 003.51-2.465 18.794 18.794 0 001.924 8.522 10.026 10.026 0 0013.808 2.772 10.839 10.839 0 002.735-14.073 5.071 5.071 0 006.544-.229c9.247-7.53 4.167-15.409-3.533-20.14-8.393-5.08-14.32-9.79-23.193-2z" fill="#fc0"/><path d="M573.684 882.993a15.484 15.484 0 00-8.581-5.639 7.878 7.878 0 00-8.727 4.143l-4.997-2.504a6.387 6.387 0 00-1.789-.739 3.078 3.078 0 00-1.02 6.07 18.833 18.833 0 00-8.547 1.83 10.026 10.026 0 00-2.93 13.785 10.839 10.839 0 0014.057 2.875 5.09 5.09 0 00.16 6.558c7.425 9.35 15.39 4.264 20.21-3.295 5.07-8.271 9.87-14.162 2.164-23.084z" fill="#ffe9b3"/><path d="M442.425 933.68a17.42 17.42 0 00-6.817-9.317 8.862 8.862 0 00-10.822.89l-4.277-4.601a7.142 7.142 0 00-1.65-1.426 3.615 3.615 0 00-4.652 1.306 3.571 3.571 0 001.153 4.686 21.143 21.143 0 00-9.72-1.46 11.28 11.28 0 00-8.54 13.345 12.194 12.194 0 0013.639 8.61 5.705 5.705 0 00-2.43 6.954c4.121 12.767 14.454 10.656 22.555 4.513 8.75-6.726 16.107-11.02 11.56-23.5z" fill="#fc0"/><path d="M441.357 921.833a17.42 17.42 0 009.413-6.695 8.862 8.862 0 00-.783-10.84l4.664-4.217a7.186 7.186 0 001.505-1.574 3.462 3.462 0 00-5.948-3.547 21.186 21.186 0 001.568-9.707 11.28 11.28 0 00-13.255-8.695 12.194 12.194 0 00-8.75 13.564 5.727 5.727 0 00-6.941-2.508c-12.832 3.97-10.75 14.395-4.791 22.531 6.602 8.692 10.82 16.128 23.318 11.688z" fill="#ffe9b3"/><path d="M436.416 659.597l40.63-132.475-64.361-19.733c9.525-18.851 42.403-84.656 48.504-113.141 0 0 54.968-72.46 51.34-148.021 0 0 22.846 12.965 33.929-13.457 11.083-26.422 70.005-82.691 2.39-124.273l-1.076-23.264a55.147 55.147 0 0016.103-25.756c7.094-22.61.361-44.24-14.711-49.138-15.073-4.898-32.839 9.91-39.754 32.477a53.983 53.983 0 00-.212 33.229l-11.004 22.87s-70.404-42.413-76.971 95.494c0 0 1.516 24.292 15.15 28.469 0 0-38.256 95.438-35.514 134.821 0 0-32.124 85.426-27.163 107.552l-8.353 27.27-68.159-20.823-41.266 134.775c-37.303-2.687-63.326 2.848-67.562 16.497-7.37 24.065 54.857 64.502 139.054 90.303 84.197 25.8 158.333 27.188 165.717 3.182 4.882-14.879-18.124-36.51-56.711-56.858z" fill="#f9a826"/><path d="M538.365 50.064a55.637 55.637 0 01-16.029 25.8l1.002 23.22c67.674 41.567 8.707 97.91-2.376 124.332A23.04 23.04 0 01487.08 236.8c3.628 75.56-51.34 148.02-51.34 148.02-6.206 28.575-38.965 94.35-48.505 113.142l24.48 7.52c9.54-18.791 42.404-84.655 48.504-113.141 0 0 54.969-72.46 51.341-148.02 0 0 22.845 12.965 33.928-13.457 11.083-26.423 70.005-82.692 2.391-124.274l-1.076-23.264a55.147 55.147 0 0016.043-25.74c7.108-22.551.42-44.256-14.652-49.154a21.323 21.323 0 00-13.601.61 48.162 48.162 0 013.773 41.023zM435.653 657.764l40.63-132.475-24.361-7.55-40.63 132.476c38.602 20.408 61.476 41.756 56.903 57.127-7.036 22.848-74.506 22.671-153.476.451 4.035 1.286 8.085 2.63 12.24 3.887 84.137 25.815 158.347 27.248 165.716 3.183 4.333-15.06-18.613-36.706-57.022-57.099z" opacity=".1"/><path d="M505.487 927.266a18.564 18.564 0 00-11.71-3.776 9.444 9.444 0 00-8.78 7.537l-6.568-1.294a7.611 7.611 0 00-2.315-.2 3.852 3.852 0 00-3.198 4.038 3.806 3.806 0 003.926 3.322 22.532 22.532 0 00-9.3 4.82 12.02 12.02 0 00.98 16.856 12.995 12.995 0 0017.152-1.102 6.08 6.08 0 002.253 7.52c11.542 8.438 19.136.153 22.284-10.214 3.343-11.277 7.005-19.583-4.724-27.507zM455.047 851.367a15.484 15.484 0 00-9.767-3.15 7.878 7.878 0 00-7.324 6.287l-5.479-1.08a6.349 6.349 0 00-1.93-.166 3.213 3.213 0 00-2.668 3.368 3.174 3.174 0 003.275 2.771 18.794 18.794 0 00-7.757 4.02 10.026 10.026 0 00.816 14.06 10.839 10.839 0 0014.308-.92 5.071 5.071 0 001.879 6.274c9.627 7.037 15.961.127 18.587-8.52 2.788-9.406 5.843-16.335-3.94-22.944z" fill="#fc0"/><path d="M551.134 814.794a15.484 15.484 0 003.282-9.73 7.878 7.878 0 00-6.22-7.393l1.157-5.468a6.387 6.387 0 00.262-1.918 3.078 3.078 0 00-6.13.55 18.833 18.833 0 00-3.937-7.804 10.026 10.026 0 00-14.076.658 10.839 10.839 0 00.78 14.327 5.09 5.09 0 00-6.304 1.816c-7.164 9.552-.226 15.968 8.307 18.715 9.286 2.81 16.2 5.962 22.88-3.753z" fill="#ffe9b3"/><path d="M479.25 1028.28a17.42 17.42 0 007.287-8.955 8.862 8.862 0 00-3.603-10.244l3.367-5.303a7.142 7.142 0 00.962-1.957 3.615 3.615 0 00-2.442-4.17 3.571 3.571 0 00-4.242 2.303 21.143 21.143 0 00-1.05-9.773 11.28 11.28 0 00-15.072-4.88 12.194 12.194 0 00-4.875 15.374 5.705 5.705 0 00-7.343-.59c-11.306 7.222-6.646 16.683 1.348 22.964 8.724 6.76 14.741 12.79 25.662 5.23z" fill="#fc0"/><path d="M490.44 1024.245a17.42 17.42 0 008.861 7.41 8.862 8.862 0 0010.288-3.503l5.26 3.443a7.186 7.186 0 001.905 1.057 3.462 3.462 0 001.924-6.652 21.186 21.186 0 009.788-.942 11.28 11.28 0 005.054-15.026 12.194 12.194 0 00-15.339-5.029 5.727 5.727 0 00.668-7.35c-7.09-11.407-16.649-6.751-23.01 1.074-6.735 8.589-12.86 14.553-5.4 25.518z" fill="#ffe9b3"/><g fill="#f9a826"><path d="M309.745 2193.795c-5.24-7.125-16.069.607-11.175 7.991 1.278 1.928 2.686 3.79 4.007 5.588 16.133 21.656 24.493 48.228 31.704 74.388 1.754 6.497 3.465 13.254 1.451 19.49 2.88-16.978 1.018-34.52-3.335-51.194-4.353-16.676-11.131-32.506-18.126-48.25a43.875 43.875 0 00-4.526-8.013z" opacity=".5"/><path d="M205.038 2239.62c-10.828-.325-12.257 16.176-1.43 17.043 2.838.238 5.718.303 8.447.368 33.328.91 64.86 12.993 95.156 25.987 7.428 3.184 15.16 6.757 19.49 13.578-13.664-15.83-31.639-27.416-50.761-35.949-19.122-8.532-39.5-14.12-59.857-19.338a52.343 52.343 0 00-11.045-1.69z"/><path d="M208.048 2280.116c-6.886.26-5.327 10.027 1.603 10.092 1.797 0 3.616 0 5.327-.152 21.028-.844 42.576 4.96 63.452 11.348 5.133 1.56 10.547 3.335 14.272 7.168a114.387 114.387 0 00-37.076-19.035 287.224 287.224 0 00-40.366-8.88 36.534 36.534 0 00-7.212-.54z" opacity=".2"/><path d="M348.726 2461.832c1.949 6.605 11.044 2.664 9.377-4.05-.433-1.754-.975-3.486-1.473-5.132-6.042-20.162-5.76-42.468-4.764-64.275.26-5.371.628-11.045 3.422-15.614a114.149 114.149 0 00-9.226 40.648 282.221 282.221 0 001.408 41.298 36.404 36.404 0 001.256 7.125z" opacity=".5"/><path d="M220.565 2184.635c-4.136-.715-4.44 5.305-.324 6.237 1.082.238 2.165.411 3.205.584 12.668 2.166 24.796 8.36 36.468 14.835a19.707 19.707 0 017.602 6.107 69.776 69.776 0 00-19.729-16.09 170.78 170.78 0 00-22.977-10.417 21.786 21.786 0 00-4.245-1.256z" opacity=".2"/><path d="M156.68 2344.391c-10.503 5.414-1.624 20.249 9.16 15.333 2.816-1.3 5.566-2.75 8.208-4.115 32.073-16.632 69.3-22.76 106.115-27.481 8.987-1.148 18.58-2.166 26.897 1.386-22.674-6.389-46.842-6.93-70.188-4.202-23.345 2.729-46.062 8.554-68.541 14.726a62.131 62.131 0 00-11.65 4.353z"/><path d="M186.674 2402.148c-7.537 7.038 4.33 15.354 12.149 8.662 2.165-1.754 4.05-3.616 5.933-5.392 23-21.656 53.383-36.945 83.636-51.108 7.428-3.487 38.006-7.017 46.149-6.822-21.31 1.906-64.838 8.662-84.199 17.325a466.276 466.276 0 00-54.92 30.838 57.67 57.67 0 00-8.748 6.497z" opacity=".5"/><path d="M240.51 2494.316c-2.165 10.07 12.193 10.222 14.878.152.693-2.62 1.256-5.285 1.798-7.818 6.648-30.817 22.912-60.745 39.76-89.591 4.136-7.082 27.265-27.374 34.087-31.856-16.459 13.686-48.488 43.918-59.403 62.152a467.77 467.77 0 00-27.676 56.588 59.446 59.446 0 00-3.443 10.373zM348.856 2140.456c-5.154-10.481-19.837-1.862-15.16 8.88 1.213 2.815 2.578 5.565 3.877 8.185 15.83 32.03 21.266 69.04 25.337 105.444.997 8.922 1.863 18.45-1.775 26.658 6.626-22.414 7.514-46.344 5.219-69.516-2.296-23.172-7.688-45.759-13.405-68.13a61.33 61.33 0 00-4.093-11.52zM266.974 2158.28a1.949 1.949 0 00.888.28c.585 0 .975-.584 1.213-1.104 1.278-2.793.541-6.496 2.534-8.662a30.492 30.492 0 014.786 7.883l7.536-2.166a11.131 11.131 0 01-1.43 8.663 11.261 11.261 0 013.552 2.425 3.876 3.876 0 01.931 3.985 19.122 19.122 0 01-5.327.52 35.43 35.43 0 01-.563 9.918 1.797 1.797 0 01-.65 1.256c-.541.347-1.277 0-1.84-.303a17.325 17.325 0 01-6.194-6.497l-2.815 6.692a3.032 3.032 0 01-1.235 1.689 2.014 2.014 0 01-2.36-.823 5.652 5.652 0 01-.823-2.534l-1.061-6.367a1.516 1.516 0 00-.347-.91 1.624 1.624 0 00-1.104-.324h-7.991c-.455-1.43.952-2.729 2.317-3.335 1.364-.606 2.967-1.04 3.66-2.36 1.386-2.708-2.166-6.497-.672-8.771 1.776-2.924 4.678-.303 6.995.844z"/><path d="M412.546 2193.795c5.24-7.125 16.069.607 11.175 7.991-1.278 1.928-2.686 3.79-4.007 5.588-16.134 21.656-24.514 48.228-31.704 74.388-1.776 6.497-3.487 13.254-1.473 19.49-2.88-16.978-.996-34.52 3.357-51.194 4.353-16.676 11.131-32.614 18.126-48.358a43.875 43.875 0 014.526-7.905z" opacity=".5"/><path d="M517.231 2239.62c10.828-.325 12.28 16.176 1.43 17.043-2.837.238-5.696.303-8.425.368-33.35.91-64.86 12.993-95.156 25.987-7.428 3.184-15.16 6.757-19.49 13.578 13.643-15.83 31.617-27.416 50.761-35.949 19.144-8.532 39.5-14.098 59.77-19.317a52.343 52.343 0 0111.11-1.71z"/><path d="M514.243 2280.116c6.865.26 5.327 10.027-1.603 10.092-1.797 0-3.616 0-5.349-.152-21.028-.844-42.554 4.96-63.43 11.348-5.133 1.56-10.547 3.335-14.272 7.168a114.387 114.387 0 0137.075-19.035 286.553 286.553 0 0140.367-8.88 36.534 36.534 0 017.212-.54z" opacity=".5"/><path d="M501.704 2184.635c4.158-.715 4.461 5.305.346 6.237-1.082.238-2.165.411-3.226.584-12.67 2.166-24.775 8.36-36.447 14.835a19.707 19.707 0 00-7.602 6.107 69.494 69.494 0 0119.729-16.09 170.52 170.52 0 0122.955-10.417 22.696 22.696 0 014.245-1.256zM393.987 2474.327c-.931 4.115-6.627 2.166-5.869-2.165a64.16 64.16 0 01.671-3.205c2.902-12.517 1.841-26.096.39-39.35a19.924 19.924 0 00-2.707-9.376 69.732 69.732 0 017.233 24.471 172.534 172.534 0 01.758 25.23 22.739 22.739 0 01-.476 4.395z" opacity=".2"/><path d="M499.062 2447.106c3.227 5.479-4.7 5.089-8.186-.39-.931-1.43-1.754-2.859-2.577-4.331-9.832-16.74-24.818-33.307-39.89-49.311a55.31 55.31 0 00-12.388-10.676 195.164 195.164 0 0132.484 27.72c9.68 10.134 18.235 20.68 26.615 31.227a50.827 50.827 0 013.942 5.76z" opacity=".5"/><path d="M211.513 2447.106c-3.227 5.479 4.721 5.089 8.208-.39a73.154 73.154 0 002.555-4.331c9.832-16.74 24.818-33.307 39.912-49.311a55.201 55.201 0 0112.366-10.676 196.94 196.94 0 00-32.484 27.72c-9.68 10.134-18.235 20.68-26.594 31.227a51.043 51.043 0 00-3.963 5.76zM316.675 2474.327c.931 4.115 6.605 2.166 5.869-2.165-.195-1.105-.455-2.166-.693-3.205-2.88-12.517-1.841-26.096-.369-39.35a20.14 20.14 0 012.686-9.376 69.69 69.69 0 00-7.233 24.471 172.555 172.555 0 00-.78 25.23 22.76 22.76 0 00.52 4.395zM468.527 2225.781c4.136-.736 4.44 5.306.325 6.215a63.58 63.58 0 01-3.205.607c-12.67 2.165-24.797 8.36-36.47 14.813a20.097 20.097 0 00-7.6 6.107 69.71 69.71 0 0119.728-16.07 173.66 173.66 0 0122.977-10.437 21.656 21.656 0 014.245-1.235zM429.936 2145.004c3.573-2.165 6.107 3.27 2.642 5.652a58.21 58.21 0 01-2.772 1.755c-10.936 6.735-19.859 17.021-28.261 27.373a20.14 20.14 0 00-4.786 8.51 69.992 69.992 0 0112.3-22.283 171.472 171.472 0 0117.325-18.256 23.583 23.583 0 013.552-2.75z" opacity=".2"/><path d="M565.61 2344.391c10.504 5.414 1.625 20.249-9.16 15.333-2.815-1.3-5.587-2.75-8.207-4.115-32.095-16.632-69.3-22.76-106.115-27.481-8.987-1.148-18.58-2.166-26.897 1.386 22.674-6.389 46.82-6.93 70.188-4.202 23.366 2.729 46.04 8.554 68.54 14.726a62.802 62.802 0 0111.652 4.353z"/><path d="M535.66 2402.148c7.537 7.038-4.33 15.354-12.148 8.662-2.166-1.754-4.05-3.616-5.934-5.392-23.064-21.678-53.382-37.032-83.7-51.195-7.429-3.487-38.007-7.016-46.171-6.822 21.33 1.906 64.86 8.663 84.22 17.325a466.276 466.276 0 0154.92 30.838 57.67 57.67 0 018.814 6.584z" opacity=".5"/><path d="M446.698 2505.815c.93 10.265-13.384 8.663-14.77-1.71-.368-2.686-.585-5.393-.823-7.97-2.728-31.423-15.159-63.149-28.153-93.879-3.226-7.536-23.626-30.578-29.842-35.862 14.618 15.635 42.598 49.635 51.152 69.104a467.38 467.38 0 0120.378 59.598 58.71 58.71 0 012.058 10.72zM455.295 2158.28a1.862 1.862 0 01-.888.28c-.563 0-.953-.584-1.19-1.104-1.3-2.793-.564-6.496-2.535-8.662a30.492 30.492 0 00-4.786 7.883l-7.558-2.166a11.218 11.218 0 001.43 8.663 11.5 11.5 0 00-3.552 2.425 3.92 3.92 0 00-.91 3.985 19.122 19.122 0 005.328.52 34.65 34.65 0 00.563 9.918 1.797 1.797 0 00.65 1.256c.541.347 1.277 0 1.84-.303a17.736 17.736 0 006.194-6.497l2.815 6.692a2.837 2.837 0 001.235 1.689 2.014 2.014 0 002.36-.823 5.934 5.934 0 00.823-2.534l1.061-6.367a1.516 1.516 0 01.347-.91 1.624 1.624 0 011.104-.324h7.991c.455-1.43-.953-2.729-2.317-3.335-1.364-.606-2.988-1.04-3.66-2.36-1.386-2.708 2.166-6.497.672-8.771-1.776-2.924-4.613-.303-7.017.844z"/><path d="M478.056 2468.848a1.906 1.906 0 01-.888.26c-.585 0-.975-.584-1.213-1.104-1.278-2.772-.542-6.389-2.512-8.663a29.994 29.994 0 00-4.808 8.035l-7.536-2.317a11.153 11.153 0 001.43 8.662 11.196 11.196 0 00-3.552 2.404 3.941 3.941 0 00-.932 3.985 19.122 19.122 0 005.328.541 35.256 35.256 0 00.563 9.897 1.97 1.97 0 00.65 1.277c.563.347 1.277 0 1.84-.324a17.173 17.173 0 006.194-6.497l2.815 6.692a2.989 2.989 0 001.256 1.667 1.97 1.97 0 002.339-.801 6.064 6.064 0 00.845-2.534l1.04-6.389a1.516 1.516 0 01.346-.91 1.646 1.646 0 011.126-.302c2.642 0 5.305-.109 7.97 0 .454-1.408-.954-2.729-2.318-3.335-1.364-.607-2.967-1.04-3.66-2.36-1.386-2.686 2.166-6.498.671-8.663-1.775-3.075-4.677-.368-6.994.78z" opacity=".2"/><path d="M541.962 2260.626a1.69 1.69 0 01-.887.26c-.585 0-.975-.563-1.213-1.083-1.278-2.794-.542-6.497-2.534-8.663a30.6 30.6 0 00-4.786 8.056l-7.536-2.338a11.153 11.153 0 001.43 8.662 11.564 11.564 0 00-3.553 2.404 3.92 3.92 0 00-.93 4.006 19.122 19.122 0 005.327.52 35.473 35.473 0 00.563 9.918 1.797 1.797 0 00.65 1.256c.54.347 1.277 0 1.84-.303a17.325 17.325 0 006.194-6.497l2.815 6.692a3.032 3.032 0 001.234 1.69 2.036 2.036 0 002.361-.824 5.652 5.652 0 00.823-2.533l1.061-6.497a1.516 1.516 0 01.347-.888 1.624 1.624 0 011.104-.325h7.991c.455-1.408-.953-2.729-2.317-3.313-1.364-.585-2.967-1.04-3.66-2.36-1.386-2.708 2.166-6.498.671-8.663-1.775-2.967-4.634-.282-6.995.823zM286.465 2499.99a2.555 2.555 0 01-1.235.368c-.801 0-1.342-.801-1.689-1.516-1.776-3.898-.758-8.944-3.508-12.214a41.688 41.688 0 00-6.67 11.218l-10.568-3.335a15.679 15.679 0 001.992 12.04 16.004 16.004 0 00-4.96 3.379 5.479 5.479 0 00-1.277 5.544 26.832 26.832 0 007.428.758 49.16 49.16 0 00.78 13.795 2.49 2.49 0 00.91 1.754c.757.498 1.775 0 2.555-.412a24.428 24.428 0 008.662-9.182l3.92 9.334a4.331 4.331 0 001.732 2.339 2.772 2.772 0 003.27-1.126 8.121 8.121 0 001.17-3.552l1.45-8.879a2.317 2.317 0 01.499-1.256 2.166 2.166 0 011.559-.455c3.703 0 7.406-.13 11.11-.108.65-1.97-1.321-3.79-3.227-4.634-1.906-.845-4.136-1.451-5.09-3.292-1.948-3.747 3.054-8.966.932-12.214-2.447-3.703-6.497.043-9.745 1.646zM180.177 2266.884a2.577 2.577 0 01-1.256.368c-.78 0-1.343-.8-1.668-1.515-1.797-3.899-.758-8.944-3.508-12.214a41.753 41.753 0 00-6.692 11.217l-10.503-3.27a15.57 15.57 0 001.97 12.041 15.896 15.896 0 00-4.937 3.378 5.479 5.479 0 00-1.3 5.544 26.832 26.832 0 007.429.758 48.38 48.38 0 00.801 13.795 1.949 1.949 0 003.465 1.343 24.428 24.428 0 008.663-9.182l3.898 9.333a4.115 4.115 0 001.754 2.34 2.794 2.794 0 003.27-1.127 7.991 7.991 0 001.148-3.551l1.472-8.88a2.166 2.166 0 01.477-1.255 2.166 2.166 0 011.559-.434c3.703 0 7.406-.151 11.131-.13.628-1.97-1.343-3.79-3.227-4.634-1.884-.844-4.158-1.45-5.11-3.292-1.928-3.746 3.075-8.965.952-12.214-2.512-3.768-6.561-.021-9.788 1.581z"/><path d="M502.722 2411.243a1.256 1.256 0 01-.65.195c-.433 0-.715-.433-.91-.801-.952-2.166-.39-4.743-1.862-6.497a22.717 22.717 0 00-3.552 5.956l-5.587-1.733a8.446 8.446 0 001.061 6.497 8.121 8.121 0 00-2.62 1.776 2.902 2.902 0 00-.693 2.945 14.271 14.271 0 003.941.411 25.987 25.987 0 00.434 7.32 1.3 1.3 0 00.476.931 1.343 1.343 0 001.364-.216 13.232 13.232 0 004.591-4.873l2.166 4.96a2.166 2.166 0 00.91 1.234 1.494 1.494 0 001.754-.585 4.331 4.331 0 00.606-1.884l.78-4.721a1.213 1.213 0 01.26-.671 1.061 1.061 0 01.822-.239h5.913c.324-1.039-.715-2.014-1.733-2.447-1.018-.433-2.166-.78-2.707-1.754-1.018-1.992 1.646-4.764.52-6.497-1.126-1.732-3.573-.173-5.284.693zM358.32 2494.62a1.732 1.732 0 01-.65.194 1.213 1.213 0 01-.888-.823c-.953-2.057-.412-4.743-1.884-6.497a22.37 22.37 0 00-3.552 5.956l-5.565-1.733a8.294 8.294 0 001.039 6.389 9.096 9.096 0 00-2.62 1.797 2.902 2.902 0 00-.693 2.945 13.47 13.47 0 003.941.39 25.987 25.987 0 00.433 7.342 1.343 1.343 0 00.477.93c.411.26.952 0 1.364-.216a13.21 13.21 0 004.591-4.872l2.166 4.959a2.166 2.166 0 00.91 1.234 1.516 1.516 0 001.753-.606 4.331 4.331 0 00.607-1.884l.78-4.721a1.148 1.148 0 01.26-.65 1.126 1.126 0 01.822-.238h5.912c.325-1.04-.714-2.014-1.71-2.469-.997-.455-2.166-.758-2.708-1.754-1.04-1.992 1.625-4.764.498-6.497-1.126-1.732-3.551-.043-5.284.823z" opacity=".2"/><path d="M218.573 2202.826a1.624 1.624 0 01-.65.195 1.213 1.213 0 01-.888-.823c-.952-2.166-.411-4.743-1.862-6.497a21.288 21.288 0 00-3.552 5.955l-5.587-1.732a8.208 8.208 0 001.061 6.497 8.922 8.922 0 00-2.642 1.797 2.88 2.88 0 00-.671 2.945 13.34 13.34 0 003.941.39 25.987 25.987 0 00.412 7.342 1.343 1.343 0 00.476.93c.412.26.953 0 1.365-.216a12.994 12.994 0 004.59-4.872l2.166 4.959a2.166 2.166 0 00.931 1.234 1.494 1.494 0 001.733-.606 4.331 4.331 0 00.606-1.884l.78-4.721a1.104 1.104 0 01.26-.65 1.126 1.126 0 01.823-.238h5.912c.346-1.04-.715-2.014-1.711-2.469-.996-.455-2.166-.758-2.707-1.754-1.04-1.992 1.624-4.764.498-6.497-1.126-1.732-3.551-.151-5.284.715zM292.961 2367.238a1.278 1.278 0 01-.67.195c-.412 0-.716-.411-.889-.801-.953-2.057-.411-4.743-1.862-6.497a21.83 21.83 0 00-3.552 5.956l-5.587-1.733a8.38 8.38 0 001.061 6.497 8.662 8.662 0 00-2.62 1.797 2.88 2.88 0 00-.693 2.946 13.405 13.405 0 003.941.39 25.987 25.987 0 00.412 7.34 1.451 1.451 0 00.476.932c.412.26.953 0 1.364-.238a12.82 12.82 0 004.591-4.851l2.166 4.96a2.339 2.339 0 00.931 1.233 1.473 1.473 0 001.733-.606 4.331 4.331 0 00.628-1.884l.78-4.721a.975.975 0 01.26-.65 1.061 1.061 0 01.822-.238h5.89c.347-1.04-.692-2.014-1.71-2.469-1.018-.454-2.166-.78-2.707-1.754-1.018-1.992 1.646-4.764.498-6.497-1.148-1.732-3.552-.151-5.263.693zM238.973 2303.137a1.191 1.191 0 01-.65.194c-.433 0-.714-.411-.888-.8-.952-2.058-.411-4.744-1.884-6.498a22.37 22.37 0 00-3.551 5.956l-5.566-1.733a8.294 8.294 0 001.04 6.497 9.096 9.096 0 00-2.62 1.798 2.88 2.88 0 00-.694 2.945 13.47 13.47 0 003.942.39 25.987 25.987 0 00.433 7.341 1.343 1.343 0 00.476.931c.412.26.953 0 1.365-.238a12.82 12.82 0 004.59-4.851l2.166 4.96a2.166 2.166 0 00.91 1.234 1.516 1.516 0 001.754-.607 4.331 4.331 0 00.606-1.884l.78-4.72a1.104 1.104 0 01.26-.65 1.126 1.126 0 01.823-.239h5.912c.325-1.04-.715-2.014-1.711-2.469-.996-.454-2.166-.78-2.707-1.754-1.04-1.992 1.624-4.764.498-6.496-1.126-1.733-3.552-.152-5.284.693zM470.822 2318.23a1.256 1.256 0 01-.65.196c-.432 0-.714-.412-.909-.802-.931-2.057-.39-4.742-1.862-6.496a22.37 22.37 0 00-3.552 5.955l-5.565-1.732a8.294 8.294 0 001.039 6.388 8.186 8.186 0 00-2.62 1.798 2.88 2.88 0 00-.693 2.945 14.25 14.25 0 003.941.39 25.987 25.987 0 00.433 7.34 1.343 1.343 0 00.477.932c.411.26.952 0 1.364-.238a13.167 13.167 0 004.591-4.851l2.166 4.938a2.166 2.166 0 00.91 1.256 1.516 1.516 0 001.753-.607 4.331 4.331 0 00.607-1.884l.78-4.72a1.213 1.213 0 01.26-.672 1.148 1.148 0 01.822-.217h5.912c.325-1.04-.714-2.014-1.71-2.469-.997-.454-2.166-.78-2.708-1.754-1.04-1.992 1.625-4.764.498-6.496-1.126-1.733-3.551-.044-5.284.8z" opacity=".5"/><path d="M358.32 2305.627a1.191 1.191 0 01-.65.195c-.433 0-.715-.433-.888-.801-.953-2.166-.412-4.743-1.884-6.497a23.085 23.085 0 00-3.552 5.955l-5.565-1.732a8.338 8.338 0 001.039 6.497 8.662 8.662 0 00-2.62 1.775 2.924 2.924 0 00-.693 2.967 15.16 15.16 0 003.941.39 25.987 25.987 0 00.433 7.32 1.256 1.256 0 00.477.931c.411.281.952 0 1.364-.217a12.994 12.994 0 004.591-4.872l2.166 4.959a2.166 2.166 0 00.91 1.234 1.473 1.473 0 001.753-.584 4.331 4.331 0 00.607-1.884l.78-4.721a1.213 1.213 0 01.26-.672 1.364 1.364 0 01.822-.238h5.912c.325-1.04-.714-2.014-1.71-2.447-.997-.433-2.166-.78-2.708-1.754-1.04-1.993 1.625-4.765.498-6.497-1.126-1.733-3.551-.152-5.284.693z" opacity=".2"/><path d="M323.02 2320.981a1.256 1.256 0 01-.65.195c-.433 0-.714-.411-.91-.801-.952-2.166-.389-4.743-1.862-6.497a23.085 23.085 0 00-3.551 5.955l-5.587-1.71a8.38 8.38 0 001.06 6.388 8.49 8.49 0 00-2.62 1.776 2.924 2.924 0 00-.693 2.967 15.16 15.16 0 003.942.39 26.139 26.139 0 00.433 7.34 1.343 1.343 0 00.476.932c.412.26.953 0 1.365-.238a12.994 12.994 0 004.59-4.873l2.166 4.96a2.166 2.166 0 00.91 1.256 1.516 1.516 0 001.754-.607 4.331 4.331 0 00.606-1.884l.78-4.72a1.213 1.213 0 01.26-.672 1.278 1.278 0 01.823-.238h5.912c.325-1.062-.715-2.036-1.711-2.47-.996-.432-2.166-.779-2.707-1.753-1.04-1.993 1.624-4.765.498-6.497-1.126-1.733-3.551-.043-5.284.801z" opacity=".3"/><path d="M290.125 2228.142a1.278 1.278 0 01-.672.195c-.411 0-.714-.412-.888-.802-.953-2.165-.411-4.742-1.862-6.496a22.046 22.046 0 00-3.552 5.933l-5.587-1.71a8.208 8.208 0 001.061 6.496 8.857 8.857 0 00-2.642 1.776 2.967 2.967 0 00-.671 2.967 14.185 14.185 0 003.941.39 26.139 26.139 0 00.412 7.341 1.343 1.343 0 00.476.931c.412.26.953 0 1.364-.238a12.734 12.734 0 004.592-4.872l2.165 4.959a2.317 2.317 0 00.931 1.256 1.473 1.473 0 001.754-.801 4.331 4.331 0 00.628-1.885l.758-4.72a1.213 1.213 0 01.26-.672 1.364 1.364 0 01.823-.238h5.912c.347-1.061-.693-2.036-1.71-2.469-1.018-.433-2.166-.78-2.707-1.754-1.018-1.992 1.624-4.764.498-6.497-1.127-1.732-3.574-.043-5.284.91z" opacity=".2"/><path d="M354.941 2349.415a1.494 1.494 0 01-.671.195c-.412 0-.715-.433-.888-.823-.953-2.057-.412-4.72-1.863-6.496a22.154 22.154 0 00-3.551 5.955l-5.587-1.732a8.25 8.25 0 001.06 6.496 8.468 8.468 0 00-2.641 1.776 2.945 2.945 0 00-.672 2.945 14.185 14.185 0 003.942.412 25.987 25.987 0 00.411 7.32 1.451 1.451 0 00.477.93 1.343 1.343 0 001.364-.216 12.994 12.994 0 004.591-4.872l2.166 4.959a2.166 2.166 0 00.93 1.234 1.494 1.494 0 001.733-.584 4.331 4.331 0 00.628-1.885l.78-4.72a.888.888 0 011.083-.91h5.89c.347-1.04-.693-2.014-1.71-2.447-1.018-.433-2.166-.78-2.708-1.754-1.017-1.993 1.625-4.765.498-6.497-1.126-1.733-3.551-.238-5.262.714z" opacity=".3"/></g><g fill="#f9a826"><path d="M405.906 2583.85c-3.617-4.916-11.089.42-7.711 5.515.881 1.33 1.853 2.615 2.764 3.855 11.133 14.944 16.901 33.28 21.878 51.332 1.21 4.483 2.39 9.145 1 13.449 1.988-11.716.703-23.82-2.3-35.327-3.004-11.506-7.681-22.43-12.508-33.294a30.276 30.276 0 00-3.123-5.53z" opacity=".5"/><path d="M333.653 2615.471c-7.472-.224-8.458 11.163-.986 11.761 1.957.164 3.945.21 5.828.254 22.998.628 44.756 8.966 65.662 17.932 5.126 2.197 10.46 4.663 13.45 9.37-9.43-10.924-21.833-18.919-35.028-24.806-13.196-5.888-27.258-9.744-41.305-13.345a36.119 36.119 0 00-7.621-1.166z"/><path d="M335.73 2643.416c-4.752.18-3.676 6.919 1.106 6.964 1.24 0 2.496 0 3.676-.105 14.51-.583 29.38 3.422 43.785 7.83 3.542 1.077 7.278 2.302 9.848 4.947a78.932 78.932 0 00-25.584-13.135 198.198 198.198 0 00-27.855-6.127 25.21 25.21 0 00-4.976-.374z" opacity=".2"/><path d="M432.804 2768.808c1.345 4.558 7.621 1.838 6.47-2.794-.298-1.21-.672-2.406-1.015-3.542-4.17-13.913-3.975-29.304-3.288-44.353.18-3.706.433-7.621 2.361-10.774a78.768 78.768 0 00-6.366 28.05 194.746 194.746 0 00.971 28.497 25.12 25.12 0 00.867 4.916z" opacity=".5"/><path d="M344.368 2577.53c-2.855-.494-3.064 3.66-.225 4.303.748.165 1.495.284 2.212.404 8.742 1.494 17.11 5.768 25.165 10.236a13.599 13.599 0 015.245 4.214 48.148 48.148 0 00-13.613-11.103 117.846 117.846 0 00-15.855-7.188 15.033 15.033 0 00-2.93-.867z" opacity=".2"/><path d="M300.284 2687.769c-7.248 3.736-1.12 13.972 6.321 10.58 1.943-.897 3.84-1.898 5.664-2.84 22.131-11.476 47.82-15.705 73.224-18.963 6.201-.792 12.821-1.494 18.56.956-15.646-4.408-32.324-4.781-48.433-2.899-16.11 1.883-31.785 5.903-47.296 10.162a42.873 42.873 0 00-8.04 3.004z"/><path d="M320.98 2727.623c-5.2 4.857 2.99 10.595 8.384 5.978 1.495-1.21 2.795-2.496 4.095-3.721 15.87-14.944 36.836-25.494 57.712-35.267 5.126-2.406 26.226-4.842 31.845-4.707-14.705 1.315-44.741 5.977-58.1 11.955a321.752 321.752 0 00-37.898 21.28 39.795 39.795 0 00-6.037 4.482z" opacity=".5"/><path d="M358.13 2791.224c-1.494 6.948 8.414 7.053 10.267.104.478-1.808.867-3.646 1.24-5.394 4.588-21.265 15.81-41.917 27.437-61.822 2.854-4.887 18.814-18.89 23.521-21.982-11.357 9.444-33.459 30.305-40.99 42.888a322.783 322.783 0 00-19.098 39.048 41.02 41.02 0 00-2.376 7.158zM432.894 2547.044c-3.557-7.232-13.689-1.285-10.46 6.127.836 1.943 1.778 3.84 2.674 5.649 10.924 22.102 14.675 47.64 17.484 72.76.688 6.157 1.285 12.733-1.225 18.396 4.573-15.466 5.185-31.98 3.601-47.969-1.584-15.99-5.305-31.576-9.25-47.013a42.32 42.32 0 00-2.824-7.95zM376.392 2559.343a1.345 1.345 0 00.613.194c.403 0 .672-.403.836-.762.882-1.928.374-4.483 1.749-5.977a21.04 21.04 0 013.302 5.44l5.2-1.495a7.681 7.681 0 01-.986 5.977 7.77 7.77 0 012.451 1.674 2.675 2.675 0 01.643 2.75 13.195 13.195 0 01-3.676.358 24.448 24.448 0 01-.389 6.844 1.24 1.24 0 01-.448.867c-.374.24-.882 0-1.27-.209a11.955 11.955 0 01-4.274-4.483l-1.943 4.618a2.092 2.092 0 01-.852 1.165 1.39 1.39 0 01-1.629-.568 3.9 3.9 0 01-.567-1.748l-.733-4.394a1.046 1.046 0 00-.239-.627 1.12 1.12 0 00-.762-.224h-5.514c-.314-.987.657-1.883 1.599-2.302.941-.418 2.047-.717 2.525-1.629.957-1.868-1.494-4.483-.463-6.052 1.225-2.017 3.228-.209 4.827.583z"/><path d="M476.843 2583.85c3.616-4.916 11.088.42 7.711 5.515-.882 1.33-1.853 2.615-2.765 3.855-11.133 14.944-16.916 33.28-21.877 51.332-1.225 4.483-2.406 9.145-1.016 13.449-1.988-11.716-.688-23.82 2.316-35.327 3.004-11.506 7.681-22.505 12.508-33.369a30.276 30.276 0 013.123-5.454z" opacity=".5"/><path d="M549.08 2615.471c7.472-.224 8.474 11.163.987 11.761-1.958.164-3.93.21-5.813.254-23.013.628-44.756 8.966-65.663 17.932-5.125 2.197-10.46 4.663-13.449 9.37 9.415-10.924 21.818-18.919 35.028-24.806 13.21-5.888 27.257-9.729 41.245-13.33a36.119 36.119 0 017.666-1.18z"/><path d="M547.018 2643.416c4.738.18 3.677 6.919-1.105 6.964-1.24 0-2.496 0-3.692-.105-14.51-.583-29.364 3.422-43.77 7.83-3.541 1.077-7.277 2.302-9.847 4.947a78.932 78.932 0 0125.583-13.135 197.734 197.734 0 0127.855-6.127 25.21 25.21 0 014.976-.374z" opacity=".5"/><path d="M538.366 2577.53c2.87-.494 3.078 3.66.24 4.303-.748.165-1.495.284-2.227.404-8.743 1.494-17.096 5.768-25.15 10.236a13.599 13.599 0 00-5.246 4.214 47.954 47.954 0 0113.614-11.103 117.666 117.666 0 0115.84-7.188 15.66 15.66 0 012.929-.867zM464.036 2777.43c-.642 2.84-4.572 1.495-4.05-1.494.135-.762.3-1.494.464-2.211 2.002-8.638 1.27-18.007.269-27.153a13.748 13.748 0 00-1.868-6.47 48.119 48.119 0 014.991 16.886 119.056 119.056 0 01.523 17.41 15.69 15.69 0 01-.329 3.033z" opacity=".2"/><path d="M536.543 2758.646c2.226 3.781-3.243 3.512-5.649-.269a50.73 50.73 0 01-1.778-2.988c-6.785-11.552-17.126-22.984-27.526-34.027a38.166 38.166 0 00-8.548-7.367 134.672 134.672 0 0122.415 19.128c6.68 6.993 12.583 14.27 18.366 21.548a35.073 35.073 0 012.72 3.975z" opacity=".5"/><path d="M338.121 2758.646c-2.226 3.781 3.258 3.512 5.664-.269a50.48 50.48 0 001.763-2.988c6.785-11.552 17.126-22.984 27.541-34.027a38.091 38.091 0 018.533-7.367 135.897 135.897 0 00-22.415 19.128c-6.68 6.993-12.583 14.27-18.351 21.548a35.222 35.222 0 00-2.735 3.975zM410.688 2777.43c.642 2.84 4.557 1.495 4.05-1.494-.135-.762-.315-1.494-.479-2.211-1.987-8.638-1.27-18.007-.254-27.153a13.898 13.898 0 011.853-6.47 48.089 48.089 0 00-4.991 16.886 119.071 119.071 0 00-.538 17.41 15.706 15.706 0 00.359 3.033zM515.472 2605.922c2.855-.508 3.064 3.662.225 4.29-.748.164-1.495.298-2.212.418-8.742 1.494-17.11 5.768-25.165 10.221a13.868 13.868 0 00-5.245 4.214 48.104 48.104 0 0113.613-11.088 119.833 119.833 0 0115.855-7.203 14.944 14.944 0 012.93-.852zM488.843 2550.183c2.465-1.495 4.214 2.256 1.823 3.9-.643.433-1.285.837-1.913 1.21-7.546 4.648-13.703 11.746-19.501 18.89a13.898 13.898 0 00-3.303 5.872 48.298 48.298 0 018.488-15.377 118.324 118.324 0 0111.955-12.598 16.274 16.274 0 012.45-1.897z" opacity=".2"/><path d="M582.465 2687.769c7.247 3.736 1.12 13.972-6.321 10.58-1.943-.897-3.856-1.898-5.664-2.84-22.147-11.476-47.82-15.705-73.224-18.963-6.202-.792-12.822-1.494-18.56.956 15.646-4.408 32.308-4.781 48.432-2.899 16.125 1.883 31.77 5.903 47.297 10.162a43.337 43.337 0 018.04 3.004z"/><path d="M561.798 2727.623c5.2 4.857-2.99 10.595-8.384 5.978-1.494-1.21-2.794-2.496-4.094-3.721-15.915-14.959-36.836-25.554-57.757-35.327-5.126-2.406-26.227-4.842-31.86-4.707 14.72 1.315 44.756 5.977 58.116 11.955a321.752 321.752 0 0137.897 21.28 39.795 39.795 0 016.082 4.542z" opacity=".5"/><path d="M500.41 2799.159c.642 7.083-9.236 5.977-10.192-1.18-.254-1.854-.404-3.722-.568-5.5-1.883-21.683-10.46-43.576-19.427-64.78-2.227-5.201-16.304-21.101-20.592-24.748 10.087 10.79 29.394 34.251 35.297 47.686a322.514 322.514 0 0114.062 41.125 40.512 40.512 0 011.42 7.397zM506.342 2559.343a1.285 1.285 0 01-.613.194c-.388 0-.657-.403-.822-.762-.896-1.928-.388-4.483-1.748-5.977a21.04 21.04 0 00-3.303 5.44l-5.215-1.495a7.74 7.74 0 00.986 5.977 7.935 7.935 0 00-2.45 1.674 2.705 2.705 0 00-.628 2.75 13.195 13.195 0 003.676.358 23.91 23.91 0 00.388 6.844 1.24 1.24 0 00.449.867c.373.24.881 0 1.27-.209a12.239 12.239 0 004.274-4.483l1.943 4.618a1.958 1.958 0 00.851 1.165 1.39 1.39 0 001.63-.568 4.095 4.095 0 00.567-1.748l.732-4.394a1.046 1.046 0 01.24-.627 1.12 1.12 0 01.762-.224h5.514c.314-.987-.658-1.883-1.6-2.302-.94-.418-2.061-.717-2.525-1.629-.956-1.868 1.495-4.483.464-6.052-1.226-2.017-3.183-.209-4.842.583z"/><path d="M522.048 2773.65a1.315 1.315 0 01-.613.18c-.404 0-.673-.404-.837-.763-.882-1.913-.374-4.408-1.733-5.977a20.697 20.697 0 00-3.318 5.544l-5.2-1.6a7.696 7.696 0 00.986 5.978 7.726 7.726 0 00-2.45 1.659 2.72 2.72 0 00-.643 2.75 13.195 13.195 0 003.676.373 24.328 24.328 0 00.388 6.83 1.36 1.36 0 00.449.881c.388.24.881 0 1.27-.224a11.85 11.85 0 004.274-4.483l1.942 4.617a2.062 2.062 0 00.867 1.151 1.36 1.36 0 001.614-.553 4.184 4.184 0 00.583-1.748l.717-4.409a1.046 1.046 0 01.24-.627 1.136 1.136 0 01.776-.21c1.823 0 3.661-.074 5.5 0 .313-.97-.658-1.882-1.6-2.3-.94-.42-2.047-.718-2.525-1.63-.956-1.853 1.494-4.483.463-5.977-1.225-2.122-3.227-.254-4.826.538z" opacity=".2"/><path d="M566.146 2629.967a1.166 1.166 0 01-.612.18c-.404 0-.673-.39-.837-.748-.882-1.928-.374-4.483-1.749-5.978a21.115 21.115 0 00-3.302 5.56l-5.2-1.614a7.696 7.696 0 00.986 5.977 7.98 7.98 0 00-2.451 1.659 2.705 2.705 0 00-.643 2.764 13.195 13.195 0 003.676.359 24.478 24.478 0 00.389 6.844 1.24 1.24 0 00.448.867c.374.239.882 0 1.27-.21a11.955 11.955 0 004.274-4.482l1.943 4.617a2.092 2.092 0 00.852 1.166 1.405 1.405 0 001.629-.568 3.9 3.9 0 00.568-1.748l.732-4.484a1.046 1.046 0 01.239-.612 1.12 1.12 0 01.762-.224h5.514c.314-.972-.657-1.883-1.599-2.287-.941-.403-2.047-.717-2.525-1.629-.957-1.868 1.494-4.483.463-5.977-1.225-2.047-3.198-.194-4.827.568zM389.841 2795.139a1.763 1.763 0 01-.852.254c-.553 0-.926-.553-1.165-1.046-1.226-2.69-.523-6.172-2.421-8.428a28.767 28.767 0 00-4.603 7.74l-7.292-2.3a10.82 10.82 0 001.375 8.308 11.043 11.043 0 00-3.423 2.331 3.78 3.78 0 00-.881 3.826 18.515 18.515 0 005.125.523 33.922 33.922 0 00.538 9.519 1.719 1.719 0 00.628 1.21c.523.344 1.225 0 1.763-.284a16.856 16.856 0 005.978-6.336l2.705 6.44a2.989 2.989 0 001.195 1.615 1.913 1.913 0 002.257-.777 5.604 5.604 0 00.807-2.451l1-6.127a1.599 1.599 0 01.345-.867 1.494 1.494 0 011.075-.314c2.556 0 5.111-.09 7.667-.074.448-1.36-.912-2.615-2.227-3.198-1.315-.583-2.854-1.001-3.512-2.272-1.345-2.585 2.107-6.186.643-8.428-1.689-2.555-4.483.03-6.725 1.136zM316.498 2634.285a1.778 1.778 0 01-.867.254c-.538 0-.927-.552-1.15-1.046-1.241-2.69-.524-6.171-2.422-8.428a28.811 28.811 0 00-4.617 7.741l-7.248-2.256a10.744 10.744 0 001.36 8.308 10.969 10.969 0 00-3.407 2.331 3.78 3.78 0 00-.897 3.826 18.515 18.515 0 005.126.523 33.384 33.384 0 00.553 9.52 1.345 1.345 0 002.39.926 16.856 16.856 0 005.978-6.336l2.69 6.44a2.84 2.84 0 001.21 1.614 1.928 1.928 0 002.257-.777 5.514 5.514 0 00.792-2.45l1.016-6.128a1.494 1.494 0 01.33-.866 1.494 1.494 0 011.075-.3c2.555 0 5.11-.104 7.681-.089.433-1.36-.926-2.615-2.227-3.198-1.3-.583-2.869-1.001-3.526-2.271-1.33-2.585 2.122-6.187.657-8.428-1.733-2.6-4.528-.015-6.754 1.09z"/><path d="M539.068 2733.9a.867.867 0 01-.448.134c-.299 0-.493-.299-.628-.553-.657-1.494-.269-3.272-1.285-4.483a15.676 15.676 0 00-2.45 4.11l-3.856-1.196a5.828 5.828 0 00.732 4.483 5.604 5.604 0 00-1.808 1.226 2.002 2.002 0 00-.478 2.032 9.848 9.848 0 002.72.284 17.932 17.932 0 00.299 5.051.897.897 0 00.328.643.927.927 0 00.942-.15 9.13 9.13 0 003.168-3.362l1.494 3.422a1.494 1.494 0 00.628.852 1.031 1.031 0 001.21-.404 2.989 2.989 0 00.419-1.3l.538-3.258a.837.837 0 01.179-.463.732.732 0 01.568-.164h4.08c.224-.718-.494-1.39-1.196-1.689-.702-.299-1.494-.538-1.868-1.21-.702-1.375 1.136-3.288.359-4.483-.777-1.196-2.466-.12-3.647.478zM439.424 2791.433a1.195 1.195 0 01-.448.134.837.837 0 01-.613-.568c-.657-1.42-.284-3.272-1.3-4.483a15.437 15.437 0 00-2.45 4.11l-3.841-1.196a5.723 5.723 0 00.717 4.409 6.276 6.276 0 00-1.808 1.24 2.002 2.002 0 00-.478 2.032 9.295 9.295 0 002.72.27 17.932 17.932 0 00.298 5.065.927.927 0 00.33.643c.283.18.657 0 .94-.15a9.116 9.116 0 003.169-3.362l1.494 3.422a1.494 1.494 0 00.628.852 1.046 1.046 0 001.21-.418 2.989 2.989 0 00.418-1.3l.538-3.258a.792.792 0 01.18-.449.777.777 0 01.568-.164h4.08c.223-.717-.494-1.39-1.181-1.704-.688-.313-1.495-.523-1.868-1.21-.718-1.375 1.12-3.288.343-4.483-.777-1.196-2.45-.03-3.646.568z" opacity=".2"/><path d="M342.993 2590.082a1.12 1.12 0 01-.448.135.837.837 0 01-.613-.568c-.658-1.495-.284-3.273-1.285-4.483a14.69 14.69 0 00-2.451 4.11l-3.856-1.196a5.664 5.664 0 00.733 4.483 6.157 6.157 0 00-1.823 1.24 1.988 1.988 0 00-.464 2.032 9.205 9.205 0 002.72.27 17.932 17.932 0 00.284 5.065.927.927 0 00.329.643c.284.18.657 0 .941-.15a8.966 8.966 0 003.168-3.362l1.495 3.422a1.494 1.494 0 00.642.852 1.031 1.031 0 001.196-.418 2.989 2.989 0 00.418-1.3l.538-3.258a.762.762 0 01.18-.449.777.777 0 01.567-.164h4.08c.239-.717-.493-1.39-1.18-1.703-.688-.314-1.495-.523-1.869-1.21-.717-1.376 1.121-3.288.344-4.484-.777-1.195-2.45-.105-3.646.493zM394.324 2703.534a.882.882 0 01-.463.135c-.284 0-.493-.284-.613-.553-.657-1.42-.284-3.273-1.285-4.483a15.063 15.063 0 00-2.45 4.11l-3.856-1.196a5.783 5.783 0 00.732 4.483 5.977 5.977 0 00-1.808 1.24 1.988 1.988 0 00-.478 2.033 9.25 9.25 0 002.72.269 17.932 17.932 0 00.283 5.065 1.001 1.001 0 00.33.643c.283.18.657 0 .94-.164a8.847 8.847 0 003.169-3.348l1.494 3.422a1.614 1.614 0 00.643.852 1.016 1.016 0 001.195-.418 2.989 2.989 0 00.434-1.3l.537-3.258a.672.672 0 01.18-.448.732.732 0 01.568-.165h4.064c.24-.717-.478-1.39-1.18-1.703-.703-.314-1.495-.538-1.868-1.21-.703-1.376 1.136-3.288.344-4.484-.792-1.195-2.451-.105-3.632.478zM357.07 2659.301a.822.822 0 01-.449.135c-.298 0-.493-.284-.612-.553-.658-1.42-.284-3.273-1.3-4.483a15.437 15.437 0 00-2.451 4.11l-3.84-1.196a5.723 5.723 0 00.717 4.483 6.276 6.276 0 00-1.809 1.24 1.988 1.988 0 00-.478 2.032 9.295 9.295 0 002.72.27 17.932 17.932 0 00.299 5.065.927.927 0 00.329.643c.284.18.657 0 .941-.165a8.847 8.847 0 003.168-3.347l1.495 3.422a1.494 1.494 0 00.627.852 1.046 1.046 0 001.21-.418 2.989 2.989 0 00.419-1.3l.538-3.258a.762.762 0 01.18-.449.777.777 0 01.567-.164h4.08c.224-.717-.493-1.39-1.18-1.704-.688-.313-1.495-.538-1.869-1.21-.717-1.375 1.121-3.288.344-4.483-.777-1.196-2.45-.105-3.646.478zM517.056 2669.717a.867.867 0 01-.448.134c-.299 0-.493-.284-.628-.553-.642-1.42-.269-3.272-1.285-4.483a15.437 15.437 0 00-2.45 4.11l-3.841-1.196a5.723 5.723 0 00.717 4.409 5.649 5.649 0 00-1.808 1.24 1.988 1.988 0 00-.478 2.032 9.833 9.833 0 002.72.27 17.932 17.932 0 00.299 5.065.927.927 0 00.328.643c.284.18.658 0 .942-.165a9.086 9.086 0 003.168-3.347l1.494 3.407a1.494 1.494 0 00.628.867 1.046 1.046 0 001.21-.418 2.989 2.989 0 00.419-1.3l.538-3.258a.837.837 0 01.179-.464.792.792 0 01.568-.149h4.08c.224-.717-.494-1.39-1.181-1.704-.688-.313-1.494-.538-1.868-1.21-.717-1.375 1.12-3.288.344-4.483-.777-1.196-2.451-.03-3.647.553z" opacity=".5"/><path d="M439.424 2661.02a.822.822 0 01-.448.134c-.299 0-.493-.299-.613-.553-.657-1.494-.284-3.272-1.3-4.483a15.93 15.93 0 00-2.45 4.11l-3.841-1.196a5.753 5.753 0 00.717 4.483 5.977 5.977 0 00-1.808 1.226 2.017 2.017 0 00-.478 2.047 10.46 10.46 0 002.72.269 17.932 17.932 0 00.298 5.05.867.867 0 00.33.643c.283.195.657 0 .94-.149a8.966 8.966 0 003.169-3.362l1.494 3.422a1.494 1.494 0 00.628.852 1.016 1.016 0 001.21-.404 2.989 2.989 0 00.418-1.3l.538-3.258a.837.837 0 01.18-.463.941.941 0 01.568-.164h4.08c.223-.718-.494-1.39-1.181-1.689-.688-.299-1.495-.538-1.868-1.21-.718-1.375 1.12-3.288.343-4.484-.777-1.195-2.45-.104-3.646.479z" opacity=".2"/><path d="M415.066 2671.615a.867.867 0 01-.448.134c-.3 0-.493-.284-.628-.553-.657-1.494-.269-3.272-1.285-4.483a15.93 15.93 0 00-2.45 4.11l-3.856-1.18a5.783 5.783 0 00.732 4.407 5.858 5.858 0 00-1.808 1.226 2.017 2.017 0 00-.478 2.047 10.46 10.46 0 002.72.27 18.037 18.037 0 00.298 5.065.927.927 0 00.329.643c.284.179.657 0 .941-.165a8.966 8.966 0 003.168-3.362l1.495 3.422a1.494 1.494 0 00.627.867 1.046 1.046 0 001.21-.419 2.989 2.989 0 00.42-1.3l.537-3.258a.837.837 0 01.18-.463.882.882 0 01.567-.164h4.08c.224-.732-.493-1.405-1.18-1.704-.688-.299-1.495-.538-1.868-1.21-.718-1.375 1.12-3.288.343-4.483-.777-1.196-2.45-.03-3.646.553z" opacity=".3"/><path d="M392.367 2607.551a.882.882 0 01-.464.135c-.284 0-.493-.284-.612-.553-.658-1.495-.284-3.273-1.285-4.483a15.213 15.213 0 00-2.451 4.094l-3.856-1.18a5.664 5.664 0 00.733 4.483 6.112 6.112 0 00-1.824 1.225 2.047 2.047 0 00-.463 2.048 9.788 9.788 0 002.72.269 18.037 18.037 0 00.284 5.065.927.927 0 00.329.643c.284.18.657 0 .941-.164a8.787 8.787 0 003.168-3.363l1.494 3.422a1.599 1.599 0 00.643.867 1.016 1.016 0 001.21-.553 2.989 2.989 0 00.434-1.3l.523-3.258a.837.837 0 01.18-.463.941.941 0 01.567-.164h4.08c.239-.732-.479-1.405-1.18-1.704-.703-.299-1.495-.538-1.869-1.21-.702-1.375 1.12-3.288.344-4.483-.777-1.196-2.466-.03-3.646.627z" opacity=".2"/><path d="M437.093 2691.236a1.031 1.031 0 01-.463.134c-.284 0-.493-.299-.613-.568-.658-1.42-.284-3.257-1.285-4.483a15.287 15.287 0 00-2.45 4.11l-3.856-1.196a5.694 5.694 0 00.732 4.483 5.843 5.843 0 00-1.823 1.226 2.032 2.032 0 00-.464 2.032 9.788 9.788 0 002.72.284 17.932 17.932 0 00.284 5.05 1.001 1.001 0 00.329.643.927.927 0 00.941-.149 8.966 8.966 0 003.168-3.362l1.495 3.422a1.494 1.494 0 00.642.852 1.031 1.031 0 001.196-.404 2.989 2.989 0 00.433-1.3l.538-3.258a.613.613 0 01.747-.627h4.065c.24-.718-.478-1.39-1.18-1.689-.703-.299-1.495-.538-1.868-1.21-.703-1.375 1.12-3.288.343-4.483-.777-1.196-2.45-.165-3.631.493z" opacity=".3"/></g><g><g transform="matrix(-.93727 -1.2124 -1.2124 .93727 6441.665 -1845.128)"><path fill="#464353" d="M526.98 4540.62h53.65v33.27h-53.65zM838.27 4526.07l32.44-13.1h7.11a3.91 3.91 0 013.91 3.91v91.36a3.91 3.91 0 01-3.91 3.91h-7.11l-32.44-13.51z"/><path fill="#464353" d="M771.94 4530.23h66.33v64.25h-66.33z"/><path fill="#514e7f" d="M656.8 4409.55h42.7v7.76h-42.7z"/><path d="M608.08 4419.6h120.19v87.75H608.08z"/><path opacity=".1" d="M608.08 4496.96h120.19v10.4H608.08zM770.91 4530.23h2.69v64.25h-2.69zM562.33 4540.62h18.3v33.27h-18.3zM715.73 4628.38h-88.31l1.4-11.19 84.29-9.43z"/><rect x="563.99" y="4498.62" width="207.94" height="128.09" rx="10.7" ry="10.7"/><path d="M837.64 4526.07h.63v72.57h-.63a5.19 5.19 0 01-5.19-5.19v-62.19a5.19 5.19 0 015.19-5.19zM870.71 4513h6.73a4.29 4.29 0 014.29 4.29v90.62a4.29 4.29 0 01-4.29 4.29h-6.73z"/><path opacity=".1" d="M526.98 4540.62h9.57v33.27h-9.57z"/><rect x="516.17" y="4530.23" width="18.71" height="56.56" rx="7.2" ry="7.2"/><circle cx="608.08" cy="4419.6" r="59.89" fill="#464353"/><circle cx="608.08" cy="4419.6" r="44.92" fill="#f9a826"/><circle cx="719.12" cy="4420.85" r="43.67" fill="#464353"/><circle cx="719.12" cy="4420.85" r="32.75" fill="#f9a826"/><circle cx="715.73" cy="4517.68" r="5.75" fill="#f9a826"/><circle cx="734.02" cy="4517.68" r="5.75" opacity=".5" fill="#f9a826"/><path d="M570.5 4507.04s-11 12.94-9 20zM599.22 4513.38s-16.51 14.66-14.09 16.33zM609.5 4531.39s-1.67 9.64 1 10z" opacity=".1"/></g></g></svg>