<?xml version="1.0" encoding="utf-8"?>
<!-- Generator: Adobe Illustrator 25.3.1, SVG Export Plug-In . SVG Version: 6.00 Build 0)  -->
<svg version="1.1" id="Layer_1" xmlns="http://www.w3.org/2000/svg" xmlns:xlink="http://www.w3.org/1999/xlink" x="0px" y="0px"
	 viewBox="0 0 1920 1080" style="enable-background:new 0 0 1920 1080;" xml:space="preserve">
<style type="text/css">
	.st0{fill:#D8D8D8;}
	.st1{fill:#1D1D1B;stroke:#1D1D1B;stroke-width:4;stroke-miterlimit:10;}
	.st2{fill:#1D1D1B;stroke:#1D1D1B;stroke-width:3;stroke-miterlimit:10;}
	.st3{fill:#487A27;}
	.st4{fill:#6FC13A;}
	.st5{fill:#538E2D;}
	.st6{fill:#AF764F;}
	.st7{fill:#8C5F41;}
	.st8{fill:#BBE250;}
	.st9{fill:#7AD142;}
	.st10{fill:#407A51;}
	.st11{fill:#589630;}
	.st12{fill:#83E046;}
	.st13{fill:#7A5439;}
	.st14{fill:#BAEA53;}
	.st15{fill:#80DB45;}
	.st16{fill:#63AA35;}
	.st17{fill:#366643;}
	.st18{fill:#BCF458;}
	.st19{fill:#CC863B;}
	.st20{fill:#B6DD4B;}
	.st21{fill:#875927;}
	.st22{fill:#1D1D1B;}
</style>
<rect y="-0.7" class="st0" width="1920" height="1080"/>
<line class="st1" x1="123" y1="90" x2="1788" y2="90"/>
<line class="st2" x1="123" y1="150" x2="1788" y2="150"/>
<line class="st1" x1="123" y1="210" x2="1788" y2="210"/>
<line class="st2" x1="123" y1="270" x2="1788" y2="270"/>
<line class="st1" x1="123" y1="330" x2="1788" y2="330"/>
<line class="st2" x1="123" y1="390" x2="1788" y2="390"/>
<line class="st1" x1="132" y1="450" x2="1797" y2="450"/>
<line class="st2" x1="132" y1="510" x2="1797" y2="510"/>
<line class="st1" x1="132" y1="570" x2="1797" y2="570"/>
<line class="st2" x1="132" y1="630" x2="1797" y2="630"/>
<line class="st1" x1="132" y1="690" x2="1797" y2="690"/>
<line class="st2" x1="132" y1="750" x2="1797" y2="750"/>
<line class="st1" x1="132" y1="810" x2="1797" y2="810"/>
<line class="st2" x1="132" y1="870" x2="1797" y2="870"/>
<line class="st1" x1="132" y1="930" x2="1797" y2="930"/>
<line class="st2" x1="132" y1="990" x2="1797" y2="990"/>
<g>
	<g>
		<path class="st3" d="M34.9,188.6c4.1,3.8,8.8,7,13.8,9.5c4.6,2.2,9.6,4,14.7,4c0.7,0,1.4,0,2.1-0.1c0.7-0.1,1.5-0.1,2.1-0.3
			c0.8-0.3,1.2-1.5,0.4-2.1c-0.6-0.4-1.5-0.3-1.8,0.5c-0.1,0.3-0.1,0.8,0.2,1c0,0,0,0,0,0.1c0.9,1,2.4-0.3,1.5-1.3c0,0,0,0,0-0.1
			c0.1,0.3,0.1,0.7,0.2,1c0,0,0,0,0,0c-0.2,0.2-0.4,0.4-0.5,0.6c-0.1,0-0.2,0.1-0.3,0.1c-0.2-0.1-0.3-0.1-0.5-0.2c0,0,0,0,0.1,0
			c-0.1-0.1-0.2-0.3-0.3-0.4c0,0,0,0,0,0.1c0-0.2-0.1-0.4-0.1-0.5c0,0,0,0.1,0,0.1c0.1-0.2,0.1-0.3,0.2-0.5c0,0-0.1,0.1-0.1,0.1
			c0.1-0.1,0.3-0.2,0.4-0.3c-0.2,0.1-0.4,0.1-0.6,0.1c-0.3,0-0.5,0.1-0.8,0.1c-0.5,0.1-1.1,0.1-1.6,0.1c-1.1,0-2.1,0-3.2-0.2
			c-2.1-0.3-4.2-0.8-6.2-1.5c-4.3-1.5-8.4-3.7-12.1-6.3c-2.2-1.5-4.3-3.2-6.3-5.1c-0.4-0.4-1.1-0.2-1.4,0.2
			C34.3,187.6,34.5,188.2,34.9,188.6L34.9,188.6z"/>
	</g>
	<g>
		<path class="st3" d="M299.8,163.5c-1.2,1.3-3,2-4.6,2.5c-1.7,0.4-3.4,0.6-5.1,0.5c-3.4-0.2-6.7-1.5-9.4-3.7
			c-1.5-1.2-2.8-2.7-3.8-4.4c-0.3-0.5-1-0.5-1.4-0.1c-0.5,0.4-0.4,1-0.1,1.5c4.2,6.8,12.4,10.3,20,8.4c2.3-0.6,4.5-1.5,6.1-3.4
			c0.4-0.4,0.2-1.1-0.2-1.4C300.7,162.9,300.2,163.1,299.8,163.5L299.8,163.5z"/>
	</g>
	<g>
		<path class="st4" d="M405.1,15.9c7.3-8,17.6-12,27.9-13.9c3-0.5,6-0.9,9.1-1.2c1.3-0.1,1-2.2-0.3-2.1c-10.8,1-21.8,3.3-31.1,9.5
			c-2.5,1.7-4.8,3.7-6.9,5.9c-0.4,0.4-0.5,1-0.1,1.5C404,16.1,404.8,16.3,405.1,15.9L405.1,15.9z"/>
	</g>
	<g>
		<path class="st4" d="M414.8,128.6c-2.4-2.8-3.7-6.3-5.2-9.7c-1.4-3.4-2.9-6.8-4-10.3c-1.9-6.1-2.9-12.8-1.3-19.1
			c0.8-3.2,2.2-6.2,4.4-8.6c0.4-0.4,0.5-1,0.1-1.5c-0.3-0.4-1-0.6-1.4-0.1c-4.2,4.6-6,11-5.9,17.3c0.1,7.6,2.8,14.9,5.7,21.8
			c1.7,4,3.3,8.2,6,11.6C414.1,130.9,415.7,129.6,414.8,128.6L414.8,128.6z"/>
	</g>
	<g>
		<path class="st4" d="M161,208.8c1.5,6,4.8,11.4,9.7,15c4.3,3.2,9.7,4.8,15,4.3c1.7-0.1,3.3-0.5,4.9-1c0.8-0.2,1.6-0.3,2.2-0.9
			c0.6-0.6,0.8-1.4,0.2-2.1c-0.8-1.1-2.3,0.2-1.5,1.3c0-0.2,0-0.4-0.1-0.7c0-0.1,0,0-0.1,0.1c-0.1,0,0.8-0.4-0.1,0
			c-0.3,0.1-0.6,0.2-0.9,0.3c-0.7,0.2-1.4,0.4-2,0.5c-1.2,0.3-2.4,0.4-3.6,0.5c-2.2,0.1-4.5-0.2-6.7-0.9c-4.7-1.5-8.6-4.6-11.4-8.7
			c-1.6-2.4-2.8-5.1-3.5-8c-0.1-0.5-0.6-1-1.1-0.9C161.4,207.7,160.9,208.2,161,208.8L161,208.8z"/>
	</g>
	<g>
		<path class="st4" d="M-1.3,251.8c0.2,0.1,0.1,0,0.1-0.2c0-0.1,0-0.2,0-0.3c0-0.3,0-0.6,0.1-0.8c0-0.6,0.1-1.1,0.2-1.7
			c0.2-1.1,0.4-2.1,0.7-3.2c0.6-2.2,1.4-4.3,2.5-6.2c2.1-3.9,5.1-7.3,8.7-9.8c2-1.4,4.2-2.5,6.4-3.2c0.5-0.2,0.7-0.9,0.5-1.4
			c-0.2-0.6-0.8-0.7-1.3-0.5c-9,3-16.2,11.2-18.7,20.6c-0.4,1.3-0.6,2.7-0.8,4c-0.1,0.7-0.1,1.3-0.2,2c0,0.9-0.1,1.8,0.7,2.4
			C-1.5,254.3-0.4,252.6-1.3,251.8L-1.3,251.8z"/>
	</g>
	<path class="st3" d="M418.7,66.5c-5.4,7.3-16.2,9.1-23.7,4.3c-4.4-2.9-7.5-7.6-12.1-10.2c-6-3.4-13.4-2.5-20.2-3
		c-13.8-0.9-27.1-7.8-36.1-18.8c6.2,2.8,13.3,3.6,19.9,2.2c5.1-1.1,9.9-3.4,14.6-5.6c9.8-4.7,19.7-9.5,29.5-14.2
		c8.6-4.1,17.6-8.3,27-7.4c11.1,1.1,23.1,13.5,15.4,25.1c-2.6,4-8.6,5.3-10.6,9.5C419.7,54,423,60.6,418.7,66.5z"/>
	<path class="st3" d="M284.9,183.9c0,2.6,0.5,5.4,2.3,7.1c2,1.9,4.9,1.9,7.6,1.9c11.9-0.1,24.3-0.4,34.8-6.2
		c2.6-1.4,5.1-3.2,7.8-4.4c7.8-3.5,17.8-2.9,23.2-9.8c-4.8-0.3-9.6-0.6-14.4-0.8c-2.1-0.1-4.4-0.3-6.2-1.4c-2.7-1.7-3.8-4.9-5.5-7.6
		c-5.9-9.8-18.5-13-29.6-12.3c-4.1,0.3-9.1,1.8-9.7,6c-0.6,3.5,2.2,7.4,0.2,10.3c-2.1,2.9-6.1,3-8.3,6.1
		C285.3,175.4,284.9,180.6,284.9,183.9z"/>
	<path class="st3" d="M13.5,194.9c-2.8-3.2-6.4-5.6-9.4-8.5c-9.8-9.5-13.2-23.9-16-37.5c2.8,6.4,10.8,7.8,17.6,8.2
		c5.5,0.3,11.2,0.7,16.6-0.7c4.2-1,8.6-3.1,12.7-1.7c1.9,0.6,3.5,1.9,5,3.3c4.6,4.2,13.1,13,13.2,19.9c0.1,5.4-6.6,11-9.3,15.7
		c-3.3,5.6-7.3,9.8-13.9,11.2C21.3,206.7,18.6,200.8,13.5,194.9z"/>
	<path class="st4" d="M-14.3,237.8c-3.8,3.5-5.9,8.9-5.5,14.2c0.1,1.8,0.6,3.6,0.6,5.4c0.1,1.8-0.2,3.5-0.4,5.3
		c-0.8,9.6,2.8,18.9,7.1,27.4c2.7,5.2,5.6,10.3,8.8,15.2c1.4,2.1,3,4.4,5.4,5.1c-2.2-4.2-0.8-9.4,1.2-13.7c2-4.3,4.5-8.6,4.7-13.3
		c0.1-3-0.8-6.2,0.1-9.1c1.1-3.7,4.7-5.7,7.1-8.7c3.1-4,3.9-9.4,4-14.6c0.1-3.7-0.1-7.5-1.8-10.7c-1.6-3.2-5.1-5.7-8.5-5.2
		c-2.4,0.4-4.1,1.5-6.6,0.7c-1.4-0.4-2.3-1.7-3.7-2.1C-6,232.7-11.3,235-14.3,237.8z"/>
	<path class="st5" d="M232.3,132c8.7,8.6,11.8,21.6,18.4,32c2.3,3.6,5.2,7.1,9,8.9c3.8,1.8,8.7,1.7,11.8-1.1
		c4.1-3.7,3.9-10.4,2.8-16c-2.2-10.9-6.5-21.1-9.6-31.8c-0.9-2.9-1.6-6-1.3-9c0.4-3,2.1-6.1,4.9-7.1c1.2-0.4,2.5-0.4,3.6,0.1
		c2.6,1.4,2.7,5.2,2.7,8.3c0.1,6.7,1.9,13.2,4,19.6c2.1,6.3,4.4,12.6,5.5,19.2c1.1,6.6,0.9,13.6-1.9,19.7c-2.8,6-8.6,10.8-15,11
		c-7.3,0.2-13.7-5.3-17.9-11.5c-4.2-6.2-6.9-13.5-11.2-19.6c-3.2-4.5-7.2-8.2-11.4-11.6c-1.6-1.3-3.3-2.6-5.2-3.3
		c-2.4-0.9-4,0-6.4-0.1c-3.3-0.2-4.5-3.9-2.3-6.6c1.9-2.2,6-2.4,8.6-3C225.6,129,228.7,128.5,232.3,132z"/>
	<path class="st5" d="M49.3,217c2-2,5.9-4.5,7.6-6.9c8-11.2,9.6-26.2,15.7-38.6c2.5-5.2,3.8-9.9,9.3-10.7c0.7-0.1,1.5-0.1,2.1,0.1
		c2.1,0.8,2.5,3.8,1.9,6.2c-1.5,6.5-6.6,11.5-12,15.2c-1.9,1.3-4,2.6-5.2,4.7c-0.6,1,4.1,0.6,3.8,1.7c-1.9,7.5-6,17.4-9.6,24.1
		c-2.2,4.2-6.2,7.2-10.6,8.5c-1.5,0.4-5.2,1.5-6.6,0.4C43.9,220.2,48.2,218.2,49.3,217z"/>
	<path class="st6" d="M29.8,172c19-4.1,37.9-5.8,57-6.9c131-7.6,207.3-61.1,285.6-131.5c21.3-19.2,41.4-40.2,66.7-54.8
		c21.6-12.5,45.9-19.5,69.7-26.4c6.6,8.4,8,20.3,3.5,31.2c-29.1-1.2-57.4,18.1-81.2,36.9c-72.3,56.9-142,121.9-229.4,153.1
		c-34.9,12.5-71.5,18.9-107,18.9c-22.1,0-44.2-2.5-66.4,3c-23.7,5.8-45,20-64.4,34.9c-4.7,3.6-9.6,7.4-15.3,8.8
		c-9.7,2.5-16.8-4.5-12.8-12.9c3.4-7.2,15.2-15.2,21.7-20.2C-21.6,189.7,3.7,177.6,29.8,172z"/>
	<path class="st7" d="M508.7-47.6c-0.7,0.2-1.5,0.4-2.2,0.6c1.9,6.7,1.5,14.2-1.4,21.3c-29.1-1.2-57.4,18.1-81.2,36.9
		c-72.3,56.9-142,121.9-229.4,153.1c-34.9,12.5-71.5,18.9-107,18.9c-22.1,0-44.2-2.5-66.4,3c-23.7,5.8-45,20-64.4,34.9
		c-4.7,3.6-9.6,7.4-15.3,8.8c-2.5,0.6-4.7,0.7-6.7,0.2c-0.5,6.5,5.8,11.1,13.9,9c5.7-1.5,10.6-5.3,15.3-8.8
		c19.4-14.9,40.7-29.1,64.4-34.9c22.2-5.4,44.4-3,66.4-3c35.5,0,72.1-6.5,107-18.9C289,142.4,358.7,77.4,431,20.5
		c23.8-18.8,52.2-38.1,81.2-36.9C516.6-27.3,515.3-39.1,508.7-47.6z"/>
	<path class="st4" d="M7.4,225.4c4.5,1.9,9,4,13.8,4.8c12.7,2.3,25.3-4.2,36.3-11.4c2.3-1.5,6.8-6.8,7.8-10.6
		c-11.3,5.2-27.6,14.3-39.9,14c-13.2-0.3-25.5-6.9-37.6-12.4c-12.1-5.5-25.7-10.1-38.4-6.2c-2,0.6-4.1,1.6-4.9,3.6
		c-2.3,5.7,7,4.2,9.4,4.3c6,0.4,12.1,1.6,18.1,2.9C-16,216.9-4.1,220.6,7.4,225.4z"/>
	<path class="st4" d="M91.4,177.5c11,16.9,19.9,35.4,33.9,49.6c19.8,20.1,36.9,18,44.2,16.6c15.6-3,27.8-16.9,30.9-21.6
		c6.2-9.4,9.4-20.1,9.4-31.5c0-11.4-1-23,1.5-34.1c2.5-11.1,9.3-22.1,19.8-25.4c-0.5-2.2-3-3-5.2-3.2c-12.4-0.8-23.1,10.3-27.3,22.6
		c-4.2,12.2,0.7,25.9-0.4,38.9c-1.1,12.9-6.5,28.5-16,36.9c-7,6.2-18.7,11.1-27.5,8.2c-33.5-10.9-49.4-48.3-60.4-65.2
		c-2.1-3.2-4.4-6.7-7.9-8.1c-5.5-2.2-6.8,0.9-4.8,4.8C83.7,169.9,88.9,173.6,91.4,177.5z"/>
	<path class="st4" d="M378.7,87.6c20.8-5.5,38.3-26.9,46-47.8c6.7-18.2,7-38.7,15.2-56.2c10-21.5,32-36.3,54.9-37.1
		c5.2-0.2,11.6,1.2,13.2,6.3c-10.5,4-18.2,4.9-27,8c-7.3,2.6-15.1,4-20,10.2c-3,3.8-4.7,8.6-6.2,13.3c-7,23-9.2,47.8-20.4,68.9
		c-5,9.3-11.6,17.7-18.8,25.3C409.6,85,403,91,395.4,95.4c-20.6,12-45.7,10.8-69.1,7.8c-7.5-1-15-2.1-22.6-1.6
		c-15.1,1-27.5,8.6-41.2,14.2c3-17.4,30.2-24.2,44.2-27.4C330.8,83,347.7,95.9,378.7,87.6z"/>
	<path class="st4" d="M152.1,218.7c-1.5-2.7-2.5-5.7-4.3-8.2c-1.5-2-3.5-3.6-5.3-5.4c-5.9-6-9-14.4-10.1-22.9
		c-1.1-8.5-0.5-17.1,0.1-25.6c0.7,8.2,6.7,15.7,14.4,17.8c2.5,0.7,5.1,0.9,7.6,1.5c4.8,1.2,9.1,4.2,12.2,8.2c1.3,1.7,2.4,3.7,4,5
		c2.6,2.2,6.4,2.7,9,5c3.3,2.9,5.3,10,4.2,14.4c-1,4.2-6.1,6.6-9.5,8.7C167,222,158,229.7,152.1,218.7z"/>
	<path class="st4" d="M386.9,120.9c-3.3,6.5-1.4,14.9,3,20.6c4.4,5.8,10.9,9.4,17.3,12.5c9.6,4.6,19.6,8.4,29.5,12.1
		c6.4,2.4,13.1,4.8,19.8,3.5c-2.8-1.9-5.7-3.8-7.4-6.8c-1.9-3.2-2.3-7.1-2.6-10.9c-0.8-8.3-2-16.9-6.4-23.7
		c-2.7-4.2-6.6-7.7-8.2-12.4c-1.7-4.9-0.9-11-4.3-14.8c-3-3.3-8.5-3.4-11.9-0.6c-2.7,2.2-4.3,5.9-7.5,7.4
		C400.4,111.2,391.5,112,386.9,120.9z"/>
	<path class="st4" d="M379.7,8.6c-4,5.2-6.9,11.1-10.7,16.4c-2.9,4-6.2,7.7-8.5,12.1c-2.1,4-3.3,8.5-6.1,12
		c-3.9,4.8-10.5,7.2-12.9,13c6-2.3,10.4-7.8,16.3-10.3c6.8-2.9,14.5-1.4,21.9-1.6c12.1-0.3,24.1-5.5,32.9-14.2
		C434,14.9,399.3-17,379.7,8.6z"/>
	<path class="st8" d="M200.4,153.6c-1,5.2-0.6,10.5,0,15.8c0.3,2.6,0.8,5.2,1.5,7.8c0.2,0.7,0.7,1.6,1.4,1.5
		c0.8-0.1,0.9-1.3,0.8-2.1c-0.6-6.6-1.2-13.2-0.4-19.8c0.8-6.6,3.2-13.2,7.8-17.7c1.6-1.6,3.5-2.9,5.2-4.4c0.5-0.4,0.9-0.9,1.1-1.5
		c0.2-0.6,0-1.4-0.6-1.7c-0.7-0.3-1.4,0.2-1.9,0.7c-3,2.7-6.7,5.1-9.2,8.3C203.3,144.2,201.3,148.8,200.4,153.6z"/>
	<path class="st8" d="M-21.6,211.4c2.3,0.8,4.6,1.7,6.9,1.6c-0.1-1.7-1.8-2.6-3.4-3.1c-8.3-2.9-17-3.8-25.6-4.6
		c-1.3-0.1-4.5-0.9-5.3,0.5c-0.8,1.4,0.6,2.1,1.6,2.3c1.9,0.3,4.2-0.2,6.2-0.1c2.1,0.1,4.2,0.2,6.3,0.5
		C-30.3,208.9-25.9,209.9-21.6,211.4z"/>
	<path class="st8" d="M437.4,8c1.3-3.9,1.6-8.2,2.4-12.3c2.2-11.9,8.3-23,17.1-30.9c4.4-4,9.5-7.2,15.2-8.4c0.7-0.1,1.5-0.2,1.9,0.3
		c-0.4,0.4-0.9,0.7-1.4,1c-5.4,2.9-10.2,7-14.5,11.4c-4.9,5.1-9.3,10.8-11.7,17.6c-3.3,9.3-2.7,20.1-8,28.4
		c-0.4,0.6-0.9,1.2-1.6,1.1c-0.7-0.1-1-1-1.1-1.8c-0.1-3.6,2.7-7,2.1-10.6L437.4,8z"/>
	<path class="st9" d="M-6.5,263.7c-0.8,11.8,0.6,23.8,4.1,35.1c-1.4-2.4-0.7-6,1.6-7.5c0.6-0.4,1.2-0.7,1.7-1.2
		c0.6-0.7,0.6-1.7,0.6-2.6c0-2.8-0.2-5.6,0.1-8.5c0.3-2.8,1-5.7,2.8-7.8c0.9-1.2,2.2-2.2,2.8-3.6c1.1-2.5-0.2-5.6,0.7-8.2
		c1.1-2.9,4.7-4.2,5.5-7.2c0.4-1.3,0.1-2.7-0.1-4c-0.4-1.8-1.1-4-2.9-4.4c-0.9-0.2-1.9,0-2.5-0.6c-0.4-0.5-0.4-1.2-0.6-1.7
		c-0.7-2.1-4.6-2.6-6.3-1.7c-2.1,1.1-3.2,4.6-4,6.7C-5.1,252-6.1,257.9-6.5,263.7z"/>
	<path class="st9" d="M141.4,183.5c1.6,2.2,3.5,4.1,5.3,6.1c6.2,7,11,15.1,15.4,23.5c0.7,1.4,1.5,2.9,2.7,3.8c1.2,1,3.1,1.2,4.3,0.1
		c0.5-0.4,0.7-1,1.1-1.6c2-2.9,6.4-3.4,8-6.5c1.3-2.7-0.2-6.1-2.3-8.1c-2.1-2.1-4.9-3.4-6.9-5.6c-1.5-1.5-2.5-3.3-4-4.9
		c-2-2.1-4.6-3.5-7.1-4.9c-4.1-2.2-8.1-4.4-12.2-6.5c-3.9-2.1-7.5-4.4-9.9-8.3C135.2,174.5,139.3,180.5,141.4,183.5z"/>
	<path class="st9" d="M425.9,150.7c6,6.7,12.6,12.9,20.4,17.3c-7.1-2.3-13.2-7.5-20.5-9.3c-2.3-0.6-4.7-0.8-7-1.3
		c-5.2-1.2-9.9-4.2-14.5-7.1c-2.5-1.6-5-3.2-6.9-5.4c-2.5-2.9-3.8-6.9-3.7-10.8c0.1-2.4,0.6-5.1-0.7-7.1c-0.4-0.6-0.9-1.1-1.3-1.7
		c-1.5-2.3-0.2-5.9,2.3-6.7c1.6-0.5,3.4-0.1,5-0.7c1.6-0.6,2.7-2.3,4.3-2.8c3.1-0.9,3.9,2.7,4.5,5c2.2,7.5,5.9,14.5,10.3,20.8
		C420.5,144.2,423.1,147.5,425.9,150.7z"/>
</g>
<g>
	<g>
		<path class="st4" d="M1690.8,205.3c1.9-1.6,4.4-1.8,6.7-1.9c2.8-0.1,5.6-0.1,8.4,0.2c5.6,0.5,11.3,1.7,16.6,3.6
			c3,1.1,6,2.4,8.8,3.9c1.6,0.8,2.8-1.7,1.2-2.5c-10.6-5.6-22.7-8.3-34.7-7.9c-3,0.1-6.2,0.5-8.6,2.4c-0.6,0.5-0.8,1.3-0.4,1.9
			C1689.2,205.5,1690.2,205.8,1690.8,205.3L1690.8,205.3z"/>
	</g>
	<g>
		<path class="st4" d="M1356.4,232.2c-2.1,4.1-3.2,8.6-4.5,13c-1.2,4.2-2.7,8.3-4.5,12.3c-3.5,7.9-8,15.4-13.3,22.2
			c-3.1,3.9-6.4,7.5-10,10.9c-0.5,0.5-0.4,1.5,0.1,2c0.6,0.5,1.4,0.4,2-0.1c6.4-6.1,12-13,16.7-20.5c4.7-7.5,8.4-15.6,11-24
			c1.5-4.9,2.6-10,5-14.6C1359.7,231.9,1357.2,230.7,1356.4,232.2L1356.4,232.2z"/>
	</g>
	<g>
		<path class="st4" d="M1157.6,35.8c4.7,5.8,11.7,9.6,19.1,10.4c2.1,0.2,4.2,0.2,6.3-0.1c1.8-0.2,1.6-3-0.2-2.8
			c-8.5,1.2-17.5-2.3-22.9-9c-0.5-0.6-1.3-0.8-1.9-0.4C1157.4,34.2,1157.1,35.2,1157.6,35.8L1157.6,35.8z"/>
	</g>
	<g>
		<path class="st4" d="M1151.2,147.4c7.7-13.8,12.1-29.3,12.9-45.1c0.2-4.4,0.1-8.9-0.2-13.3c-0.2-1.8-2.9-1.6-2.8,0.2
			c1.3,15.3-1,30.9-6.7,45.2c-1.6,4.1-3.5,8-5.6,11.8C1147.8,147.7,1150.3,148.9,1151.2,147.4L1151.2,147.4z"/>
	</g>
	<path class="st10" d="M1920.8,207.6c1.6,10.5-2.7,21.8-10.9,28.5c8-5.6,13.8-14.1,16.4-23.6c0.7-2.7,1.2-5.6,0.6-8.3
		c-0.6-2.7-2.5-5.4-5.1-6.2C1912.8,195.1,1920.4,204.4,1920.8,207.6z"/>
	<path class="st10" d="M1681.1,122.5c0-6,2.3-12,6.3-16.5c1.6,6.5,2.8,13.2,3.7,19.8C1693.3,144,1681.1,134.9,1681.1,122.5z"/>
	<path class="st10" d="M1680.7,155.9c5.2,2.6,8.9,8.2,9.1,14c0.3,5.8-2.8,11.7-7.8,14.8c3.4-1.6,5.8-4.7,8-7.7
		c1.9-2.5,3.8-5.2,4.3-8.3c0.4-2.3-0.1-4.7-0.7-7c-0.9-3.2-2.1-6.4-4.3-8.9c-2.2-2.5-5.5-4.3-8.8-4c-3,0.3-5.9,2.3-7.2,4.9
		C1675.2,155,1678.3,154.7,1680.7,155.9z"/>
	<path class="st10" d="M1608.9,207.4c0.8-5.7,2.7-11.2,5.6-16.3c1.8-3.2,4-6.3,4.5-9.8c1.5,10.1-0.2,20.7-4.7,29.8
		c-1.1,2.1-2.2,4-4.3,5.1C1608.1,214,1608.5,210.3,1608.9,207.4z"/>
	<path class="st10" d="M1611.5,247.9c2.4,7,1.6,15-2.2,21.4c5.4-6.3,8-14.9,7-23.2c-0.6-5.1-2.8-10.2-6.9-13.3
		c-2.5-1.9-5.6-2.9-8.6-3.8c-2.8-0.9-6.2-1.6-8.6,0.2c1.6,3.3,7.7,4.4,10.6,6.7C1606.7,238.9,1609.8,243.1,1611.5,247.9z"/>
	<path class="st10" d="M1572.3,228.4c-0.5-6.7-6-13-12.7-13.3c5.8-1.8,12.7,0.1,16.7,4.7c4,4.6,4.9,11.7,2.3,17.2
		c-2.1,4.4-7.7,9.2-12.7,8.4C1566.6,239.3,1572.8,235.8,1572.3,228.4z"/>
	<path class="st10" d="M1534.1,267.2c-0.8,4.5-0.4,9,0,13.5c0.3,3.2,0.6,6.4,0.8,9.6c0.3-5.6,3.4-10.7,6.7-15.4
		c3.2-4.7,6.7-9.3,8.2-14.8c1.1-4.2,1.1-14-5.2-12C1539.2,249.9,1534.9,262.4,1534.1,267.2z"/>
	<path class="st10" d="M1537.9,211c3.1-2.2,5.9-4.8,9.1-6.9c5-3.3,10.8-5.4,16.8-5.9c-5,1.3-7.7,6.4-11.1,10.2
		c-3.8,4.2-8.8,7.2-14,9.3c-1.7,0.7-11.8,3.6-11.9-0.6C1526.8,215,1536.4,212,1537.9,211z"/>
	<path class="st10" d="M1507.5,207.4c-7.8,1.7-16.3-0.5-22.4-5.7c2.2,3.8,5,7.3,8.2,10.4c1.6,1.5,3.3,2.9,5.3,3.7
		c5,2.1,10.9,0.5,15.5-2.5c6.4-4.2,11-11,12.4-18.5c0.1-0.6,0.1-1.2-0.2-1.8C1519.8,198,1517.3,205.3,1507.5,207.4z"/>
	<path class="st10" d="M1342.7,243.2c5.1,2.1,10.7,5.4,11.5,10.9c-6.1-1.9-12.6-2.2-18.8-3.5c-5.9-1.2-12.8-3.5-16.4-8.7
		C1325.3,236.6,1336.1,240.4,1342.7,243.2z"/>
	<path class="st10" d="M1301,225.9c-1.9,2.8-2.1,6.3-2.4,9.7c-0.5,7.7-0.7,26.5-6.3,31.8C1285.4,255,1292,235.5,1301,225.9z"/>
	<path class="st10" d="M1268,310.3c3.8,8.1,5.8,17.4,11.8,24.1c2.7-5.4,2.7-11.9,0.7-17.6c-2-5.7-5.8-10.7-10.3-14.7
		c-2.2-2-5.4-4.6-8.4-4C1261.7,301.8,1266.3,306.7,1268,310.3z"/>
	<path class="st10" d="M1236.3,296.7c-0.4-4.1-2.7-8-6.1-10.4c-3.3-2.3-8.4-2.9-10.9,0.3c2.3-5,8.6-7.7,13.7-5.9
		c5.2,1.8,8.5,7.8,7.2,13.1c-0.6,2.4-1.9,4.5-3.3,6.6c-1.2,1.9-2.6,3.8-3.3,5.9C1236.1,303.5,1236,300.2,1236.3,296.7z"/>
	<path class="st10" d="M1208.6,206.2c5.5-2.7,9.9-7.4,12.2-13c0.9,7.6-4.2,14.7-10.5,19.1c-2.6,1.8-5.5,3.2-8.6,3.5
		c-3.1,0.3-12.7-2.1-9.2-6.2C1194.5,207.1,1205.2,207.9,1208.6,206.2z"/>
	<path class="st10" d="M1179.7,239.5c-14.6,4.8-25.8,19-27,34.3c9.2-8.1,18.5-16.3,27.7-24.4c1.9-1.7,9.5-7.8,8.2-10.9
		C1187.2,235.3,1182.3,238.7,1179.7,239.5z"/>
	<path class="st11" d="M1346.2,325.9c-0.3,4-0.7,8.2,0.2,12.1c0.9,4,3.3,7.8,7.2,9.2c6,2.1,12.6-2.9,14.5-8.9c2-6,0.6-12.6-0.7-18.8
		c-1.3-6.2-2.6-12.8-0.5-18.8c4.4,2.5,5.7,8.1,7,13c3.1,12,9,24.4,20,30c2.2,1.1,5,1.9,7.2,0.6c1.7-1,2.4-3.1,2.8-5
		c2.5-13-5.9-25.3-13.9-35.8c-0.5-0.6-0.9-1.2-1.1-2c-0.4-2.2,2.4-3.8,4.5-3.3c2.2,0.5,3.7,2.3,5.3,3.8c9.3,9,24,11.9,36,7.1
		c3-1.2,6-3,7.3-6c1.9-4.4-1.1-9.7-5.3-12.1c-4.2-2.4-9.2-2.6-14-2.8c-6.2-0.2-12.3-0.5-18.5-0.7c2-4.3,5.9-7.4,8.9-11.1
		c3-3.7,5.1-9,2.7-13.2c-3-5.2-11.2-4.8-15.9-1.1c-4.7,3.7-7.3,9.5-10.8,14.4c-3.5,4.9-8.9,9.5-14.9,8.5c2.5-6.9,5.1-13.8,7.6-20.7
		c1.1-3,2.1-6.9-0.2-9.2c-1.8-1.9-5-1.6-7.3-0.3c-2.2,1.4-3.8,3.6-5.4,5.7c-3.9,5-8.6,9.4-13.8,12.9c-4.9,3.3-10.9,4.6-11.9,10.9
		c-0.8,5,2.5,12.6,2.8,17.8C1346.8,310.2,1346.7,318.1,1346.2,325.9z"/>
	<path class="st11" d="M1640.2,189.5c2.1,2,4.2,4.2,6.8,5.5c2.6,1.3,5.9,1.8,8.5,0.3c4-2.3,4.2-8.4,1.8-12.3
		c-2.5-3.9-6.7-6.2-10.8-8.3c-4.1-2.1-8.3-4.5-10.7-8.4c3.4-1.3,7.2,0.6,10.5,2.1c8.2,3.9,17.8,6.3,26.1,2.8
		c1.7-0.7,3.4-1.9,3.7-3.7c0.2-1.4-0.6-2.8-1.5-3.9c-6.1-7.4-16.9-8.5-26.4-8.9c-0.5,0-1.1-0.1-1.6-0.3c-1.4-0.8-1-3.1,0.2-4.1
		c1.3-1,3-1,4.6-1.2c9.3-1,17.8-7.9,20.7-16.9c0.7-2.2,1.1-4.8,0-6.9c-1.6-3.1-5.9-3.9-9.2-2.7c-3.3,1.2-5.7,3.9-8.1,6.5
		c-3,3.3-6,6.7-9,10c-1.5-3.1-1.4-6.8-2-10.1c-0.7-3.4-2.7-7-6.1-7.6c-4.3-0.8-7.9,4-8,8.4c-0.1,4.4,1.9,8.5,3.1,12.7
		c1.2,4.2,1.1,9.4-2.2,12.3c-2.7-4.6-5.4-9.2-8.1-13.9c-1.2-2-2.9-4.4-5.2-4.2c-1.9,0.2-3.3,2.1-3.5,3.9c-0.3,1.9,0.3,3.8,0.7,5.6
		c1,4.5,1.2,9.1,0.8,13.7c-0.4,4.3-2.5,8.2,0.6,11.7c2.5,2.8,8.2,4.4,11.3,6.7C1631.7,181.8,1636,185.5,1640.2,189.5z"/>
	<path class="st11" d="M1850.6,175.9c-2.6,1.4-5.3,2.8-7.3,4.9c-2.1,2.1-3.5,5.1-2.8,8c1,4.5,6.7,6.6,11.1,5.4
		c4.5-1.2,7.9-4.6,11.2-7.8c3.3-3.3,6.8-6.6,11.3-7.7c0.2,3.7-2.7,6.7-5.2,9.4c-6.1,6.6-11.4,15.1-10.5,24.1
		c0.2,1.8,0.8,3.8,2.4,4.6c1.3,0.6,2.8,0.3,4.2-0.3c8.9-3.6,13.1-13.5,16.4-22.6c0.2-0.5,0.4-1,0.8-1.4c1.2-1.1,3.3-0.1,3.8,1.5
		c0.5,1.5,0.1,3.2-0.2,4.8c-1.8,9.2,2.2,19.3,9.9,24.8c1.9,1.4,4.2,2.5,6.5,2.1c3.4-0.6,5.5-4.5,5.3-8c-0.2-3.5-2-6.6-3.8-9.6
		c-2.3-3.9-4.6-7.7-6.9-11.6c3.4-0.5,6.8,0.7,10.3,1.1c3.4,0.4,7.5-0.5,9.1-3.5c2-3.9-1.5-8.7-5.6-10.1c-4.1-1.4-8.7-0.7-13.1-0.9
		c-4.4-0.2-9.3-1.7-11-5.8c5.2-1.2,10.4-2.3,15.6-3.5c2.3-0.5,5-1.4,5.5-3.7c0.4-1.9-1-3.7-2.7-4.5c-1.7-0.8-3.7-0.9-5.6-1.1
		c-4.6-0.4-9.1-1.6-13.3-3.3c-4-1.7-7.1-4.8-11.3-2.9c-3.4,1.5-6.7,6.5-9.8,8.7C1860.4,170.1,1855.6,173.2,1850.6,175.9z"/>
	<g>
		<path class="st10" d="M1203.3,75.9c5,21.3-0.4,43-5.1,63.9c-5.2,23.2-9,46.7-11.2,70.3c-1.1,11.8-1.8,23.7-2.2,35.6
			c-0.3,10.4-0.7,21.1,0.6,31.5c1.1,8.9,3.6,18,9.5,25c5.7,6.9,14,10.8,22.9,11.3c20,1,38.4-12,53.9-23.1
			c18.8-13.6,36.3-29.2,51.9-46.3c14.3-15.6,26.3-33.3,41.6-47.9c7.5-7.2,16-13.7,25.6-18c9.9-4.5,20.6-6.4,31.4-7.5
			c20.5-2.2,41.9-2.1,60.8-11.5c8.8-4.4,14.9-10.6,21.2-17.8c2.5-2.8,5.5-6.4,9.4-7.2c5.2-1.1,8.8,4.4,11,8.3
			c9,16.4,1.6,36.6-0.8,53.8c-2.2,15.9-1.8,35.9,12.3,46.5c16.1,12,37.6,3.8,52.6-5.9c17.7-11.4,33.1-26,47.8-40.9
			c14.7-15.1,28.8-30.8,44.1-45.3c7.8-7.3,15.8-14.3,24.5-20.5c4.2-3,8.5-5.9,12.9-8.6c4.7-2.8,9.6-5.9,15-7.2
			c11.3-2.8,19.6,5.7,26.5,13.3c7,7.8,13.8,15.5,23.6,19.9c20.3,8.9,42.8,3.7,64.1,6.8c9.1,1.3,18.4,4,25.9,9.4
			c3.6,2.6,6.8,5.9,9,9.8c2.3,4.1,3,8.6,3.8,13.1c1.6,8.5,5.3,16.9,14.9,18.3c9.5,1.4,18.8-3.8,26.1-9.4c9.1-7,17.2-15.2,24.1-24.3
			c2.1-2.8-2-6.5-4.2-3.6c-7.1,9.4-15.5,18-25.1,24.9c-6.9,5-20.6,11.9-27.1,2.7c-2.7-3.7-3-8.6-3.8-12.9c-0.8-4.2-1.9-8.1-4-11.9
			c-4.2-7.4-11.4-12.7-19-16.1c-19-8.4-39.2-5.6-59.2-6.9c-11.1-0.8-22.6-2.9-31.6-9.9c-8.2-6.4-13.8-15.3-21.7-21.9
			c-7.2-6.1-15.9-8.9-25.1-6.1c-9.6,2.9-18.6,9.4-26.6,15.1c-16.8,12-31.5,26.5-45.8,41.3c-14.5,15.1-28.5,30.6-44,44.6
			c-7.8,7.1-16,13.7-24.7,19.6c-8.4,5.7-17.6,10.8-27.7,12.6c-9.4,1.6-19.2-0.3-25.6-7.8c-5.6-6.6-7.2-15.6-7.4-24
			c-0.4-18,6.9-35.2,5.8-53.3c-0.5-8.4-3-16.9-8.6-23.4c-5.9-6.8-13.7-7.1-20.5-1.5c-3.2,2.7-5.8,6-8.6,9.2
			c-3.1,3.6-6.6,6.8-10.7,9.4c-8.6,5.5-18.6,8.5-28.6,10.2c-20.7,3.6-42.3,2.2-62.4,9.2c-19.2,6.7-34.1,21-47.1,36.1
			c-14.2,16.5-27.4,33.7-43.1,48.9c-16.3,15.7-34.3,30.5-53.8,42.1c-15.3,9.1-39.2,17.7-52.3,0.4c-5.7-7.5-7.5-17.3-8.2-26.5
			c-0.8-10.9-0.3-21.9,0.1-32.8c1-23.7,3.6-47.4,7.6-70.7c3.7-21.5,10.3-42.7,12.1-64.5c0.8-9.9,0.4-19.7-1.8-29.4
			C1207.7,70.7,1202.5,72.5,1203.3,75.9L1203.3,75.9z"/>
	</g>
	<path class="st4" d="M1282,169.6c-2.8,11-5.5,22-8.3,33c-4.3,17.1-12.1,38.1-10,55.6c2.1,17.5,15.5,31.7,32,37.9
		c9.4,3.5,20,3,29.5-0.1c9.5-3.1,18.1-8.6,25.9-14.9c22.6-18.1,39.2-42.4,55.5-66.3c11-16.2,22-32.3,33-48.5
		c-3.1-2.1-7.5-1.3-10.6,0.8c-3.1,2.2-5.2,5.5-7.2,8.7c-19.8,31-42.8,59.8-68.6,86c-8.4,8.5-17.4,16.9-28.3,21.9
		c-10.9,4.9-24.3,5.8-34.6-0.4c-10.4-6.4-15.6-18.9-16.3-31.1c-0.6-12.1,2.6-24.1,5.9-35.8c4.4-15.9,8.8-31.9,13.3-47.8
		c1.1-4,2.2-8.1,1.5-12.2c-0.9-5.4-12.5-13.5-14.4-5.3c-0.3,1.4,2.9,5.9,3.2,7.7C1284,162.1,1282.8,166.2,1282,169.6z"/>
	<g>
		<path class="st6" d="M1080.3-20.5c31.3,3.2,60.7,17.2,83.1,39.3c11.4,11.3,20.2,24.6,27.3,38.9c7.7,15.4,14.2,31.3,24.2,45.4
			c36.8,52.1,102.6,74.9,164.4,74.9c33.1,0,66-6,97.9-14.5c32.7-8.7,64.1-20.8,96.2-31.2c30.2-9.8,60.7-15.1,92.5-13.2
			c29.6,1.7,58.7,8.2,87.2,15.8c58.3,15.6,115.7,36.8,176.5,39.7c7.4,0.3,14.7,0.4,22.1,0.1c8.9-0.3,7.8-14.1-1.1-13.8
			c-60.2,2.1-118.3-17.9-175.4-34.2c-57.9-16.5-117.8-29.5-177.7-15.6c-33.3,7.7-65,21.3-97.6,31.4c-31.5,9.8-63.7,17.8-96.6,20.6
			c-60.5,5.2-127.8-9.6-169-57.4c-21.7-25.2-29.4-58.7-50.3-84.5c-20.1-24.8-47.6-42.7-78.4-51.1c-7.5-2-15.1-3.4-22.9-4.2
			C1074.1-35,1071.5-21.4,1080.3-20.5L1080.3-20.5z"/>
	</g>
	<path class="st4" d="M1151.2,7.5c8.3,29.3,0.8,61.4,8.4,90.9c2.7,10.5,7.2,20.5,12.5,29.9c9.5,16.8,22.4,32.6,39.9,40.6
		c17.5,8.1,40.3,6.7,53.9-6.9c4.4-4.4,7.8-9.9,12.7-13.7c5-3.8,9.6-2.9,16.6,0.1c-2.2-8.2-12.1-12.6-20.3-10.7
		c-8.3,1.9-14.8,13.4-22.1,17.7c-19.5,11.5-33,10-48.3-1.9c-21.7-17-33.5-49.9-37.3-77.1c-2.5-17.8-3.2-35.8-2.1-53.8
		c0.6-9.4,1.6-19-0.3-28.2c-1.4-6.8-21.2-28.3-31-14.8C1129.8-14.8,1143.3-20.5,1151.2,7.5z"/>
	<path class="st4" d="M1455.4,148.2c10.2,0.5,19.7,4.7,29,8.9c9.3,4.1,18.8,8.3,29,8.8c11,0.6,22.1-3.5,30.2-10.9
		c6.9-6.4,11.4-14.8,16.1-23c4.7-8.1,10-16.3,17.8-21.5c7.8-5.2,18.9-6.6,26.4-1.1c-11.6,2-18.6,4.1-27.4,15.2
		c-7.2,9-14.6,18.4-20.6,28.2c-4.6,7.5-12.6,13.5-20,18.3c-10.9,6.9-25,5.9-37.3,2.2c-12.3-3.7-23.8-10-36.3-13
		c-5.4-1.3-11-2-16.5-2.1c-4.3-0.1-11.8,2.2-15.5,0.7C1434.5,150.6,1447.1,147.7,1455.4,148.2z"/>
	<path class="st4" d="M1612.5,152c2.3,18.7,18.6,44.6,35.5,52.8c11.6,5.6,45.4,5.2,78-31.5c11.1-12.5,21.4-26.1,34.3-36.7
		c12.9-10.7,29.5-15.1,44.8-8.2c5.5,2.5,11.5,7,13.1,10.7c-8.9-2.6-14.9-4.3-25.5-7.3c-12.6-3.5-24.1,9.7-33.3,19.1
		c-13,13.3-24.7,27.9-38.6,40.3s-30.3,22.8-48.8,25.5c-8.9,1.3-18.3,0.6-26.6-3c-4.7-2-8.9-5-12.8-8.2
		c-11.4-9.5-19.8-22.3-24.7-36.3c-4.4-12.4-8.4-31.8-3.3-44.6C1609.6,111.8,1611.8,145.7,1612.5,152z"/>
	<path class="st4" d="M1124.4,125.6c-3.6-1.4-7.2-2.8-11-2.8c-3.8,0-7.9,1.6-9.7,4.9c-2.4,4.3-0.2,10.1,3.7,13.2
		c3.9,3.1,8.9,4.3,13.8,5.3c4.6,1,9.2,2,13.9,3c0.1,3.4-3.4,6-6.8,6.6c-3.4,0.5-6.8-0.4-10.2-0.9c-8.8-1.2-18.1,0.8-25.5,5.7
		c-2.9,1.9-5.7,4.4-6.3,7.8c-1.1,5.6,4.3,10.6,9.9,11.6c5.6,1,11.2-0.8,16.7-2c1.9-0.4,4.2-0.7,5.6,0.6c2.8,2.6-0.6,7-3.6,9.3
		c-6.5,5-12.6,11.2-14.4,19.2c-1.9,8,2.1,17.7,10,19.7c8.7,2.2,16.9-5.3,21.3-13.1c3.6-6.3,6.1-13.3,7.3-20.4
		c2.1,6.6,6.5,12.4,12.3,16.2c2.7,1.8,6.1,3.1,9,1.8c4.9-2.2,4.2-9.2,2.7-14.4c-2.1-7.4-4.3-14.9-6.4-22.3c-1-3.4-0.7-8.5,2.8-8.6
		c0.8,0,1.5,0.3,2.2,0.7c7.6,4.3,8.1,18.3,16.8,18.8c6.3,0.3,9.8-7.8,8.7-14c-1.8-9.4-9.1-16.1-15.4-22.7c-6.5-6.8-10-13-13.5-21.4
		c-3.5,2-5.2,5.9-9.7,6.5C1141.3,134.6,1130.7,128.1,1124.4,125.6z"/>
	<path class="st4" d="M1183,31c1.9-5.5,4.1-10.9,6.6-16.2c0.6-1.4,1.4-2.8,2.7-3.6c3-1.7,6.7,1.6,7.5,5c0.7,3.4-0.2,7,0.4,10.4
		c0.2,1.2,0.7,2.4,1.8,2.9c0.9,0.4,1.9,0.2,2.8-0.2c2.9-1.3,4.8-4.2,6.5-7c1.6-2.8,3.3-5.7,6.1-7.3c2.8-1.6,7-1.2,8.4,1.7
		c1.1,2.2,0.1,4.9-1.2,7c-1.3,2.1-3,4-3.6,6.4c-0.6,2.4,0.7,5.5,3.1,5.8c1.4,0.2,2.7-0.6,3.8-1.4c3.9-2.8,7.3-6.7,12-7.5
		c4.9-0.8,10,2.7,11.1,7.6c1,4.8-2.2,10.2-6.9,11.5c-6.5,1.8-13.2-3.3-19.8-2.1c-1.1,0.2-2.2,0.6-2.7,1.6c-1.3,2.2,1.3,4.5,3.6,5.6
		c5,2.4,10.4,4.5,14.2,8.5c1.7,1.8,3.1,4.3,2.6,6.7c-0.5,2.2-2.4,3.9-4.5,4.7c-6.1,2.2-12.7-1.7-17.6-6.1c-4.8-4.4-9.6-9.6-16-10.7
		c-1-0.2-2.1-0.2-2.7,0.5c-1.1,1.1-0.1,3,0.8,4.2c4.3,5.3,9.7,10,12.3,16.3c0.3,0.7,0.6,1.5,0.5,2.2c-0.2,1.8-2.3,2.8-4.2,2.9
		c-7,0.2-11.4-7.2-15.2-13.1c-6-9.3-14.5-17-24.3-22.3c0-0.7,0.9-1,1.6-1.2C1178.4,42.6,1181.2,36.1,1183,31z"/>
	<path class="st12" d="M1332,206.3c-2-1.8-4.3-3.7-4.9-6.3c-1.2-5.4,5.7-9.7,11.1-8.2c5.3,1.5,8.9,6.5,11.7,11.2
		c1.6,2.6,4.1,5.6,7,4.8c3.7-1.1,3-6.4,1.5-10c-2.4-5.8-4.8-11.7-7.2-17.5c-2.1-5.2-3.5-12.5,1.5-15.1c4.7-2.4,9.9,2.7,11.6,7.7
		c1.6,5,1.9,10.9,5.7,14.6c1.4,1.3,3.4,2.3,5.2,1.7c2.1-0.7,3.1-3.1,3.8-5.2c2.4-7.4,4.8-14.8,7.2-22.2c1.2-3.6,2.4-7.2,4.9-10
		s6.7-4.3,10.1-2.7c5.7,2.7,4.6,11.1,2.3,17c-3.6,9.1-7.9,18-13,26.4c3.6-1.3,7.2-2.5,10.8-3.8c5.2-1.8,10.8-3.6,16.1-2.4
		c5.4,1.3,10,7.1,8,12.2c-1.6,4-6.4,5.8-10.7,5.8c-4.3,0-8.5-1.2-12.8-1.2c-7.3,0.1-14.5,4.1-18.3,10.3c4.1,3.4,10.1,2.3,15.4,1.8
		c5.3-0.4,12,1.1,13.1,6.3c0.4,1.9-0.1,3.9-0.9,5.7c-3.1,7-10.8,11.6-18.4,11.1c-3.4-0.2-6.7-1.4-10.1-2c-11.6-1.9-21.7,4-28.5,12.8
		C1355.9,232.7,1343.7,216.5,1332,206.3z"/>
	<path class="st4" d="M1714.8,242.4c2.5,6.4,11.5,10.4,16.4,5.6c5.8-5.8-0.3-16.1,2.6-23.8c0.4-1,0.9-1.9,1.7-2.5
		c1.9-1.3,4.7-0.4,6.1,1.4c1.4,1.8,1.9,4.2,2.3,6.5c1,5.7,1.9,11.3,2.9,17c0.6,3.7,1.3,7.6,3.4,10.8c2.1,3.2,6,5.5,9.7,4.6
		c5.9-1.5,7.2-9.7,5.1-15.4c-2.1-5.8-6.2-10.9-6.5-17c-0.1-0.9,0-1.9,0.7-2.5c0.6-0.6,1.6-0.6,2.4-0.5c7,0.8,11.2,8,16.9,12.1
		c4.3,3.1,9.7,4.6,15,4c6.1-0.6,12.6-5.6,11.4-11.5c-0.6-3.2-3.2-5.6-5.9-7.4c-7.6-5.3-16.8-8.3-26.1-8.4c-4-0.1-9.6-1.1-9.4-5.1
		c0.1-1.2,0.7-2.2,1.6-3.1c3.5-3.8,9.2-4.5,14.2-6c5-1.5,10.3-5.5,9.7-10.6c-0.7-5.3-7.5-7.7-12.6-6.1c-5.1,1.6-8.9,5.6-13,9.1
		c-3.9,3.3-8.3,6.1-12.9,8.2c-1.9,0.9-4.1,1.6-5.8,0.5c-1.8-1.2-1.9-3.9-0.9-5.8c1-1.9,2.9-3.2,4.6-4.5c3.5-2.7,6.7-5.9,9.5-9.4
		c0.7-0.9,1.3-1.9,1.3-3c-0.1-2.5-3.5-3.4-6-2.9c-8.2,1.6-13.6,9-19.2,15.2c-4.3,4.8-10.6,5.8-14.8,9.6c-3.8,3.4-2.2,3.8-1.8,8.7
		C1718.2,220.7,1710.8,231.9,1714.8,242.4z"/>
	<path class="st13" d="M1143.9,2.9c3.2,1.3,6,3.4,8.2,6c-0.6-2-1.2-4.1-1.9-6.1c-0.9-2.8-1.7-5.6-3.3-8.1c-1.5-2.4-3.9-5-6.3-6.6
		C1143.4-7.4,1145-2.5,1143.9,2.9z"/>
	<path class="st13" d="M1284.9,152.7c0.4-1.9,1.5-3.6,3-4.8c0.9-0.7,2-1.2,3.1-1c-2.3-0.6-4.7-1.1-7-0.8c-2.3,0.3-4.5,1.2-6.3,2.6
		c-1.9,1.4-3.4,3.1-4.8,4.9c2.9,1.4,5.8,2.8,8.7,4.2c0.6,0.3,4.7,2,5.4,2c0.6,0-2.3-1.5-2.4-2
		C1284.6,156.1,1284.5,154.4,1284.9,152.7z"/>
	<path class="st13" d="M1452,158.1c1.8,0.2,3.6,0.6,5.3,1c6.1,1.3,12.2,2.7,17.8,5.2c-4,0.8-7.9,1.8-11.8,3.1
		c-1.8,0.6-3.8,1.3-5.5,0.6c-0.9-0.4-1.7-1-2.5-1.6c-1.6-1.3-3.4-2.2-5.3-3c-5.7-2.5-12.1-4-18.3-3.8c3.3-0.1,6.7-1.2,10-1.5
		C1445.2,157.6,1448.6,157.6,1452,158.1z"/>
	<path class="st13" d="M1569.5,133.8c3.7-1.4,7.5-2.7,11.4-3.9c-1.2-1.6-1.6-3.8-1.4-5.8c0.1-1.2,0.6-2.2,0.9-3.4
		c-1.7-0.1-4.6,4.2-5.6,5.5C1572.9,128.7,1571.1,131.2,1569.5,133.8z"/>
	<path class="st13" d="M1779,133.6c3.1-1.6,6.5-2.5,9.9-2.3c-4.8,1.5-8.4,6.1-8.9,11c0-0.2-3.6-1.2-4-1.3c-1.3-0.4-4.2-1-5.4-1.5
		c0,0,3.7-3.1,4.4-3.6C1776.4,135.1,1777.7,134.3,1779,133.6z"/>
	<path class="st14" d="M1378.8,197.5c-7.6,13.5-16,26.7-22.2,41c3.8-5.7,10.5-9.3,17.3-9.3c6.3,0,12.3,2.8,18.7,2.9
		c2.6,0.1,5.4-0.4,7.2-2.2c1.9-1.8,2.2-5.2,0.2-6.9c-0.9-0.8-2.1-1-3.3-1.2c-5.6-0.9-11.5-0.8-16.8-2.9c-1.5-0.6-3.1-1.5-3.7-3
		c-0.5-1.3-0.2-2.8,0.3-4.2c2.4-6,8.5-9.7,14.7-11.5c6.2-1.8,12.7-2.3,18.8-4.4c1-0.3,2.1-1,1.9-2c-0.1-0.4-0.4-0.7-0.8-0.9
		c-1.5-1-3.4-1-5.3-0.9c-5.4,0.4-10.8,1.3-16,2.9c-1.2,0.3-2.6,0.7-3.4-0.2c-1.2-1.2-0.1-3.2,0.8-4.6c2.2-3.2,3.7-6.8,5.2-10.4
		c2.7-6.8,5.1-13.8,7.3-20.8c0.3-1.1,0.7-2.1,0.6-3.2c-0.3-3.1-3.8-3.5-4.3-0.5c-0.6,3.3-1.1,6.5-2.1,9.8c-2.3,7.2-5.4,14.2-8.8,21
		C1383.1,189.9,1381,193.7,1378.8,197.5z"/>
	<path class="st15" d="M1731.3,205.6c13.5,3,26.8,6.7,39.9,11.2c4.3,1.5,8.7,3.1,12.7,5.2c3,1.5,5.8,3.3,8.4,5.4
		c2.6,2,5.1,4.3,6.5,7.3c0.4,0.9,0.6,2.3-0.3,2.8c-0.2,0.1-0.4,0.2-0.7,0.2c-3.5,0.6-7.1-0.9-10.1-3c-2.9-2.1-5.4-4.8-8.1-7.1
		c-4.5-3.9-9.7-6.9-15.3-8.8c-1.9-0.6-4.1-1.1-5.8-0.1c-1.3,0.8-2,2.3-2.5,3.7c-0.9,2.2-1.6,4.5-1.6,6.9c-0.2,7.5,6.2,14.6,4.3,21.8
		c-0.3,1.4-1.1,2.8-2.5,3.1c-2.1,0.5-3.8-1.8-4.4-3.9c-1-3.8-0.7-7.7-0.8-11.6c-0.2-3.9-0.9-7.8-2.1-11.5c-0.8-2.5-1.9-4.9-3.6-6.8
		c-1.8-2-4.1-3.4-6.5-4.6c-2.2-1.1-4.6-2-7.1-2.1c-2.5-0.1-5.1,0.7-6.7,2.6c-1.9,2.3-2,5.6-1.3,8.5c0.7,2.9,2.1,5.6,2.9,8.4
		c0.8,2.8,1.1,6.1-0.5,8.6c-0.4,0.6-0.8,1.1-1.4,1.5c-1.4,0.8-3.2,0.3-4.3-0.8c-1.1-1.1-1.7-2.6-1.9-4.2c-1.1-5.9,1-11.7,2.5-17.5
		c1-4.2,1.6-8.7,0.4-12.9c-0.7-2.4-0.7-3.5,2.2-3.5C1726.2,204.4,1728.9,205.1,1731.3,205.6z"/>
	<path class="st15" d="M1140.6,137.9c-4.3-0.8-8.5-2.4-12.8-3.2c-0.9-0.1-1.9-0.2-2.7,0.1s-1.4,1.4-0.9,2.2c0.2,0.4,0.6,0.6,1,0.8
		c2.7,1.5,5.8,2.1,8.7,2.8c3,0.8,6,1.8,8.2,4c2.2,2.2,3.2,5.7,1.7,8.4c-0.8,1.4-2.3,2.4-3.7,3.2c-6.8,3.4-15.1,2.5-21.7,6.1
		c-0.8,0.4-1.7,1.2-1.3,2c0.2,0.4,0.6,0.7,1,0.8c3.3,1.2,7-0.7,10.4,0c1,0.2,2.1,0.9,2,1.9c-0.1,0.8-1.1,1.3-1.9,1.5
		c-6.6,1.9-13.7,0.8-20.6,1.1c-2.1,0.1-4.3,0.4-5.9,1.7c-0.4,0.3-0.8,0.7-0.8,1.2c-0.1,1.3,1.6,1.7,2.9,1.7
		c4.9-0.1,9.9-0.3,14.8-0.4c2.8-0.1,6.1,0.1,7.7,2.5c1.4,2.1,0.6,4.9-0.8,6.9c-1.7,2.5-4.3,4.3-6.5,6.4c-4.7,4.5-8,10.5-9.2,16.9
		c-0.4,2.3-0.6,4.7,0.2,6.9c0.2,0.5,0.5,1.1,1,1.3c0.8,0.3,1.6-0.2,2.2-0.8c2.9-2.6,5.4-5.5,7.5-8.7c-1.1,2.6-2,5.4-2.7,8.1
		c-0.3,0.9-0.5,1.9-0.3,2.9c0.2,1,1,1.8,2,1.8c1.1,0,1.8-1.1,2.4-2.1c3.7-6.9,6.4-14.3,8-22c0.6-2.6,1-5.3,1.9-7.9
		c0.6-1.7,1.6-3.5,3.4-4c2-0.5,3.9,1,4.9,2.8c1,1.8,1.4,3.8,2.3,5.6c1.2,2.4,3.4,4.2,6,5.1c0.6,0.2,1.4,0.4,2,0.1
		c1.3-0.5,1.5-2.2,1.4-3.6c-0.3-5.6-1.4-11.2-3.3-16.4c-0.7-2.1-1.6-4.1-1.8-6.3c-0.2-2.2,0.3-4.6,2-6c0.7,0.9,1.5,1.8,2.2,2.6
		c1.9-0.9,2.7-3.3,2.6-5.4c-0.1-2.1-0.9-4.1-1.5-6.1c-0.3-1-0.4-2.2,0.4-2.8c0.4-0.3,0.9-0.3,1.4-0.2c2.6,0.5,3.9,3.5,5.2,5.8
		c2.3,4,6.2,7.1,10.7,8.3c0.3,0.1,0.6,0.2,0.9,0c0.6-0.2,0.6-1,0.5-1.6c-0.6-3.5-2.9-6.4-5.1-9.1c-2.9-3.7-5.8-7.3-8.7-11
		c-2.2-2.8-4.6-6.5-3.1-9.8c-1,0.8-1.7,1.8-2.6,2.5c-1,0.6-2.5,1.1-3.7,1.4C1145.8,138.4,1143.1,138.3,1140.6,137.9z"/>
</g>
<g>
	<g>
		<path class="st6" d="M345.9,1106.6c-10.7,1.8-22.8-0.5-26.6-12c-3-9.4-1.8-20-1.6-29.7c0.1-9-0.1-18.5-3.9-26.8
			c-4.2-9.2-12.4-15.9-22.3-18c-9.4-2-17.7,1.2-26.3,4.6c-7.1,2.8-15.8,5.9-22-0.4c-5.9-6-6.9-15.4-11.1-22.4
			c-2.2-3.6-5.3-6.6-9.3-8c-4.6-1.6-9.4-0.8-13.9,0.6c-4.8,1.6-9.2,3.9-14,5.3c-5,1.5-10.2,2.4-15.5,2.6c-10,0.4-20.9-1.4-29.2-7.2
			c-3.8-2.7-7.2-6.3-8.6-10.9c-1.3-4.4-0.6-9,1.3-13.1c3.9-8.6,11-15.3,15.4-23.7c4.7-9,5.2-19.4,3-29.2c-2.5-10.8-8.6-20.3-16-28.4
			c-7.5-8.2-16.5-15.9-26.2-21.2c-8.5-4.6-18.3-6.8-27.5-3c-9,3.7-15.6,11.1-22.8,17.5c-6.5,5.8-14.6,11.3-23.7,9.5
			c-7.6-1.4-14.5-7-17.5-14.1c-1.8-4.2-1.9-8.3-1.1-12.8c0.9-5.2,2.4-10.6,0.4-15.8c-1.7-4.5-5.2-7.8-10.1-8.1
			c-3.4-0.2-3,5.1,0.3,5.3c5.2,0.3,5.8,7.6,5.3,11.4c-0.7,5-2.3,10-1.6,15.1c1.1,8.5,6.5,15.8,13.6,20.3c7.2,4.5,16,5.5,24,2.3
			c9.1-3.7,15.7-11.2,22.9-17.5c6.9-6.2,15-11.2,24.7-9.4c10.2,1.8,18.9,9,26.5,15.5c15.6,13.5,30.9,34.8,22.9,56.5
			c-3.4,9.1-10.6,16-15.4,24.3c-4.8,8.2-6,18-0.4,26.2c5.6,8.3,15.7,12.9,25.3,14.7c10.3,1.9,21.1,1.4,31.2-1.5
			c4.9-1.4,9.4-3.6,14.1-5.3c4.2-1.5,8.8-2.4,12.9,0c3.4,2,5.3,5.7,6.8,9.2c1.7,3.9,3,7.9,4.8,11.8c1.9,3.9,4.4,7.6,8.1,10
			c3.4,2.2,7.5,3,11.6,2.6c8.4-0.8,15.8-5.4,23.8-7.6c9.5-2.6,20.2,0.5,26.7,7.9c6.2,7.1,7.5,16.7,7.7,25.7
			c0.2,9.4-0.8,18.8,0.2,28.2c0.5,5.4,1.8,11.1,5.1,15.6c3.2,4.3,7.9,7.1,13.1,8.4c5,1.3,10.4,1.2,15.4,0.4
			C349.6,1111.3,349.3,1106.1,345.9,1106.6L345.9,1106.6z"/>
	</g>
	<path class="st16" d="M352.6,1079.5c-5.6-1.6-10.8-5.1-13.4-10.2c-2.6-5.2-1.8-12.2,2.7-15.9c1.6-1.3,3.4-2.1,5.4-2.6
		c2.4-0.6,4.9-0.8,7.3-0.1c2.4,0.7,4.5,2.5,5.2,4.8c1.5,4.7-2.6,10.1-0.3,14.4c0.3,0.6,0.8,1.1,1.4,1.4c1.3,0.6,2.8-0.1,3.6-1.2
		c0.8-1.1,1-2.6,1-4c0.2-5.1-1.4-10.2-0.3-15.2c0.9-4,3.5-7.7,7.2-9.5c3.7-1.8,8.3-1.8,11.8,0.4c3.5,2.2,5.6,6.5,5.1,10.5
		c-0.5,3.5-2.7,6.5-5.2,8.9c-2.5,2.5-5.3,4.6-7.4,7.4c-0.8,1-1.5,2.3-0.9,3.4c0.2,0.5,0.7,0.8,1.2,1c1.9,0.7,3.9-0.4,5.5-1.7
		c7.8-6,14.1-14.1,22.7-18.9c2.8-1.5,6-2.7,9.1-2c3.3,0.8,5.7,3.7,7.1,6.7c1,2.2,1.7,4.6,1.6,7.1c-0.2,5.3-4.1,10-8.8,12.5
		c-4.7,2.4-10.2,3-15.6,2.8c-4-0.1-8.1-0.6-12.1,0.1c-0.6,0.1-1.2,0.2-1.6,0.7c-0.9,0.8-0.5,2.4,0.4,3.2s2.1,1,3.3,1.2
		c3.9,0.7,7.9,1.3,11.8,2c1.8,0.3,4,0.9,4.6,2.6c0.5,1.4-0.3,2.9-1.3,4c-3.3,3.8-8.8,4.9-13.8,4.6c-4.3-0.2-8.9-1.5-11.5-5
		c-1.8-2.4-2.6-5.8-5.2-7.2c-0.7-0.4-1.6-0.6-2.3-0.3c-0.9,0.4-1.3,1.6-1.1,2.5c0.2,1,0.8,1.8,1.5,2.5c1.3,1.5,2.9,2.8,4.6,3.8
		c0.8,0.5,1.6,1,2.2,1.7c0.9,1.3,0.5,3.2-0.5,4.4c-1,1.2-2.5,1.9-4.1,2.4c-3.3,1.1-6.8,1.6-10.2,1.5c-2.9-0.1-5.8-0.6-8.3-2.1
		c-2.5-1.4-4.5-3.8-5.1-6.6c-0.7-3.2,0.6-6.5,1-9.7c0.5-3.2-0.3-7.2-3.3-8.5L352.6,1079.5z"/>
	<path class="st4" d="M346.9,1081.4c6.8-6.2,12.8-13.1,19.6-19.2c6.9-6,14.9-11.2,23.8-12.9s19.1,0.6,25.1,7.5c1.7,2,3,5.2,1.2,7.1
		c-1.4,1.4-3.7,1.1-5.4,0.2c-1.7-1-3-2.5-4.5-3.7c-4.9-3.7-11.9-3.1-17.8-1.3c-19.1,5.9-33,22-46.5,36.6c-1.3,1.4-2.7,2.8-4.5,3
		c-1.4,0.1-2.8-0.6-3.8-1.6C326.3,1089.4,342.4,1085.5,346.9,1081.4z"/>
	<path class="st10" d="M315.6,1061.6c-24.3-16.8-55.9-17.9-83-29.5c-22.9-9.8-42.4-27.3-54.6-49c-11-19.5-16.1-41.9-26.8-61.5
		c-14.1-25.9-37.7-45.9-64.3-58.7C60.3,850,30.8,844.2,1.3,842.6c-10.9-0.6-22.1-0.6-32.5,2.8c-10.4,3.4-20,10.9-23.6,21.2
		c-0.6,1.7-1,3.5-0.7,5.3c0.6,3.8,4.4,6.4,8.2,6.9c3.8,0.5,7.6-0.5,11.3-1.5c29.2-7.7,60-11.2,89.6-5.1
		c29.6,6.1,57.8,22.7,73.6,48.4c7.7,12.5,12.2,26.6,17.6,40.3c12.5,31.9,31.2,63.5,61.2,80c23,12.7,50.2,15.2,75.3,22.9
		c25.1,7.8,50.9,24.1,56.3,49.8c1.1,5.3,8,18.4,14,8.3c2.9-4.9-3.1-11.9-5.1-16.1C338.7,1088.3,332.1,1072.9,315.6,1061.6z"/>
	<path class="st17" d="M-47.3,878.8c3.8,0.5,7.6-0.5,11.3-1.5c29.2-7.7,60-11.2,89.6-5.1c29.6,6.1,57.8,22.7,73.6,48.4
		c7.7,12.5,12.2,26.6,17.6,40.3c12.5,31.9,31.2,63.5,61.2,80c23,12.7,50.2,15.2,75.3,22.9c25.1,7.8,50.9,24.1,56.3,49.8
		c1.1,5.3,8,18.4,14,8.3c0.4-0.6,0.6-1.2,0.7-1.9c-4.7,0.8-8.9-7.9-9.8-12c-5.3-25.8-31.1-42.1-56.3-49.8
		c-25.1-7.8-52.3-10.2-75.3-22.9c-30-16.5-48.7-48.1-61.2-80c-5.3-13.7-9.9-27.8-17.6-40.3c-15.8-25.7-44-42.3-73.6-48.4
		c-29.6-6.1-60.4-2.6-89.6,5.1c-3.7,1-7.5,2-11.3,1.5c-3.8-0.5-7.6-3.1-8.2-6.9c-0.3-1.8,0.1-3.6,0.7-5.3c0.9-2.5,2.1-4.8,3.5-6.9
		c-3.8,3.4-6.7,7.6-8.4,12.5c-0.6,1.7-1,3.5-0.7,5.3C-54.9,875.7-51.1,878.3-47.3,878.8z"/>
	<path class="st4" d="M262,1026.8c11.5,5.7,20.1,16.2,25.9,27.7c3.9,7.7,6.7,16,12,22.7c4.3,5.5,10,9.8,16.5,12.3
		c3.5,1.4,7.2,2.2,10.5,4c3.3,1.8,6.2,4.8,6.7,8.5c-7,2.3-14.4-1.7-20.6-5.7c-6.9-4.5-13.6-9.4-19-15.6
		c-8.4-9.6-13.3-21.8-20.7-32.2c-7.4-10.4-19-19.6-31.7-18.1c-3,0.4-6,1.3-9.1,1.4c-4.3,0.1-8.3-1.5-4.7-4.9
		c2.4-2.3,7.7-3.2,10.8-3.7C246.6,1021.8,254.9,1023.3,262,1026.8z"/>
	<path class="st17" d="M173.8,999.1c-4.6-1.1-8.6-4.2-11.2-8.2c3.7,5.5,7.5,10.9,11.3,16.2c0.7,1,1.6,2.1,2.8,2.5
		c1.4,0.4,3-0.3,4.2-1.2c2-1.5,3.7-3.5,4.8-5.7c0.7-1.4,2.5-5.4,1.4-6.8c-2.1,1.2-3.8,2.6-6.3,3.1
		C178.6,999.7,176.1,999.7,173.8,999.1z"/>
	<path class="st4" d="M180.1,905.2c17.3,14.2,28.7,36.5,26.2,58.7c-1.4,12.2-6.7,23.6-13.3,34c-6.6,10.4-14.4,19.8-21.5,29.8
		c-4.9,6.9-9.5,15.9-5.5,23.4c3.8,7,12.1,5.7,19.4,2.4c7.3-3.3,14.2-7.2,19-13.7c3,1.6,6.1,3.2,9.1,4.8c-8,9.5-19.3,16.3-31.6,18.8
		c-8.9,1.8-19.8,0.6-24.5-7.2c-4.4-7.5-0.9-17.1,3.6-24.5c10.8-17.9,26.7-32.9,34.3-52.3c6.3-16.1,6.2-35.1-2.4-50.1
		c-6.6-11.4-17.4-19.7-28.8-26.2c-8.9-5.1-18.6-9.3-28.8-9.3c-1.7,0-3.4,0.1-4.9-0.5c-1.2-0.5-2.2-1.4-3.2-2.3
		c-2.9-2.6-6.4-5.2-8.8-8.2c3.5-1.9,11.5,0.8,15.3,1.6c5.7,1.2,11.3,2.7,16.7,4.6C161.1,892.6,171.3,898,180.1,905.2z"/>
	<path class="st17" d="M18.9,852c1.1,3.1,1.1,6.7-0.4,9.7c-1.5,3-4.5,5.2-7.9,5.4c5.9,1.4,11.9,2,17.9,1.7c2-0.1,4.4-0.5,5.2-2.4
		c0.4-0.9,0.3-2,0-3c-1.1-4.8-4.6-8.7-8.1-12.2c-2.7-2.7-5.8-5.5-9.6-6.5c-2.7-0.7-2,0.3-0.6,1.8C17,848.1,18.2,849.9,18.9,852z"/>
	<path class="st4" d="M20.5,834.1c11.1,10.3,18.7,23.7,28.3,35.5c9.6,11.7,22.5,22.3,37.7,22.9c4.2,0.2,8.4-0.5,12.5,0.1
		c4.1,0.6,8.4,2.7,10,6.6c-21.3,7.2-46.5,1.4-62.5-14.6c-13.6-13.6-21.2-34-38.7-42.1c-8.5-4-18-4.2-27.2-4.9
		c-9.9-0.7-15.2-5.6-6-14.3C-13.5,812.3,11.2,825.6,20.5,834.1z"/>
	<path class="st4" d="M48.6,953.6c-0.3,0.4-1.1,0.6-1,0.1c2.5-5.9,4.2-12,5.9-18.1c1-3.5,2-7,2.6-10.6c2.5-14.2-0.9-29.3-9.2-41.1
		c-2.3-3.2-5-6.3-6.6-9.9c-0.6-1.4,0.3-1.6,1.4-1.6c1.5,0.1,2.9,2.4,3.7,3.5c1.5,1.9,2.6,4.1,4,6.1c3.6,5.6,6.5,11.1,8.2,17.5
		c3.2,11.6,3,24-0.3,35.5C55.5,941.7,52.5,948,48.6,953.6z"/>
	<path class="st4" d="M57.1,935.1c0.8-5.7-0.3-11.9-4-16.4c-3.7-4.4-10.4-6.5-15.6-3.9c-1.8,0.9-3.3,2.3-4.6,3.9
		c-1.5,1.9-2.7,4.2-3,6.6c-0.3,2.4,0.5,5.1,2.4,6.7c3.7,3.2,10.3,1.6,13.3,5.5c0.4,0.5,0.7,1.2,0.7,1.8c0,1.4-1.2,2.6-2.6,2.8
		c-1.4,0.3-2.8-0.1-4.1-0.6c-4.7-1.9-8.8-5.4-13.8-6.4c-4-0.8-8.5,0.2-11.6,2.8c-3.2,2.6-5,6.9-4.4,11c0.6,4.1,3.7,7.7,7.6,8.9
		c3.4,0.9,7,0.1,10.3-1.2c3.3-1.3,6.4-3,9.8-3.9c1.2-0.3,2.7-0.4,3.5,0.6c0.3,0.4,0.4,0.9,0.4,1.5c-0.1,2-2,3.4-3.7,4.4
		c-8.7,4.7-18.6,7.2-26.4,13.2c-2.5,1.9-4.9,4.4-5.4,7.5c-0.6,3.3,1.1,6.7,3.3,9.2c1.6,1.8,3.6,3.4,5.8,4.3c5,1.9,10.8,0.3,14.9-3.1
		c4.1-3.4,6.8-8.2,8.8-13.1c1.5-3.8,2.7-7.7,5-11c0.3-0.5,0.7-1,1.3-1.2c1.1-0.5,2.4,0.5,2.7,1.6c0.4,1.1,0.1,2.4-0.2,3.5
		c-1,3.9-2,7.7-2.9,11.6c-0.5,1.8-0.8,4,0.6,5.2c1.1,1,2.8,0.9,4.2,0.4c4.8-1.5,8-6.1,9.8-10.8c1.5-4,2.2-8.8,0-12.5
		c-1.5-2.6-4.2-4.7-4.6-7.6c-0.1-0.8,0.1-1.7,0.7-2.2c0.7-0.7,1.9-0.6,2.7,0c0.8,0.6,1.3,1.5,1.7,2.4c0.8,1.8,1.4,3.7,1.7,5.7
		c0.1,0.9,0.2,1.9,0.7,2.7c0.9,1.3,2.7,1.8,4.3,1.3c1.5-0.4,2.8-1.6,3.8-2.7c2.3-2.6,4.2-5.5,5.5-8.8c1.1-2.7,1.7-5.5,1.4-8.4
		c-0.3-2.8-1.6-5.7-4-7.3c-2.7-1.9-6.1-2.1-9.3-3c-3.2-0.9-6.5-3.2-6.5-6.4L57.1,935.1z"/>
	<path class="st4" d="M204.6,844.5c0.1-0.5-0.2-1.3-0.5-0.9c-3.1,5.5-6.9,10.7-10.6,15.8c-2.2,3-4.3,5.9-6.8,8.6
		c-9.6,10.7-23.6,17.4-38,18.1c-4,0.2-8-0.1-11.9,0.9c-1.5,0.4-1.1,1.2-0.4,2.1c1,1.1,3.7,0.8,5,0.8c2.4-0.1,4.8-0.4,7.2-0.6
		c6.6-0.6,12.7-1.7,18.8-4.3c11.1-4.6,20.8-12.4,27.8-22.1C199.4,857.3,202.6,851.1,204.6,844.5z"/>
	<path class="st4" d="M195.2,862.6c-4.1,4.1-9.6,7.1-15.4,6.9c-5.8-0.2-11.6-4.2-12.7-9.9c-0.4-2-0.2-4,0.3-6
		c0.6-2.4,1.6-4.7,3.4-6.5c1.8-1.7,4.3-2.7,6.7-2.3c4.8,0.9,7.6,7.1,12.5,7.1c0.7,0,1.4-0.2,1.9-0.6c1.1-0.8,1.3-2.5,0.6-3.8
		c-0.6-1.3-1.8-2.1-3-2.8c-4.4-2.5-9.6-3.7-13.5-7c-3.1-2.7-5.1-6.8-5-10.9c0.1-4.1,2.4-8.2,6-10.2c3.6-2,8.4-1.9,11.7,0.6
		c2.8,2.1,4.4,5.5,5.4,8.8c1,3.4,1.6,6.9,3,10.1c0.5,1.1,1.4,2.4,2.6,2.4c0.5,0,1-0.2,1.4-0.6c1.5-1.3,1.5-3.6,1.1-5.6
		c-1.6-9.7-5.7-19.1-5.8-29c0-3.2,0.5-6.6,2.6-8.9c2.3-2.5,5.9-3.3,9.3-3.1c2.4,0.1,4.9,0.7,7,2c4.6,2.7,6.9,8.3,6.8,13.7
		c-0.1,5.3-2.3,10.4-4.9,15c-2,3.5-4.4,6.9-5.7,10.7c-0.2,0.6-0.3,1.2-0.2,1.7c0.3,1.1,1.8,1.6,3,1.2c1.1-0.4,1.9-1.4,2.6-2.3
		c2.4-3.2,4.9-6.3,7.3-9.5c1.1-1.5,2.6-3.1,4.5-2.8c1.5,0.2,2.4,1.6,2.9,3c1.7,4.7,0.1,10.1-2.5,14.4c-2.2,3.7-5.6,7.1-9.8,7.7
		c-3,0.4-6.3-0.5-8.8,1.1c-0.7,0.4-1.3,1.1-1.3,1.9c-0.1,1,0.8,1.9,1.7,2.2c0.9,0.3,2,0.1,2.9-0.1c1.9-0.5,3.8-1.2,5.5-2.2
		c0.8-0.5,1.6-1,2.5-1.1c1.6-0.2,3.1,1.1,3.7,2.6c0.6,1.5,0.5,3.1,0.2,4.7c-0.6,3.4-1.8,6.7-3.5,9.7c-1.4,2.5-3.3,4.8-5.7,6.3
		c-2.4,1.5-5.5,2.2-8.2,1.4c-3.1-0.9-5.4-3.6-8-5.5c-2.6-1.9-6.5-3.2-9-1.1L195.2,862.6z"/>
	<path class="st4" d="M281.8,1083.6c0.2-4-0.8-8.3-3.6-11.2c-2.8-2.9-7.6-4-11-1.9c-1.2,0.7-2.2,1.8-3,2.9c-1,1.4-1.7,3-1.8,4.7
		c-0.1,1.7,0.6,3.5,2,4.5c2.7,2,7.2,0.6,9.5,3.2c0.3,0.4,0.6,0.8,0.6,1.2c0.1,1-0.7,1.8-1.7,2.1s-1.9,0-2.9-0.2
		c-3.4-1.1-6.4-3.3-9.9-3.7c-2.8-0.4-5.9,0.5-7.9,2.5c-2.1,2-3.1,5-2.5,7.8c0.6,2.8,2.9,5.2,5.7,5.8c2.4,0.5,4.9-0.3,7.1-1.3
		c2.2-1,4.3-2.4,6.6-3.1c0.8-0.3,1.9-0.4,2.5,0.2c0.2,0.3,0.4,0.6,0.4,1c0.1,1.4-1.2,2.4-2.4,3.2c-5.8,3.7-12.5,5.9-17.7,10.5
		c-1.7,1.5-3.2,3.3-3.4,5.5c-0.2,2.3,1.1,4.6,2.7,6.2c1.2,1.2,2.6,2.2,4.3,2.7c3.5,1.1,7.5-0.3,10.2-2.8c2.7-2.5,4.3-6,5.5-9.5
		c0.9-2.7,1.5-5.5,2.9-7.9c0.2-0.4,0.4-0.7,0.8-0.9c0.7-0.4,1.7,0.2,2,1c0.3,0.8,0.2,1.6,0,2.5c-0.5,2.7-1,5.5-1.5,8.2
		c-0.2,1.3-0.4,2.8,0.6,3.6c0.8,0.6,2,0.5,2.9,0.1c3.3-1.3,5.3-4.6,6.3-8c0.9-2.9,1.1-6.2-0.6-8.7c-1.2-1.7-3.2-3-3.5-5.1
		c-0.1-0.5,0-1.2,0.3-1.6c0.5-0.5,1.3-0.5,1.9-0.1c0.6,0.4,1,1,1.3,1.6c0.7,1.2,1.1,2.5,1.4,3.9c0.1,0.6,0.2,1.3,0.6,1.8
		c0.7,0.9,2,1.1,3,0.7c1-0.4,1.8-1.2,2.5-2.1c1.5-1.9,2.7-4.1,3.4-6.4c0.6-1.9,0.9-3.9,0.6-5.9c-0.3-2-1.4-3.8-3.1-4.9
		c-1.9-1.2-4.4-1.1-6.6-1.6c-2.2-0.5-4.7-1.9-4.8-4.1L281.8,1083.6z"/>
	<path class="st12" d="M174.4,1036.2c5.2-3.8,9.4-9.4,10.1-15.8c0.7-6.4-2.8-13.4-8.8-15.5c-2.1-0.7-4.4-0.9-6.6-0.7
		c-2.7,0.2-5.5,1-7.6,2.7c-2.2,1.7-3.7,4.3-3.6,7c0.3,5.4,6.6,9.6,5.8,14.9c-0.1,0.7-0.4,1.5-0.9,2c-1.1,1.1-3,1-4.3,0.1
		c-1.3-0.9-2-2.3-2.6-3.8c-2.1-5.2-2.5-11.2-5.5-16c-2.4-3.9-6.6-6.7-11.2-7.2c-4.6-0.5-9.4,1.3-12.2,5s-3.4,8.9-1.3,12.9
		c1.8,3.4,5.3,5.7,8.8,7.3c3.5,1.6,7.3,2.8,10.6,4.9c1.2,0.7,2.4,1.9,2.2,3.2c-0.1,0.6-0.4,1.1-0.8,1.5c-1.7,1.5-4.2,1-6.4,0.4
		c-10.5-3.3-20.1-9.3-30.9-11c-3.5-0.5-7.3-0.6-10.2,1.4c-3.1,2.1-4.6,6-4.9,9.7c-0.2,2.7,0,5.5,1.1,8c2.3,5.5,8.1,8.9,13.9,9.7
		c5.9,0.7,11.8-0.8,17.3-3c4.2-1.7,8.3-3.7,12.7-4.5c0.6-0.1,1.3-0.2,1.9,0.1c1.2,0.5,1.4,2.3,0.8,3.4c-0.6,1.2-1.8,1.9-3,2.5
		c-3.9,2.2-7.7,4.4-11.6,6.6c-1.8,1-3.8,2.4-3.8,4.5c0,1.6,1.4,2.9,2.9,3.7c4.9,2.7,11.1,1.8,16.2-0.4c4.4-1.9,8.7-5,10.1-9.6
		c1-3.2,0.5-7,2.6-9.5c0.6-0.7,1.4-1.2,2.3-1.2c1.1,0.1,1.9,1.1,2.1,2.2s-0.2,2.2-0.6,3.2c-0.8,2.1-1.9,4-3.3,5.7
		c-0.6,0.8-1.3,1.6-1.6,2.6c-0.4,1.7,0.7,3.5,2.2,4.4c1.5,0.9,3.4,1,5.2,1c3.9-0.1,7.7-0.9,11.3-2.3c3-1.2,5.8-2.9,7.8-5.3
		c2.1-2.4,3.3-5.7,2.8-8.8c-0.5-3.6-3-6.5-4.8-9.7c-1.7-3.2-2.4-7.6,0.2-10.1L174.4,1036.2z"/>
	<path class="st4" d="M284.7,1079.6c-1.8,7.1-4.6,14-8.3,20.3c-0.6,1-1.2,2-2.2,2.7c1.4-2.3,2.5-4.8,3.4-7.3
		c0.7-1.8,1.2-3.7,1.7-5.5c1.5-5.5,3-11,3.6-16.7s0.3-11.5-1.5-16.9c0.3,0.8,1,1.5,1.4,2.2c0.4,0.8,0.8,1.6,1.2,2.4
		c0.5,1.2,1.1,2.5,1.5,3.8c0.9,2.9,0.8,6.3,0.4,9.3C285.6,1075.8,285.2,1077.7,284.7,1079.6z"/>
	<path class="st18" d="M180.1,1019.1c-0.4-3.3-2.4-6.3-5.3-8c-1.2-0.7-2.6-1.2-3.9-0.9c-1.5,0.4-2.6,1.7-3,3.2
		c-0.4,1.5-0.3,3-0.1,4.6c0.4,3,1.2,5.9,1.3,8.9c0.1,3-0.6,6.2-2.7,8.3c-2.1,2.1-5.9,2.7-8.1,0.7c-1.9-1.8-2.1-4.9-3.7-6.9
		c-0.2-0.3-0.6-0.6-1-0.6c-0.6,0.1-0.9,0.9-1.4,1.3c-0.9,0.7-2.1-0.4-2.7-1.4c-1.7-2.8-3-5.8-5-8.4c-1.9-2.6-4.6-4.9-7.8-5.4
		c-0.5-0.1-1-0.1-1.4,0.2c-1,0.6-0.7,2.1-0.1,3.1c3,5.7,9.1,8.9,13.6,13.5c2,2.1,3.9,5.1,2.7,7.8c-0.6,1.5-2.1,2.5-3.6,3.1
		c-3.2,1.2-6.8,0.9-10-0.1c-3.3-1-6.3-2.6-9.4-3.9c-7.7-3.4-16.5-5.4-24.4-2.6c-1.1,0.4-2.3,0.9-3,1.9c-0.7,1-0.7,2.5,0.3,3.3
		c-0.7,0.1-1,1-0.8,1.6c0.2,0.6,0.8,1.1,1.4,1.4c3.6,2.1,8,2.4,12.1,2.5c7.4,0.2,14.8,0.1,22.2-0.3c5-0.3,10.1-0.7,15-1.8
		c6.1-1.4,11.8-3.9,17.8-5.7c2.3-0.7,5.5-0.7,6.6-3.1c1.1-2.4,1.9-5,2.8-7.5C179.6,1025.1,180.5,1022.2,180.1,1019.1z"/>
	<path class="st18" d="M181.3,1056.5c0.3-0.8,0.5-1.7,0.3-2.6c-0.2-0.9-0.8-1.7-1.7-1.8c-1.2-0.2-2.2,0.9-2.9,1.8
		c-3.2,3.8-7.5,6.6-12.3,8c-1.5,0.4-3,0.7-4.4,1.4c-0.4,0.2-0.8,0.4-1,0.8c-0.2,0.5,0.2,1.1,0.7,1.4c0.5,0.3,1.1,0.3,1.6,0.3
		c3.5,0,7.1,0.1,10.6-0.8c2.2-0.6,4.4-1.6,6.1-3.1C180,1060.3,180.6,1058.6,181.3,1056.5z"/>
	<path class="st18" d="M140.9,1064.6c-0.7-0.1-1.4,0.1-2.1,0.3c-0.9,0.2-1.7,0.5-2.6,0.7c-1.2,0.3-2.5,0.7-3.8,0.5
		c-1.2-0.2-2.3-0.8-3.5-0.9c-1.2-0.1-2.7,0.5-2.7,1.7c0,1,0.9,1.7,1.9,2.1c2.3,0.9,4.9,0.8,7.3,0.4c2.1-0.4,4.5-0.8,6.4-1.5
		c0.9-0.4,1.2-0.6,0.8-1.7C142.4,1065.4,141.8,1064.8,140.9,1064.6z"/>
	<path class="st12" d="M209.5,813.6c0.6-2.8,1.4-5.5,1.5-8.3c0.1-2.8-0.6-5.8-2.5-7.9c-0.7-0.8-1.7-1.4-2.7-1.5
		c-1.6-0.1-3.1,1.2-3.7,2.7c-0.6,1.5-0.5,3.2-0.4,4.8c0.3,6.1,0.8,12.1,2.2,18.1c0.8,3.5,1.9,6.9,2.1,10.5c0.2,3.6-0.7,7.4-3.3,9.9
		c-0.8,0.7-1.8,1.3-2.8,1.4c-2.4,0.2-4.3-2-5.4-4.1c-2.4-4.6-3.5-9.9-6.7-13.9c-1-1.2-2.2-2.3-3.7-2.6c-1.5-0.3-3.3,0.5-3.6,2
		c-0.2,0.8,0.1,1.6,0.3,2.4c1.4,3.7,3.6,7.2,6.4,10c2,2,4.3,3.6,6.2,5.7c1.9,2.1,3.3,4.8,3,7.6c-0.3,2.8-2.8,5.4-5.6,5.1
		c-0.9-0.1-1.8-0.5-2.7-0.5c-1.2,0.1-2.1,0.9-2.9,1.7c-1.2,1.2-2.3,2.9-1.8,4.6c0.7,2.3,3.9,2.8,6.2,2c5.6-1.9,8.8-7.7,11.3-13.1
		c2.7-5.7,7-11.7,6.8-18C207.4,826,208.2,819.7,209.5,813.6z"/>
	<path class="st12" d="M23.7,985c-1,0.1-2,0.1-2.9-0.1c-1.9-0.5-3.3-2.1-4.9-3.3c-1.6-1.2-3.9-2-5.5-0.8c-1.5,1.1-1.5,3.4-0.5,4.9
		c1,1.5,2.6,2.5,4.3,3.2c2.8,1.3,5.8,2.2,8.8,1.6c3.5-0.7,6.3-3.3,8.7-6c1.2-1.3,3.5-3.5,3.7-5.4c0.3-2.6-0.7-1.9-2.1-0.5
		C30.4,981.7,28.3,984.4,23.7,985z"/>
</g>
<g>
	<g>
		<path class="st10" d="M1144.6,1012.9c0,0,56.5,22.6,106.9,9.1c107.9-28.9,177.2-73.4,177.2-73.4l4.3,5.5
			c0,0-135.1,70.3-196.6,73.8C1179.9,1031.1,1144.6,1012.9,1144.6,1012.9z"/>
		<g>
			<path class="st10" d="M1401.5,967.9c-0.2,0.1-0.3,0.2-0.5,0.3c0,0,0,0,0-0.1L1401.5,967.9z"/>
			<path class="st10" d="M1389.7,1005.4c-1.3-10.7,0.4-29.8,11.3-37.2c0.1,12.4,0.3,24.8,0,37.3c-0.1,6.3-0.1,12.6-0.2,18.8
				c-0.2,7.1-3.1,15.1-1.9,22.2C1396.1,1033,1391.4,1019.3,1389.7,1005.4z"/>
			<path class="st10" d="M1398.9,1046.6c0.1,0.5,0.2,1,0.3,1.5C1399.1,1047.5,1399,1047,1398.9,1046.6z"/>
		</g>
		<path class="st10" d="M1379.6,978.2c-11.8,8.5-14.9,25.3-14.8,37.9c0.1,8.5,1.3,16.6,3.7,24.6c3,9.8,5.1,20.1,8.4,29.7
			c-1.6-3.2-0.7-8.4-0.7-12c0-3.7-0.2-7.5-0.1-11.2c0.1-8.2,0-16.2,0.6-24.4c0.6-8.3,0.8-16.9,1.2-25.1c0.3-5.8,1.3-11.5,1.2-17.2
			c0-1.2-0.1-2.3-0.4-3.3c0.6-0.5,0.7-0.1,1.3,0.1L1379.6,978.2z"/>
		<path class="st10" d="M1363.5,985.4c-6.3,2.1-12.5,9.9-15.9,15.2c-4.8,7.5-7.3,13.9-9.4,22.4c-3.8,15.9-0.9,32.4-2.5,48.3
			c8.2-16.3,10.6-32.8,14.3-50c1.5-7.2,3.2-14.4,4.9-21.5c0.7-3,1-6.1,2.4-9c1.2-2.5,3.7-4.5,4.5-6.9L1363.5,985.4z"/>
		<path class="st10" d="M1330.9,1000c-6.3,0.7-11.2,7.8-14.1,12.6c-4.9,8-5.9,16.8-6.9,25.7c-1.7,15,1.3,30.1,0,45.1
			c7.8-14.9,6.6-28.9,9.4-44.7c1.5-8.3,4-15.8,7.2-23.5c2.1-5.1,5.8-12.6,5.9-18.1L1330.9,1000z"/>
		<path class="st10" d="M1311.2,1007.2c-13.9,7.6-21.9,24.2-21,38.7c0.7,11.1,2,21.6,0.5,32.7c1.2-2.4,3.2-4.6,4.5-7.1
			c1.8-3.4,2.2-7.2,2.7-10.9c0.9-6.5-1.1-12.5-0.4-19c0.7-6.6,3.1-14.4,6-20.6c1.9-4,4.7-12.6,7.2-14.8L1311.2,1007.2z"/>
		<path class="st10" d="M1285.7,1014.7c-11,3.9-16.2,17.4-18.7,27.4c-3,12.1-0.3,25.6-5.8,37.1c2.8-5.2,7.7-9.2,10.1-14.9
			c3.1-7.4,4.3-15.8,5.6-23.5c0.9-5.3,1.5-10.6,3.1-15.9c1.2-4,3.7-7.1,5.2-10.8L1285.7,1014.7z"/>
		<path class="st10" d="M1264.5,1022.8c-11.2,3.6-17.8,13.2-20.7,23.7c-2.6,9.3-2.6,21-8.7,29.3c17.3-14.7,15.9-38.9,31.1-54.4
			L1264.5,1022.8z"/>
		<path class="st10" d="M1241.8,1026.2c-10.2,3.5-16.2,8.7-22.6,17.2c-4.2,5.6-7,12.8-9.7,19.1c-1.4,3.3-2.7,8.4-6.4,10.2
			c10.8-7.1,17.7-16.4,24.4-27.1c5.3-8.4,10.5-15.4,18-21.4L1241.8,1026.2z"/>
		<path class="st10" d="M1226.7,1028.1c-10.7,0.1-19.2,7.8-26,15.2c-4.3,4.8-7.5,10.2-10.9,15.5c-1.9,2.9-3.9,6.9-6.8,8.9
			c10.2-5.7,16.1-16.2,23.6-24.6c6.3-7,14.2-13.5,23.2-16.7L1226.7,1028.1z"/>
		<path class="st10" d="M1204.3,1027c-10.9,0.5-21.1,5.3-29.1,12.8c-7.1,6.6-10.9,15.1-16.9,21.9c10.1-5,18.2-15.5,26.8-22.6
			c6.9-5.7,16-9.7,23.3-12.7L1204.3,1027z"/>
		<path class="st10" d="M1188.7,1025.5c-10.9-3.7-24.8,1.7-35,6.3c-9.2,4.1-18,11.4-26.2,15.9c4.5-2.8,11.4-3.9,16.6-4.9
			c6.9-1.4,12.8-4.3,19-7.7c7.5-4.1,19.6-10.7,27-10.3L1188.7,1025.5z"/>
		<path class="st10" d="M1170.8,1022.4c-9.2,0.1-21.5-0.6-30-4.4c-11.4-5-18.7-17.2-29.4-22.4c5.1,0.1,10.4,2.7,15.4,4.1
			c6.3,1.8,12.8,2.7,18.6,5.8c4.8,2.6,9.2,5.8,13.7,8.8c3.7,2.4,8.5,7.4,13.1,7.4l-0.1,0.4c0.3,0.1,0.5,0.2,0.7,0.3
			C1172.1,1022.4,1171.4,1022.4,1170.8,1022.4z"/>
		<path class="st10" d="M1181.6,1023.8c-9.5-6.6-15.4-18.5-17.4-29.8c-1.6-8.9-0.9-17.6-3.8-26c9.1,6.6,11.4,21.4,14.1,31.6
			c1.3,4.8,2.7,9.5,4.5,14c0.8,1.9,1.6,3.5,2.5,5.5c0.7,1.4,2.4,4.9,2.7,4.2L1181.6,1023.8z"/>
		<path class="st10" d="M1202.5,1026.8c-13.1-4-13-26.8-11.9-37.3c1.2-11.3,7.2-21.7,9.8-32.5c-0.7,5.9,1.5,12,1.5,18
			c0,6.6-0.9,12.7-1.6,19.3c-1.1,9.3-2.5,24.2,1.7,32.3c-0.2-0.3-0.3-0.6-0.5-0.8L1202.5,1026.8z"/>
		<path class="st10" d="M1223,1027.7c-9.4-8.7-8.8-21.8-5.3-33.8c2.4-8.4,7-21.1,4.2-29.4c4.6,9.4,6.2,24.3,4.8,35.1
			c-0.7,5.4-1.5,10.4-2.8,15.7c-0.9,3.7-2.4,8.8-1.6,11.6L1223,1027.7z"/>
		<path class="st10" d="M1240,1025.2c-8.6-4.6-4.7-25.3-3.1-32.8c2.2-9.8,1.9-18.9,1.8-28.3c6.3,9.6,9,19.4,8.3,31.5
			c-0.3,6-1.1,12-3.5,17.7c-1.6,3.9-4.5,9.1-3.7,13.2L1240,1025.2z"/>
		<path class="st10" d="M1263,1021.1c-10.5-8.3-8.2-25.2-6.2-37.2c1.6-9.8,3.3-19.2,1.8-28.6c5,7.7,9.1,18.9,10.4,28.1
			c1.1,7,0.7,15.1-1.5,22c-1.5,4.9-3.9,9.9-3.3,14.6c-0.3-0.3-0.3-0.6-0.6-0.9L1263,1021.1z"/>
		<path class="st10" d="M1281.3,1016.3c-9.1-6.5-6-21.4-4.3-31c2.1-11.9,4-22.6,2.5-34.2c6.1,9.7,12.4,20.3,11.5,32.5
			c-0.9,12-5.9,22.3-9.1,33.6c-0.1-0.4-0.1-0.7-0.2-1.1L1281.3,1016.3z"/>
		<path class="st10" d="M1307,1007.5c-7.9-8.6-8.1-20.8-8-32.2c0.2-10.7-2.5-21.7-3.3-31.3c5.1,9.4,10.6,18.4,12.3,29.1
			c1.7,10.4-0.2,23.4-1.2,33.2L1307,1007.5z"/>
		<path class="st10" d="M1327.7,999.8c-12-8.2-9.6-30.6-9-43.2c0.3-5.7,0.8-11.3-0.1-16.8c-0.8-4.9-3-9.2-4.4-13.7
			c3.4,3.4,5.4,9.1,7.7,13.3c3.7,6.9,5.6,13.7,7.7,21.3c3.9,13.9,0,25.4-2.3,39.3c-0.2-0.4-0.4-0.8-0.6-1.2L1327.7,999.8z"/>
		<path class="st10" d="M1355.4,988.2c-10-6.9-11.8-20.6-13.3-32c-1.6-11.9-3.5-24.6-10.2-34.6c2.6,5.3,8.2,8.7,11.1,14
			c3.2,5.8,6.5,11.7,9.1,17.8c5,11.7,6.2,24.9,4.5,37.8c0.4,0.3-0.4-0.7-0.5-1L1355.4,988.2z"/>
		<path class="st10" d="M1376.4,977.9c-13.1-10.3-15.3-28.8-17.6-44.5c-1.2-7.9-1.7-16.6-4.3-24c-1-2.7-3.1-5.5-3.6-8.2
			c4.5,2.2,8,9.6,10.2,13.9c3.7,7.4,7.6,14.9,9.5,23.1c2,8.5,3.3,16.7,3.5,25.5c0.1,5.6,0.4,11.6,2.7,16.5c-0.4-0.1-0.6-0.4-0.7-0.7
			L1376.4,977.9z"/>
		<path class="st10" d="M1397.4,966.9c-5.3-1.4-7.8-11.1-9.1-15.3c-3-9.7-4.7-19.9-7.5-29.7c-3.2-11-7.4-21.2-13-31.2
			c5.5,2.4,9.8,8.4,13.4,12.7c4.9,5.9,9.6,12.9,13,19.8c7,14.2,2.2,32.1,5.3,47.2c-0.1-0.5-0.3-0.9-0.5-1.4L1397.4,966.9z"/>
	</g>
	<path class="st6" d="M1269,1400.7c4.4-3.7-1.5-6.1,0.5-11.4c-4.9-9.3-7.7-24.2-11.3-33.8c-25.8-68.7-7-157.3,41.1-240.4
		c55.4-95.7,152.7-175.6,273.8-224.8c5.4-2.2,10.6-4.2,16-6.3c133.6-50.4,266.9-52.6,375.4-6.2c81.4,34.8,139.5,93.6,163.5,165.6
		c26.4,79.1,9.3,162.5-49.4,241.4c9.1,2.6,17.7,4.9,28,4.5c27.1-38.7,45.3-78.9,54-119.7c9.8-46,7.4-91.6-7.2-135.5
		c-13-39-35.1-74.5-65.7-105.5c-30.3-30.7-67.6-55.7-110.9-74.2c-54.8-23.4-115.9-35.2-181.5-35.2c-70.1,0.1-142.2,13.9-214.3,41.1
		c-5.6,2.1-11.1,4.3-16.7,6.5c-66.6,27.1-125.9,62.4-176.2,105.1c-46.2,39.2-83.8,83.6-111.9,132c-25.9,44.8-43,92.7-49.3,138.6
		c-6.2,45-2.2,88.3,11.7,125.1c5,13.3,11,26.1,18,38.4C1260.9,1404.5,1265.6,1403.6,1269,1400.7z"/>
	<path class="st6" d="M1274.6,1400.2c5.5,15.5,1.2,34.1-9.9,47.8c-11.1,13.7-28.3,22.4-45.7,24.7c-7,0.9-14.1,0.8-21.2,1.7
		c-9.2,1.2-18.3,4-26.7,8.3c-4.3,2.2-8.5,4.8-11.5,8.5c-6.4,7.6-6.5,19.2-0.2,26c-4.9-0.8-7.9-5.4-9.5-9.8c-1.8-5-2.5-10.7-0.2-15.8
		c1.3-2.9,3.4-5.4,5.8-7.6c12.8-12.3,30.9-17.3,48-22.1c17.1-4.8,35.2-10.5,47.1-23.6c3.7-4.1,6.8-8.9,7.8-14.2
		c2.1-11-5.2-20.8-8-31.4c-0.3-1.2-0.6-2.5-0.2-3.7c0.9-2.9,4.2-3.8,6.7-4.8c1.7-0.7,5.6-3.5,7.4-3.1c2.5,0.5,3.9,5.9,4.9,7.9
		C1271.2,1392.6,1273.2,1396.2,1274.6,1400.2z"/>
	<path class="st19" d="M1335.6,1043.5c-9.8-3.6-20.9,17.4-25.8,23.1c-10.6,12.4-22.2,24.1-29,38.8c-4.7,10.2-9.6,20.2-14.9,30
		c-4.9,8.9-8.4,18.2-12.8,27.4c-1.8,3.8-4.1,7.6-6.4,11.1c-0.9,1.4-1.5,2.9-1.6,4.1c-0.6,0.8-1,1.7-0.9,2.8c0.1,2.4,1.6,3.8,3.9,3.2
		c3.8-1,8.5-8.1,10.7-11c4.5-6.1,6.1-12.1,9.2-18.9c4.1-9.1,8-18.2,11.5-27.4c10.1-26.8,31.5-48.1,52.2-68.2
		C1335,1055.2,1343.7,1046.5,1335.6,1043.5z"/>
	<path class="st19" d="M1375.4,995.1c-5.5-0.7-13.8,8.3-17.8,11.4c-6.3,5-12.8,9.7-18.1,15.6c-2,2.2-7.8,8.3-5.3,10.9
		c1.3,1.3,2.9,1,4.5,0.1c0.8-0.1,1.6-0.3,2.6-0.8c3.2-1.3,5.8-4.7,7.8-7.2c4.9-6.2,10.1-11.7,16.6-16.2c3.6-2.5,7.8-4.2,10.2-8
		C1377.4,998.6,1378.8,995.5,1375.4,995.1z"/>
	<path class="st19" d="M1470.5,919.5c-7.5,4-15.3,7.5-22.7,11.6c-3.2,1.8-10.8,5.3-11.7,9.3c-0.5,2.4,0.4,3.1,2,3
		c0.1,0.1,0.1,0.1,0.2,0.2c2.3,1.6,9.4-2.7,11.4-3.9c7.1-4.6,14.1-9.5,21-14.5c8.6-6.1,18-12,27.7-16.1c2.9-1.2,19-6.4,17.5-10.6
		C1514.1,893.1,1476.2,916.6,1470.5,919.5z"/>
	<path class="st19" d="M1246,1350.6c-2.7-7.9-3.8-16-6.6-23.7c-1.3-3.7-4.2-9.2-8-3.4c-2.3,3.6,0,9.5,1.2,12.9
		c1.6,4.4,3.4,8.6,5.4,12.6c1.6,4.5,3.6,9,5,13c1.7,5,3.5,9.4,6.2,13.7c1.8,2.8,6.5,8.1,6.9,1.2
		C1256.6,1368.8,1248.5,1358,1246,1350.6z"/>
	<path class="st11" d="M1862.8,856.7c4.9-5.4,4.4-13.6,6.9-19.7c-0.2,0-2.8,0.8-2.8,0.7c-2.1-0.2-8.2,3.6-10.9,4.2
		c-4.1,0.9-8.3,0.7-12.2,0.7c-7.8,0.1-45.6-5.5-36-19.2c8.3-11.9,15-0.9,20,2c5.1,3,11.7,4.5,18.5,4.7c7,0.3,13-0.9,19.7-4.6
		c6.1-3.3,9.5-8.6,16.9-7.5c2.1-6.2,2.4-13.1,3.4-19.2c-10.5,0.6-20.8,4.3-31.2,3.4c-9.3-0.8-17.3-2.2-13.7-13.9
		c4.8-15.5,12.1-4.6,18.7-3c5.8,1.4,10.9,0.7,17.3-1.9c5.1-2.1,11.3-8,15.7-4.5c2.6-6.2,4.4-14.1,5.7-20.1
		c-10.2-0.2-24.9,1.7-24-10.4c0.4-5.5,11.2,0,15.4,0.8c12.3,2.5,21.1-12,19.7-21.2c-3.7-23.4,11.5-33,11.5-33
		c-12,10-26.9,0.8-38.7,0.7c-10.5,0-25.9,4.8-24.3,16.4c0.5,4,2.8,16.1-3,15c-12.1-2.3-7-14.3-6.3-23.9c-6.5,0.6-15.1,1.6-21.9,3.5
		c3.3,4.4-3.5,9.6-6.2,14.2c-3.3,5.7-4.6,10.4-3.6,15.9c1.2,6.3,13.2,17.1-3.7,20.2c-12.8,2.3-14.7-8.2-14.7-16.9
		c0-9.7,4.8-19.1,6.4-28.8c-6.6,0.4-13.9,0-20.7,1.5c0.5,7-5.4,9.7-9.5,15.1c-4.5,6-6.3,11.4-6.6,18c-0.4,6.4,0.7,12.7,3.4,17.7
		c2.7,4.9,7,16.8-5.2,16.7c-7.2,0-9.6-5.6-10.9-11.7c-1.4-6.7-1.5-14.2-0.8-21.4c0.4-3.7,0.5-7.6,1.9-11.3c0.9-2.5,5.5-7.8,5.5-9.8
		c0,0,1-2.4,1-2.6c-6.7,1.8-15.4,0.5-21.6,4.7c2.1,9.4-14,17.5-20.3,24.9c-8.5,9.9-13.5,26.9-11.3,37.2c3.4,15.8,18.6,37.7,35.8,46
		c3.5,19,29.1,38.8,47.7,44c10.8,3,29.3-0.2,40.6-7.2C1842.9,868.2,1853,853.8,1862.8,856.7z"/>
	<path class="st11" d="M1485.5,928.2c-17.1,3.4-21.1,15.7-33.3,25.1c4.3-10.2,9.2-20.2,13-31.1c4.3-12.1,4.1-18.5,1.4-30.1
		c-5.7,13.1-16.8,22.2-21.1,36.9c-4,13.5-5.3,26.5-10.1,40.2c0,0-24.8,43.6-16,73.4c8.1-11.2,14.9-18.4,19.5-31.7
		c5-14.4,4.5-28.1,7.7-41.5c6,12.3-1.9,27.8,0.2,41.6c1.8,12.2,8.2,24.2,17.5,32.1c4.7-14.3,9.6-25.3,7.9-40.1
		c-1.3-12.1-6.2-23-12.9-32.3c5.7,1.3,8.4,10,12.3,13.9c5.4,5.4,11.3,8.8,18.3,11.8c13.5,5.8,29.1,9.5,44.7,7.7
		c-7.2-2.9-10.3-12.2-14.9-18c-5.9-7.4-13.6-13.9-21.4-19.3c-7.2-4.9-15.8-8.8-24.7-9.9c7.4-1.1,15.1-2.7,20.3-4.3
		c10.7-3.3,21-14,28.3-21.9C1517.6,936.3,1494,926.5,1485.5,928.2z"/>
	<path class="st11" d="M1951.2,792.5c-5.8,16,3.5,24.2,5.7,38.4c-7.2-7.8-13.9-15.9-21.9-23.5c-9-8.5-14.9-10.9-27.2-13.3
		c9.1,10.1,11.7,23.2,23.1,32.8c10.4,8.8,21.8,15.2,31.9,24.7c0,0,27.3,38.6,59.6,43c-6.1-11.3-9.2-20.1-19-29.3
		c-10.7-10.1-23.7-15.1-34.4-23.2c14.6-0.2,24.7,12.8,38.6,16.5c12.3,3.3,26.8,2.7,38.9-2c-10.8-9.7-18.4-18.3-33-22.8
		c-11.9-3.7-24.5-3.9-36.7-1.9c4.2-4.3,13.7-3.1,19.4-4.9c7.8-2.4,14.1-6.1,20.5-10.9c12.5-9.2,24.1-21,30.6-35
		c-6.5,4.9-16.8,3.9-24.5,5.5c-9.9,2.1-20.1,6-29.2,10.5c-8.4,4.1-16.4,9.9-22.2,17c2.9-6.8,5.4-14,6.7-19
		c2.5-10.4-1.9-23.5-5.4-32.9C1975.6,768.3,1954.1,784.6,1951.2,792.5z"/>
	<path class="st11" d="M1194.7,1321.2c17.2-3,21.4-15.2,33.9-24.2c-4.6,10.1-9.7,20-13.9,30.8c-4.6,12.1-4.6,18.4-2.3,30.2
		c6.1-13,17.4-21.8,22.1-36.5c4.3-13.4,6.1-26.4,11.2-40c0,0,26-43,18-73.1c-8.4,11-15.4,18.1-20.4,31.2c-5.4,14.3-5.3,28-8.8,41.4
		c-5.6-12.5,2.7-27.8,1-41.6c-1.5-12.3-7.5-24.5-16.5-32.6c-5,14.2-10.2,25.1-9,40c1,12.1,5.5,23.2,12,32.7
		c-5.6-1.4-8.1-10.3-11.9-14.3c-5.2-5.5-11-9.1-17.9-12.3c-13.3-6.1-28.7-10.3-44.4-8.8c7.1,3.1,9.9,12.5,14.4,18.4
		c5.7,7.5,13.2,14.3,20.8,19.9c7,5.1,15.5,9.2,24.3,10.6c-7.4,0.9-15.2,2.3-20.4,3.8c-10.7,3.1-21.4,13.5-28.9,21.2
		C1162.8,1312.3,1186.2,1322.7,1194.7,1321.2z"/>
	<path class="st11" d="M2146.6,941.9c-9.9,14.2-3.3,24.7-5.1,39.2c-4.7-9.5-8.8-19.2-14.3-28.7c-6.2-10.6-11.1-14.5-22.1-19.9
		c5.9,12.2,4.7,25.8,12.9,38.1c7.5,11.3,16.4,20.4,23.4,32.3c0,0,15.3,44.8,44.6,57.3c-2.7-12.7-3.2-22.1-10-33.6
		c-7.3-12.6-18.2-20.8-26.2-31.5c13.8,3.5,19.9,18.8,32,26c10.7,6.4,24.6,9.4,37.4,7.8c-7.6-12.3-12.4-22.6-25-30.8
		c-10.2-6.6-22.1-10.1-34.2-11.1c5.2-3.2,13.8,0.4,19.7,0.1c8.1-0.4,15-2.4,22.4-5.5c14.3-5.9,28.6-14.5,38.6-26.7
		c-7.5,3.2-16.9-0.4-24.7-0.8c-10-0.4-20.6,0.8-30.5,3c-9,2-18.3,5.6-25.7,11.2c4.6-5.9,9-12.4,11.5-17c5.2-9.6,4.7-23.6,3.9-33.7
		C2176.3,924.2,2151.5,934.8,2146.6,941.9z"/>
	<path class="st10" d="M2143.4,1125.9c-13.8-9.5-23.9-20.8-23.7-38.6c0.2-16.1,5.5-31.1,17.8-42.2
		C2132.4,1070.8,2150.7,1100.5,2143.4,1125.9L2143.4,1125.9z"/>
	<g>
		<path class="st10" d="M1975.2,617.9c0,0-7.9,60.2-44.4,97.5c-78.1,79.8-150.9,118.3-150.9,118.3l2.7,6.4c0,0,127.6-83.2,160.8-135
			C1973.7,657.5,1975.2,617.9,1975.2,617.9z"/>
		<g>
			<path class="st10" d="M1810,819.4c0.2-0.1,0.4-0.2,0.5-0.3c0,0,0,0,0,0L1810,819.4z"/>
			<path class="st10" d="M1848.6,827.5c-8.7-6.4-26.2-14.2-38-8.4c10.8,6.1,21.5,12.4,32.6,18.3c5.6,2.9,11.1,6.1,16.6,9
				c6.3,3.3,14.7,4.8,20.3,9.2C1869.5,846.6,1859.9,835.8,1848.6,827.5z"/>
			<path class="st10" d="M1880,855.6c0.4,0.3,0.7,0.7,1.1,1C1880.8,856.3,1880.4,856,1880,855.6z"/>
		</g>
		<path class="st10" d="M1829.7,805.4c13.2-6.1,29.4-0.6,40.4,5.7c7.4,4.2,13.9,9.2,19.7,15.3c7,7.4,15.1,14.3,21.8,21.8
			c-2-3-7-4.7-10.1-6.5c-3.2-1.8-6.5-3.8-9.8-5.6c-7.2-3.9-14.2-7.9-21.6-11.4c-7.6-3.6-15.1-7.6-22.5-11.3
			c-5.2-2.6-10.7-4.4-15.6-7.3c-1-0.6-1.9-1.2-2.7-2c-0.7,0.2-0.4,0.5-0.6,1.1L1829.7,805.4z"/>
		<path class="st10" d="M1843.9,794.9c4.9-4.5,14.8-6,21.1-6.4c8.9-0.5,15.7,0.4,24.2,2.8c15.7,4.4,28.8,15.1,43.4,21.5
			c-18.2-0.8-33.8-6.8-50.7-12.1c-7.1-2.2-14.1-4.2-21.2-6.3c-3-0.9-5.9-2.1-9-2.3c-2.7-0.2-5.7,1-8.3,0.6L1843.9,794.9z"/>
		<path class="st10" d="M1872.7,773.7c3.7-5.1,12.3-5.9,17.9-6.1c9.4-0.4,17.6,3.1,25.8,6.6c13.9,5.9,25.7,15.9,39.4,22.1
			c-16.8-0.5-28.5-8.5-43.6-13.7c-7.9-2.8-15.7-4.2-24-5.2c-5.5-0.6-13.9-1.1-18.7-3.7L1872.7,773.7z"/>
		<path class="st10" d="M1888.5,760.1c13.5-8.4,31.8-7.2,44.1,0.7c9.3,6.1,17.9,12.4,28.3,16.5c-2.7-0.1-5.6,0.5-8.4,0.4
			c-3.8-0.1-7.4-1.6-10.9-3c-6.1-2.4-10.4-7.1-16.4-9.7c-6.1-2.6-14.1-4.4-20.9-4.9c-4.5-0.3-13.3-2.1-16.5-1L1888.5,760.1z"/>
		<path class="st10" d="M1907.6,741.6c8.8-7.7,23.2-5.6,33.1-2.9c12.1,3.3,22.5,12.3,35.3,13.1c-5.9-0.1-11.8,2.2-17.9,1.5
			c-8-0.9-15.9-4-23.2-6.7c-5.1-1.9-10-3.9-15.4-5.1c-4.1-0.9-8-0.3-11.9-0.8L1907.6,741.6z"/>
		<path class="st10" d="M1925.1,727c8.6-8,20.3-9,30.9-6.4c9.4,2.3,19.6,8.1,29.8,6.8c-21.3,7.9-41.7-5.2-62.7,0.4L1925.1,727z"/>
		<path class="st10" d="M1939.2,709c8.1-7.1,15.5-9.8,26.1-11.2c6.9-0.9,14.6,0.1,21.4,0.9c3.6,0.4,8.7,1.7,12.1-0.6
			c-11.5,5.9-23,7.3-35.6,7.9c-9.9,0.5-18.7,1.6-27.6,5.2L1939.2,709z"/>
		<path class="st10" d="M1948.2,696.8c5.3-9.2,16.2-12.9,26-15.1c6.3-1.4,12.6-1.5,18.9-1.9c3.4-0.2,8,0,11.1-1.6
			c-10,6.1-22.1,6-33,8.5c-9.2,2.1-18.8,5.8-26,12L1948.2,696.8z"/>
		<path class="st10" d="M1958.3,676.8c5.8-9.2,15-15.7,25.5-19.1c9.2-3,18.5-2.1,27.5-4c-9.4,6.4-22.4,8.2-32.9,12.3
			c-8.3,3.2-16.4,9.2-22.5,14L1958.3,676.8z"/>
		<path class="st10" d="M1964.6,662.5c2.1-11.2,13.6-20.7,22.7-27.4c8.1-6,18.8-10,26.7-15c-4.7,2.5-9,8.1-12.4,12
			c-4.6,5.3-10,9-16,12.8c-7.3,4.5-18.9,11.8-22.2,18.4L1964.6,662.5z"/>
		<path class="st10" d="M1970.6,645.3c4.6-8,10-19,10.9-28.3c1.2-12.3-5.9-24.7-5.1-36.6c-2.5,4.5-2.7,10.4-3.9,15.4
			c-1.5,6.3-3.9,12.5-4.1,19c-0.1,5.4,0.6,10.8,1,16.2c0.3,4.4,2.3,11,0,15l0.4,0.1c0,0.3,0,0.5-0.1,0.8
			C1970,646.5,1970.3,645.9,1970.6,645.3z"/>
		<path class="st10" d="M1966.5,655.5c-1.1-11.5-8.7-22.5-17.5-29.7c-7-5.7-14.9-9.4-20.9-16.1c1.3,11.1,13.2,20.4,20.7,27.7
			c3.6,3.5,7,7,10,10.8c1.3,1.6,2.3,3.1,3.5,4.9c0.9,1.3,3.1,4.5,2.3,4.4L1966.5,655.5z"/>
		<path class="st10" d="M1959,675.1c2.9-13.4-17.1-24.4-26.8-28.6c-10.4-4.5-22.5-4.4-33.2-7.4c5.5,2.3,9.8,7.2,15,10.1
			c5.7,3.2,11.6,5.5,17.7,8c8.7,3.6,22.4,9.6,27.4,17.3c-0.2-0.3-0.3-0.5-0.5-0.8L1959,675.1z"/>
		<path class="st10" d="M1949.7,693.4c-3-12.4-14.7-18.4-26.9-21.2c-8.5-2-21.9-4.3-27.8-10.8c6,8.6,18.2,17.3,28.3,21.3
			c5.1,2,9.9,3.8,15.1,5.3c3.7,1,8.8,2.2,11,4.3L1949.7,693.4z"/>
		<path class="st10" d="M1939.2,706.9c0.2-9.8-19.8-16.5-27.1-18.7c-9.6-2.9-17.5-7.6-25.6-12.3c5.3,10.2,12.6,17.3,23.4,22.7
			c5.4,2.7,11.1,4.9,17.1,5.6c4.2,0.5,10.1,0.6,13.4,3.2L1939.2,706.9z"/>
		<path class="st10" d="M1924.3,724.9c-2.1-13.2-18-19.5-29.4-23.6c-9.3-3.4-18.4-6.5-25.9-12.5c4.2,8.1,12.1,17.2,19.4,22.8
			c5.6,4.4,12.9,8,19.9,9.5c5,1.1,10.6,1.5,14.4,4.3c-0.1-0.4-0.3-0.6-0.5-0.9L1924.3,724.9z"/>
		<path class="st10" d="M1911.2,738.5c-1.3-11.1-15.8-15.7-25-18.9c-11.4-4-21.7-7.6-31.1-14.6c5.5,10.1,11.7,20.8,22.7,25.9
			c11,5.1,22.4,5.8,33.9,8.5c-0.2-0.3-0.5-0.5-0.8-0.7L1911.2,738.5z"/>
		<path class="st10" d="M1890.9,756.6c-3.6-11.1-14.2-17.3-24.2-22.7c-9.4-5.1-17.7-12.8-25.7-18.2c5.7,9.1,10.9,18.2,19.4,25
			c8.3,6.5,20.5,11.3,29.6,15.2L1890.9,756.6z"/>
		<path class="st10" d="M1874,770.8c-1.3-14.5-22-23.3-33.4-29c-5.1-2.6-10.3-4.8-14.7-8.3c-3.9-3.1-6.5-7.1-9.8-10.5
			c1.3,4.6,5.3,9.1,7.9,13.2c4.2,6.6,9.2,11.6,14.8,17.1c10.3,10.2,22.2,12.5,35.5,17.2c-0.3-0.3-0.5-0.8-0.7-1.1L1874,770.8z"/>
		<path class="st10" d="M1850.3,789.3c-1.1-12-12.2-20.4-21.4-27.3c-9.6-7.2-19.8-15.1-25.3-25.8c3.4,4.8,3.6,11.4,6.8,16.5
			c3.5,5.7,7,11.4,11.1,16.7c7.8,10.1,18.7,17.5,30.9,22.4c0.1,0.5-0.4-0.7-0.6-0.9L1850.3,789.3z"/>
		<path class="st10" d="M1831.1,802.5c-2.6-16.5-17.7-27.5-30.3-37.1c-6.3-4.9-13.7-9.6-18.9-15.5c-1.9-2.2-3.2-5.4-5.4-7.1
			c-0.2,5,4.5,11.7,7.2,15.6c4.7,6.8,9.3,13.9,15.5,19.5c6.5,5.9,12.9,11.1,20.6,15.5c4.9,2.8,9.9,6,13.1,10.4c0.1-0.4,0-0.7-0.3-1
			L1831.1,802.5z"/>
		<path class="st10" d="M1811.1,815.4c1.4-5.3-5.9-12.2-8.9-15.4c-7-7.4-15.1-13.8-22.3-21.1c-8.1-8.2-14.9-16.8-20.9-26.6
			c-0.6,5.9,2.5,12.6,4.6,17.9c2.8,7.1,6.5,14.7,10.9,21.1c9,13.1,27,17.6,38.7,27.8c-0.3-0.3-0.7-0.7-0.9-1.1L1811.1,815.4z"/>
	</g>
	<path class="st10" d="M1303.8,1108.3c-8,10.3-12.3,15.9-8.9,27.7c2.8,9.8,5.7,21.3,6.9,31.1c4.9,43.5-35.7,64.4-59,97.8
		c-11.2,16-26,34.7-25.9,54.3c0,17.2,11.6,31.6,20,44.9l-8.4-34.4c-1-6.9,1.3-14.4,3.9-20.5c3.6-8.4,8.8-16.3,14.3-23.8
		c19.1-25.6,44.1-45.7,61.4-73.1C1328,1180.8,1316.7,1138.3,1303.8,1108.3z"/>
	<path class="st10" d="M1588.9,854.2c-15,19.5-24.4,43.8-42,65.6c-13.1,16.2-32.6,31.1-52.3,38.3c-31.1,11.3-64.4-1.6-95.9,4.4
		c-15.4,3-31.1,9.4-42.4,19.3c-14.2,12.6-18.8,29.5-24.6,46.2l17.8-19.9c8.7-8.6,22.7-18.1,33.3-21.8c19.6-6.8,35.3-2.4,54.5-0.5
		c38.6,3.8,81.3-6.4,110.9-34.9c22.2-21.4,33.5-51.5,52.2-75.4c10.5-13.4,20.7-25.8,36.2-33.2c5.8-2.8,12.9-3.4,19.2-4.8
		c5.8-1.3,12.2-2.4,17.7-4.5C1656.4,808.7,1608.1,829.1,1588.9,854.2z"/>
	<path class="st10" d="M1886,856.8c-17.4,10.3-35.7,12.8-55.8,12.5c-22.2-0.3-40.1-12.7-55.9-24.8l-29.7,2
		c2.5,0.3,9.9,9.1,20.1,19.5c6.3,6.4,15.6,10.6,24,14.4c30.4,13.7,64.8,6.5,96.3-5.4c16.9-6.4,34-13.3,48.4-23
		c8.8-5.9,10.4-7.5,20.3-4.9c6.2,1.6,12.3,4.5,18.7,5.5c-0.6-1.9-1.3-3.9-1.9-5.9C1961,812.5,1925.7,833.3,1886,856.8z"/>
	<path class="st10" d="M2114.6,975.7c-17.7-3.3-24.7-8.1-36.7-20c-8.5-8.4-10.9-10.6-15.9-14.6l-13.8-13.1
		c5.8,16.7,10.4,32.5,23.4,45.5c13.4,13.4,28.6,16,44.4,21.3c14.7,4.9,29.7,7.3,37.5,21.7c2.6,4.8-1.8,12.1-1.7,13.4
		c0.6,6.4,4.9,16.2,6.7,20.7C2195.3,1009.3,2156,983.3,2114.6,975.7z"/>
	<g>
		<path class="st4" d="M1422.4,1181c-27-13.5-57.7,5.7-87.4,25.3c17.2-14.4,37-35.2,35.2-58.8c-12.3,1.9-30.8,19.5-38.1,36.7
			c-3.2,7.4,1.6,24.6-15.7,28.2c1.5,1.1,7.8,2.5,5,9.3c-12.3,24.3-26.3,60.4,0.4,78.3c21.7-22.2,14.3-55,8-78.7
			c13.9,3.6,19,29.9,26.5,40.3c10.3,14.5,26.5,20.4,44,23.9c4.4-14.4-5.3-36.3-14.1-46.9c-12.4-15-27.5-16.2-45.6-20.5
			C1370.6,1210.8,1402.1,1209.2,1422.4,1181z"/>
		<g>
			<path class="st20" d="M1321.6,1233.7c-2.1,5.7-4.6,11.3-6,17.2c-3,12.5-0.5,23.4,3.9,34.6c-1.8-4.6-0.1-10.6,1.1-15.5
				c1.5-6.2,3.2-12.4,4-18.7c0.7-5.4,0.6-10.9,0.6-16.3c0.1-4.6,0.7-10.7-0.6-14.3l0-0.1C1324.9,1224.9,1323,1229.7,1321.6,1233.7z"
				/>
		</g>
		<path class="st20" d="M1380.5,1256.8c-4.4-6.2-10.1-12.7-15.5-18.1c-7-6.9-16.7-13.5-25.5-16.7l-1.6-0.4
			c13.7,3.9,17.8,21.1,24.6,31.6c7,10.9,20.3,14.8,30.3,22.1C1387.9,1269.7,1384.8,1262.8,1380.5,1256.8z"/>
		<path class="st20" d="M1343.3,1175.8c-2.8,4.4-5.3,8.6-6.8,13.4c-1.8,5.9-3.3,11.4-6.8,16.8l1.6-2.6c4.8-6.2,9-13,14.1-19.3
			c6.9-8.4,9.5-17.9,14.6-27.1C1355.4,1163.7,1347.7,1168.9,1343.3,1175.8z"/>
		<g>
			<path class="st20" d="M1373.5,1193.7c-13.4,5.1-28.3,11-39.8,19.2c12.1-0.4,25-5.9,36.3-10.7c12.3-5.2,24.1-12,37.1-15.2
				C1397.1,1184.6,1383.3,1190,1373.5,1193.7z"/>
		</g>
	</g>
	<g>
		<path class="st4" d="M1201.9,1184.3c26.4,2.1,36.9,28.5,46.5,54.8c-3.8-17.4-5.8-40.3,8.7-55.9c7.5,6.5,10.4,26.7,5.8,41.7
			c-2,6.5-15,16.4-5,26.3c-1.6,0.1-6.8-1.5-8.7,4.3c-5.2,22.1-15.8,53.2-44.5,54.3c-2.5-24.6,21.1-44.3,38.9-58.1
			c-11.7-3.4-30.1,12.7-41.2,16.8c-15.4,5.7-30,3-44.1-2.1c5.1-11.9,24.2-23,36.3-26.6c17.1-5.2,28.3,0.4,43.3,5.1
			C1221.1,1227,1200.2,1212.5,1201.9,1184.3z"/>
		<g>
			<path class="st20" d="M1242.3,1263.8c-1.8,4.9-3.2,9.8-5.5,14.5c-5,10-12.8,16.5-22.3,22.4c3.8-2.5,6.1-7.4,8-11.2
				c2.4-4.9,4.8-10,7.8-14.7c2.6-4.1,5.8-7.9,8.8-11.6c2.5-3.2,5.5-7.7,8.5-9.7l0.1-0.1C1244.9,1256.3,1243.5,1260.4,1242.3,1263.8z
				"/>
		</g>
		<path class="st20" d="M1188.2,1254.8c6.6-2.5,14.2-4.6,21-6c8.8-1.8,19.2-2.3,27.2-0.7l1.3,0.4c-11.8-3.1-24.3,7.1-35,11.5
			c-11,4.6-22.5,1.7-33.6,2.5C1175.8,1260.7,1181.8,1257.2,1188.2,1254.8z"/>
		<path class="st20" d="M1259.9,1214.3c-0.5,4.2-1.2,8.2-2.9,12.2c-2.1,4.9-4.1,9.4-4.7,14.6l0.4-2.5c0.1-6.4,1.1-12.9,1.1-19.4
			c0-8.8,3.5-16.5,5.2-25.1C1258.3,1200.7,1260.8,1207.6,1259.9,1214.3z"/>
		<g>
			<path class="st20" d="M1228.8,1213.9c6.5,9.2,13.5,19.7,16.8,30.3c-8.2-5.4-14.1-14.8-19.2-22.9c-5.6-8.9-10-18.6-17.2-26.3
				C1217.5,1197.5,1224.1,1207.2,1228.8,1213.9z"/>
		</g>
	</g>
	<g>
		<path class="st4" d="M1275.4,905.8c-0.6,30.1,30.2,45,60.9,58.9c-20.6-6.4-48.1-11.3-68.7,3.3c7,9.2,31.1,14.9,49.8,11.5
			c8.1-1.5,21.7-15.1,32.4-2.6c0.4-1.8-1.1-7.9,6.2-9.3c27.4-3.3,66.2-11.7,71-43.9c-29.5-5.8-56.1,18.6-74.9,37.2
			c-2.7-13.6,18.9-32.5,25.2-44.6c8.7-16.7,7.1-33.5,2.6-50c-15,4.3-30.6,24.6-36.5,37.9c-8.3,18.7-2.8,32,1.2,49.5
			C1324.9,932.5,1309.8,907.1,1275.4,905.8z"/>
		<g>
			<path class="st20" d="M1367,960.7c6.1-1.4,12.2-2.5,18.2-4.6c12.7-4.4,21.5-12.6,29.8-22.5c-3.4,4-9.6,6-14.5,7.7
				c-6.2,2.2-12.7,4.2-18.8,7.1c-5.2,2.5-10.2,5.6-15.1,8.6c-4.2,2.5-10,5.3-12.7,8.5l-0.1,0.1
				C1357.5,962.8,1362.7,961.7,1367,960.7z"/>
		</g>
		<path class="st20" d="M1362.4,898.6c-3.8,7.1-7.2,15.5-9.7,23c-3.2,9.7-5,21.4-4.1,30.6l0.3,1.5c-2.4-13.7,11.4-26.6,18.1-38.2
			c6.8-11.9,4.6-25.2,6.9-37.6C1371,885.3,1366,891.6,1362.4,898.6z"/>
		<path class="st20" d="M1305,974.8c5.2-0.1,10.1-0.4,15.1-1.8c6.2-1.8,11.8-3.6,18.2-3.6l-3,0.1c-7.7-0.6-15.7-0.2-23.6-1
			c-10.6-1.1-20.4,2-31,3C1288.7,971.4,1296.8,975,1305,974.8z"/>
		<g>
			<path class="st20" d="M1308.2,939.6c10.4,8.4,22.3,17.6,34.7,22.5c-5.6-9.9-16.2-17.6-25.4-24.3c-10.1-7.3-21.4-13.5-29.9-22.5
				C1289.6,925,1300.6,933.5,1308.2,939.6z"/>
		</g>
	</g>
	<path class="st4" d="M2173.4,949.3c-11.9,2.4-24.3,12.8-36.2,11.5c2.7-6.1,11.6-8.1,16.6-12.2c5.7-4.6,9.9-10.3,13.2-16.9
		c6.6-13.2,10.2-31.2,7.1-44.6c-10.2,6.5-21.9,16.2-27.7,27.4c-5.7,11.1-4.7,32.5-14.4,40.5c-3.6-9.9,0.7-22.1-3.2-33.3
		c-4.1-11.5-12.6-19.6-18.6-29.3c-3.4,12.2-7.4,25.8-3.8,38c3.4,11.6,11.9,20.5,18.3,29.9c-11.9-12.4-34.7-13.9-50-21.1
		c3.3,11.2,10.9,20.3,21.5,25.5c12.8,6.2,24.1,5.3,37.6,8.5l-5.6-0.9c8.3,8.7,28.7,9.4,40.4,6.6c14.9-3.5,28-18.9,42.1-17.8
		C2202.2,953.3,2185.8,946.8,2173.4,949.3z"/>
	<path class="st11" d="M1954.8,898.2c-12.2-10.9-24.6-5.8-39.1-9.1c10.9-3.4,21.9-6.2,33.1-10.4c12.5-4.7,17.7-9,26-18.7
		c-14,4.2-27.7,1.7-42.4,8.1c-13.4,5.9-25.1,13.4-39.1,18.7c0,0-49.9,9.6-70,36.1c13.7-1.2,23.5-0.7,37.1-5.8
		c14.8-5.6,25.9-15,38.9-21.4c-7,12.7-24.3,16.8-34.6,27.5c-9.2,9.5-15.8,22.2-17.3,34.6c14.5-5.8,26.3-9.3,37.8-20.3
		c9.3-8.9,15.8-19.9,19.9-31.2c2,5.2-3.8,13-4.9,18.6c-1.6,7.7-1.2,14.5,0.1,21.8c2.5,14.2,7.9,28.6,17.9,39.4
		c-1.4-7.4,4.6-16,6.9-23.3c2.9-9.4,4.3-19.6,4.5-29.2c0.2-8.8-1.2-17.9-5.1-25.5c4.9,5,10.5,9.8,14.7,12.7c8.6,6,23.1,7,33.7,7.4
		C1965.6,928.3,1960.9,903.6,1954.8,898.2z"/>
	<g>
		<path class="st4" d="M1996.2,775.3c-6.4,1.6-11.9,4.2-17.1,8.4c-3.9,3.2-7.5,8.8-12.6,10.2c-17,4.7,4.2-19.7,5.7-24.4
			c4.4-13.8,0.7-26.6-4.9-38.6c-4-8.6-14.4-20.6-10.1-31c-4,5.2-8.6,10.5-11.8,16.3c-8.5,15.5-1.7,30.3,4,44.6
			c2.2,5.6,5.7,15.9,2.7,21.9c-4.3,8.7-7.3,0.8-9.1-3.7c-5.2-13.2-10.5-22.9-26.2-26.9c-12.3-3.2-31.7,5.8-41.9-1.2
			c8.5,10.3,8.9,23.5,23.8,29.9c8.2,3.5,17.7,5.6,26.7,6.4c5.8,0.5,14.8,1.7,17.2,7.1c-14.3,2.8-25.6-1.2-40.2,5.5
			c-8.6,3.9-16.7,9.2-24.2,14.7c-5.1,3.8-10.3,9.3-16.1,11.5c17.2,2.1,29.2-0.3,45.1-7.7c7.3-3.4,42.2-10.6,42.2-10.6
			c4.8-0.8,11.6-3.9,18.6-1.9c9.4,2.7,17.6,8.5,27.9,7.3c11-1.3,20.6-8.6,28.9-15.5c3.2-2.7,12.2-14.9,17.6-13
			C2030,774.5,2013,771,1996.2,775.3z"/>
		<path class="st4" d="M2042.3,784.4c0.7,0.5,1.3,1.1,2,1.7C2043.7,785.2,2043,784.7,2042.3,784.4z"/>
	</g>
	<path class="st4" d="M1840.7,915.4c-11.8,0.6-31.2,1-41.9-4.1c-7.9-3.8-6.1-11.9,2.8-14.3c7.9-2.2,15.2,2.5,23.2,1.2
		c10-1.7,18.7-3.5,28.9-3.8c5.3-0.2,11.8-0.5,16.8-2.3c-4.7-6.5-3.5-12.3-1.9-19.8c1.3-5.9,1.8-17.3-7-18.3
		c-4.5-0.5-12.8,4.5-18.4,4.9c-14.7,0.8-29.1,4.7-43.7,7.2c-8.2,1.4-18,5.1-26.2,4c-8.9-1.2-13.6-8.2-6.1-14.9
		c7.3-6.5,17.8-4,26.5-4.5c11.3-0.8,22.3-4.2,33.3-7.1c6.6-1.8,14.9,0.5,20.9-2.2c-2.3-12.3-22.7-27.9-33.2-33.6
		c-12.9-7-26.1-6.7-40.6-1.1c-23.8,9-46.7,19.6-70.7,28.7c-4.3,1.6-8.7,3.7-13.1,4.9c-3.6,1-10.2,1.1-11.8,2.5l-5.6,4.1
		c5.9,13.6-14.9,23.2-25,29.7c-10.5,6.8-20.8,15.8-26,27.1c-4.7,10.2-4.4,22.5-2.6,32.7c1.5,8.2,7.2,19.8,4.3,28.1
		c12.8-1.6,24.6-4.6,27.6-19.2c2.1-10.2-6.5-26.6,10-30.6c15.5-3.8,12.1,21,7,29c-7.8,12.4-20.5,25.2-24.9,39.2
		c-2.9,9.4,3.2,18.6-0.9,27.8c7.1-2.3,11.1-3.1,18.3-1.7c9.2,1.9,13.4,2.9,13.7-7.7c0.3-10,2.1-13.4,8.6-21.5
		c6.3-7.9,10.6-17.4,12-27.1c1.1-7.5-1.8-20,3.8-26.5c5.8-6.7,12.2-0.1,15.1,5.6c4.3,8.5,3,17-1.8,25.6c-5.8,10.5-10.6,21.5-14,32.9
		c-3.5,12-7.3,25.9-4.6,37.8c1.7,7.5,4.2,14.7,0.6,22.4c13.2,0.4,21,11.1,31.7-4.1c10.8-15.2-3.1-32.3,7.4-48.2
		c3.6-5.4,11.2-12.2,16.3-5.7c5.9,7.6,0.2,25.7,2.4,35.2c6.6,28.3,35.9,26.4,60.7,19.7c15.8-4.3,33.8-10.9,49-3.8
		c-1.5-4.9-4.2-8.9-4.7-14.5c-1.4-13.7,6.4-27.1,4.1-40.9c-2.8-16.9-16.5-25.4-30.8-33.1c-4.9-2.6-10.2-4.3-3.8-9.3
		c4.8-3.7,14.4-4.1,19.6-3.3c14.9,2.3,24.6,15.5,39.9,12.4c-5.8-3.3-6.1-11.2-5.3-17.5c1.1-8.5,11.2-18.2,3.8-24.2
		C1874.2,905,1853,914.8,1840.7,915.4z"/>
	<g>
		<path class="st15" d="M1823.2,1014.1c-8.1-6-13.9-14.3-21.2-21.2c-10.4-9.8-21.8-18.7-30.5-30c-4.5-5.9-6.7-13.1-10.8-19.3
			c-4.6-6.9-10.5-13.2-16.2-19.1c-11.4-11.6-23.5-22.4-34.9-33.8c-10-10-20.1-31.9-28.1-42.8c-2.5,14.8-26.1,27.6-33.7,40.4
			c-2.2,3.7-2,6.9,2.7,7.8c4.2,0.8,7.9-2.7,11.3-4.1c9-3.9,15,2.5,15.4,10.9c0.3,5.4-5.4,22,6.1,19.1c4.6-1.2,6.6-6.1,10.2-8.9
			c3.5-2.7,8.5-4.8,12.9-4.1c11.6,1.8,16.3,16.7,18.6,25.9c3.9,15.9-9.2,29.3-15.7,43.8c-1.9,4.3-3.7,11.1-1.6,15.3
			c3.4,6.8,9.2-0.3,12.2-4.5c6.2-8.4,9.5-31,23.6-30.7c16.3,0.4,19.6,22.9,19.5,34.6c0,11.2,0.1,23.6,9.2,31.4
			c11.7,10,28.1,3.4,42.3,3.2c10.4-0.2,19.3,2.7,29.2,4.6C1836.9,1026,1831,1019.9,1823.2,1014.1z"/>
	</g>
	<g>
		<path class="st15" d="M1843.3,985.3c-3.6-8.8-12.9-19.3-22.3-22.9c-10.4-3.9-19.4,2-29.3,0.3c0.1,1.8,0.5,3.5,1.6,4.9
			c0,0,10.4,12.5,19.2,18.4c4.9,3.3,8.9,7.3,12.9,11.5c3.8,4.1,8.1,11.5,13,14.3C1848.4,1017.5,1845.5,990.7,1843.3,985.3z"/>
	</g>
	<path class="st15" d="M1863.4,916.5c-5.1-0.3-10.3,1.1-15.5,1.8c-4.3,0.6-12.2-0.8-15.2,3.2c-2.2,2.9-1.8,6.8,0.2,9.3
		c0.7,1.4,2.1,2.5,4.6,3.2c3.7,1.1,7.7,1.2,11.5,1.9c8.3,1.5,14.7,6.2,21.2,10.5c-1.6-6.5,2-12.4,3.4-18.8
		C1875.5,919.8,1871.1,917,1863.4,916.5z"/>
	<g>
		<path class="st4" d="M1680.6,840.2c-6.3-0.1-11.6-2.8-17.1-5.2c-8.9-3.9-17.6-9.4-27.8-9.9c-1.4-0.1-6.4,0.1-7.4,1.6
			c-1,1.5,2.7,4.4,3.6,5.6c3.1,3.9,2.9,7.6,0.4,11.8c4.3-1.6,8.3-2.7,13-2.8c4.4,0,8.9,0.6,13.1,1.8c4.2,1.2,8.7,3.1,11.8,5.9
			c2.6,2.3,3.4,5.5,5.6,8c1.3-3.2,2.5-6.2,5.3-8.6c3.5-3.1,8.1-4.3,12.4-6.2C1692.1,838.4,1683.8,840.3,1680.6,840.2z"/>
	</g>
	<path class="st4" d="M1654.5,743.8c-14.5-0.5-19.8,11.7-26.6,19.8c-6.1,7.4-24.4,19.4-23.7,4.6c0.5-12.2,13.5-6.1,14.8-30.8
		c0.8-14.6-18-27.4-14.9-41.3c-10.6,17.4-31.3,19.7-44.8,33c-11.8,11.6-7.3,24.8-3.5,38.8c1.9,7.1,2.3,16.6-7,16.2
		c-6.9-0.3-11.7-10.2-14.6-16.2c-3.3-6.9-0.7-19.4-7.9-19.8c-5.7-0.4-12.8,13.7-18.9,9.6c1.2,12.3-4.1,24.7,2.8,36.4
		c6.5,11.1,26,10.4,27.7,25.4c2.4,20.7-15.8,0.1-20.9-3.2c-8.4-5.5-14.6-12.9-18.4-25.6c-2.9,1.7-12.7,13.3-16.3,12.5
		c0.8,22.8,7.5,28.2,23.7,39.3c10,6.9,7.4,13.6-3.7,11.1c-8.9-2-10.5-12.4-14.2-19.7c-3,1.7-12,7.2-15.2,6.7
		c1.4,19.4,13.5,29.3,30.3,34.4c7.3,2.3,15.8,1.8,22.3,6.2c7.5,5.1,10.9,15.6,13.7,24.3l1.7,0.6c1.5-6.1,7.3-12.7,12.1-15.5
		c11.3-6.5,27.1-1.4,39.4-3.2c13.8-2,42.5-8.6,54.8-25.1c4-5.4-7.2-14.4-14-13.4c-9.2,1.3-48.1,15.2-47.8-6.5
		c9.1,0.7,18,3.9,27.1-0.9c9.1-4.9,21.6-9.6,29.5-16.7c5.1-4.6,10.3-13.9,6.5-21.2c-4.3-8.3-10-3-15.9,0.2
		c-7.5,4.1-18.1,9.6-26.9,8.4c-7-0.9-11.8-8.3-4-12.6c5-2.8,14.9-0.4,21-2.6c6.6-2.3,12.5-6.1,18.1-10.8
		c4.9-4.2,20.5-13.9,22.1-21.3C1664.2,758.4,1655.6,751.8,1654.5,743.8z"/>
	<path class="st15" d="M1598.6,764.4c6.6-8.5,9.6-11.7,6.7-21.8c-2.1-7.4-0.4-14.9-2.4-22.4c-0.5-2-1.4-4-2.1-5.9
		c-6.2,8.5-7.5,20.7-11.2,30.2c-5.7,14.8-8.8,30-14.3,44.8c-9.8,26.2-19.8,52.9-24.7,79.9c-0.8,4.2-6.5,20.8-6.5,20.8
		c10-11.5,21.1-8.5,34.1-13.4c15.3-5.7-9.5-11.6-12-14.9c-7-9.1,3.9-23.9,13.7-27.3c10.5-3.6,20,3.9,30.8,0.3
		c4.4-1.5,28-15.1,22.3-21.3c-3.4-3.7-11.5,3-14.8,4.6c-5.2,2.5-10.7,4.4-16.5,4.1c-9.6-0.5-19.8-7.7-15.3-18
		c5.1-11.8,17.9-13.8,29.1-17.3c3.5-1.1,11.2-4.5,5.7-8.2c-3.2-2.1-7.7,1-11.1,1.8C1597.5,783.4,1590.9,774.3,1598.6,764.4z"/>
	<path class="st4" d="M1546.7,889.2c-4.7,0.9-8.6-1-13.1,1.1l-1.1-1.4c1.7,3.3,1.1,8.2,1,11.9c-0.2,4.6-0.5,9.1,0,13.7
		c0.5,5.6,2.1,10.7,3.9,15.9c4.4-2.8,10.8-0.4,13.8,2.8c2.4,2.5,3.6,5.4,4.9,8.5c1.8-3.3,0-8.6-0.8-11.9c-0.5-2.3-1.1-4.6-2.1-6.8
		c-1.2-2.4-2.7-4.5-3.7-7c-3.2-7.9-2.9-19.3,5.3-25.1c3-2.1,6.5-3.3,9.6-5.4C1562.5,882.4,1549.5,888.7,1546.7,889.2z"/>
	<path class="st15" d="M1570.1,726.3c-5.7,2.8-15.5,9.9-14.5,16.5c-0.8,3.4-0.6,7.1,0.8,11.3c2.5,7.2,8.8,16.2,13.9,3.7
		c1.6-4.1,1-8.2,2.6-12.4c1.7-4.2,4.5-7.9,7.7-11.4c4.3-4.8,16.4-11.2,16-18.2C1589.8,714.5,1576.5,723.2,1570.1,726.3z"/>
	<path class="st15" d="M1565.8,782.7c-3.3-0.6-11.3,4.8-14.7,5.6c-9,2.1-18.6-3.8-22.9-11.1c-2.1-3.7-6.2-21.8-13.9-10
		c-1.7,2.6-0.5,8.5-0.8,11.5c-0.2,2.2-0.1,5.2,1,7.1c0.1,2.8,1.1,5.3,3.6,7.1c4.3,2.9,11.2,1.5,15.9,4.3
		c8.8,5.1,11.1,15.4,18.7,21.6c3.8-8.3,10-16.5,13.4-24.9C1567.5,790.6,1569.4,783.4,1565.8,782.7z"/>
	<path class="st11" d="M1549.9,891.6c-2.8,1.9-6.7,4.1-8.3,7c-3.1,5.7,3.9,12,6.8,16.6c5,7.9,6.2,14,6.9,16.2c1.8,6-0.3,8.7,0.6,11
		c3.3-3.4,1.2-12.4,0-16.1c-1.5-4.5-3.8-9.4-6.1-13.5c-2.2-4-2-9.9,0.3-15.8c2.1-5.5,8.9-6.1,13.4-9.6
		C1563.5,887.4,1553.2,889.4,1549.9,891.6z"/>
	<path class="st20" d="M2141.7,869.3c-0.9,4.6-0.9,9.3-1.3,14c-0.9,11.6,0.8,21.6-5.7,32.4l3.3-2.2c5.2-3.8,7.6-17,8.5-23.2
		c1-6.5,2-12.5,1.7-19c-0.3-5.8-1-11.7-0.9-17.5C2146.1,858.9,2142.7,864,2141.7,869.3z"/>
	<g>
		<path class="st20" d="M2094.2,877.9c1.9,4.3,4.6,8.6,6.5,12.9c1.9,4.1,3.3,8.4,5.8,12.2c2.7,4.1,6.5,6.9,10.1,10
			c3.2,2.8,6.2,5.4,9.8,7.6c-4.8-5.8-9-13-13.3-19.6C2107.6,892.7,2099.9,886,2094.2,877.9z"/>
		<path class="st20" d="M2130.5,923c-1.5-0.7-2.8-1.5-4.1-2.3c0.1,0.1,0.2,0.2,0.2,0.3L2130.5,923z"/>
	</g>
	<g>
		<path class="st20" d="M2083.6,948.9c0.3,0.4,0.6,0.8,1.1,1.1c-0.9-1.2-1.8-2.4-2.7-3.8L2083.6,948.9z"/>
		<path class="st20" d="M2109.6,956.7c-4.9-1.7-9.9-2.6-15-3.7c-2.7-0.6-7.4-1.1-9.9-2.9c6,7.7,13.4,12.5,23.7,15.4
			c8.6,2.4,17.7,1.7,26.3,4.7C2126.5,965.4,2118.6,959.7,2109.6,956.7z"/>
	</g>
	<path class="st20" d="M2161.4,908.8c-4.5,3.2-8.1,6.9-11.5,11.1c-2,2.4-7.1,7.7-7.4,10.2l0.8-0.6c11,1.3,22-1.3,30.9-9.1
		c5.7-5,12.7-18.5,21.3-19.2C2184.8,897.2,2170.6,902.2,2161.4,908.8z"/>
	<path class="st19" d="M2067.6,917.9c-9-9.8-20.8-16.3-31-24.6c-3.6-3-7.7-10.5-12.9-11c-2.4-0.2-3.7,1.7-3.9,3.7
		c-2.3,4.4,5.1,6.9,8.6,9.4c7.6,5.3,15.4,12.4,21.7,19c2.9,3,6,5.7,9,8.5c2.4,2.3,5.2,5.3,8.8,5.7
		C2075,929.3,2069.6,920.1,2067.6,917.9z"/>
	<path class="st19" d="M2139.8,1039.2c-5.7-6.9-8.1-0.1-6.5,5.4c0.9,3.1,2,6.2,3.1,9.2c0.3,1.6,0.6,3.1,0.8,4.7
		c0.7,6.4,0.9,13.2,1.9,19.5c1.1,6.2,1.1,17.1,6.9,20.8c13.5,8.6,3.4-24.2,1.9-28.6c-2-6-4-11.7-5-17.9
		C2142.3,1048.4,2142.4,1042.4,2139.8,1039.2z"/>
	<path class="st19" d="M2147.5,1148.6c-6.8,2.1-6.9,20.2-9,26.1c-1.6,4.7-3.4,9.3-5.2,14c-1.3,3.2-5.1,9.6-4.4,13
		c0.4,1.7,1.1,2.6,2,3c0.3,0.4,0.8,0.7,1.4,0.9c4.6,1.4,7.1-5.5,8.5-8.3c3.5-7.1,4.8-14.5,6.9-21.9
		C2148.9,1171.5,2158.1,1145.4,2147.5,1148.6z"/>
	<path class="st21" d="M2144.3,1222.8c-2.6-4.6-21.8,3.4-25.2,5.4c-5.7,3.2-13,9.3-11.4,16c0.1-0.2,0.2-0.4,0.3-0.7l-1.2,4.3
		c5.4-3.5,11.4-5.9,17.7-4c4.2,1.3,5.4,4.4,4.3,8.5c3.1-4.2,6-9.4,8.6-13.8C2139,1235.9,2146.1,1225.8,2144.3,1222.8z"/>
	<path class="st10" d="M2094.1,1262.7c-13.3-10.8-5.4-28.6,32.8-47.5c18.2-9,32-20.8,44.8-38.2c11.3-15.4-13.8-41.5-31.6-53.9
		c2.1-7.3-3.3-24.9-1.3-32.2c17.2,22.9,47.6,50.9,50.8,64.9c5.4,23.8-4.8,38.2-22.2,54.4c-12.2,11.3-30.6,18.6-44.8,26.5
		C2110.2,1243.7,2103.6,1253.2,2094.1,1262.7L2094.1,1262.7z"/>
	<path class="st11" d="M2123,1224c-5.3,2.1-10.6,5-15.4,8.2c-4.4,3-8.4,6.2-11.1,10.2c-0.6,0.6-1.3,1.3-1.8,1.9
		c-1.3,1.5-5.9,8.5-0.9,7.5c2-0.4,4.9-5,6.2-6.4c2.7-3.1,4.8-6.3,8.2-8.6c3.8-2.5,7.5-4.1,11.7-5.7c2.5-1,6.2-1.7,8.1-3.7
		C2132.4,1222.8,2126.3,1222.7,2123,1224z"/>
	<path class="st11" d="M2130.5,1067.2c-0.4-1.8-1.7-2.5-3-1.8l0.2-1c-0.4,0.6-0.8,1.2-1.2,1.8c-0.1,0.1-0.3,0.3-0.4,0.5
		c-0.6,0.8-0.9,1.7-1.1,2.7c-1,2.9-1.2,5.9-1.1,9.4c0.1,6.8,0.7,12.8,4.6,18.4c1.6,2.2,2.9,5.7,5.9,6.4c2.9,0.7,3.6-1.2,3.1-3.5
		c-1.3-6.4-6.2-11.4-7-18.2C2130,1077.1,2131.6,1071.7,2130.5,1067.2z"/>
	<path class="st11" d="M1244,1002.4c-4.9,5.4-4.2,13.6-6.7,19.7c0.2,0,2.8-0.8,2.8-0.8c2.1,0.2,8.1-3.7,10.9-4.3
		c4.1-0.9,8.2-0.8,12.2-0.8c7.8-0.1,45.6,5.1,36.2,19c-8.2,11.9-15,1-20-1.9c-5.1-2.9-11.7-4.4-18.6-4.6c-7-0.2-13,1-19.7,4.7
		c-6.1,3.4-9.4,8.7-16.9,7.6c-2.1,6.2-2.3,13.1-3.3,19.2c10.5-0.7,20.8-4.4,31.2-3.6c9.3,0.7,17.3,2.1,13.8,13.8
		c-4.7,15.5-12.1,4.7-18.7,3.1c-5.8-1.4-10.9-0.6-17.2,2.1c-5.1,2.1-11.2,8.1-15.6,4.6c-2.6,6.2-4.3,14.1-5.5,20.1
		c10.2,0.1,24.9-1.9,24.1,10.2c-0.3,5.5-11.2,0.1-15.5-0.7c-12.3-2.4-21,12.2-19.5,21.3c3.8,23.4-11.3,33.1-11.3,33.1
		c11.9-10.1,26.9-1,38.7-1c10.5,0,25.8-5,24.2-16.6c-0.6-4-2.9-16.1,2.9-15c12.2,2.2,7.1,14.3,6.5,23.8c6.5-0.7,15.1-1.7,21.9-3.7
		c-3.3-4.4,3.5-9.7,6.1-14.2c3.3-5.7,4.5-10.4,3.5-15.9c-1.2-6.3-13.4-17,3.5-20.2c12.8-2.4,14.8,8.1,14.9,16.8
		c0.1,9.7-4.7,19.1-6.2,28.8c6.6-0.5,13.9-0.1,20.7-1.6c-0.6-7,5.3-9.7,9.3-15.2c4.5-6,6.2-11.5,6.5-18c0.3-6.4-0.8-12.7-3.5-17.7
		c-2.7-4.9-7.2-16.7,5.1-16.7c7.2,0,9.7,5.5,11,11.6c1.4,6.6,1.6,14.1,0.9,21.4c-0.4,3.7-0.5,7.6-1.8,11.3c-0.9,2.5-5.4,7.9-5.4,9.8
		c0,0-1,2.4-1,2.6c6.7-1.9,15.4-0.6,21.6-4.8c-2.2-9.4,13.9-17.6,20.1-25c8.4-10,13.3-27,11-37.3c-3.5-15.8-18.9-37.5-36.2-45.7
		c-3.7-19-29.4-38.6-48.1-43.6c-10.8-2.9-29.3,0.4-40.6,7.5C1263.8,990.8,1253.9,1005.2,1244,1002.4z"/>
</g>
<g>
	<path class="st22" d="M1694.6,563.1c-5.2-7.3-13.1-14.1-22.1-19.8c-8.8-5.6-19.3-11.4-29.1-7.8c-3.8,1.4-6.9,4.1-9.9,6.7
		c-13.7,11.9-27.5,23.7-41.2,35.6c-5.1,4.4-10.3,8.9-13.7,14.7c-30.5,51.6,66.7,72,87.3,34c1.6-3,2.8-6.5,4.2-9.8
		c4.1-2.6,8.3-5.3,12.4-7.9C1705,594.5,1705.1,577.8,1694.6,563.1z"/>
	<path class="st22" d="M1646.2,484.8c1.4-1.2,3.4,0.3,4.6,1.7c5.2,6.6,8.8,14.3,12.3,22c1.6,3.4,3.1,7.3,1.5,10.7
		c-2.1,4.2-8.3,4.7-12.2,2.2c-3.9-2.5-6.2-6.9-8.2-11.1c-1.9-3.9-3.8-7.9-4.3-12.2c-0.5-4.3,0.8-9.1,4.3-11.7L1646.2,484.8z"/>
	<path class="st22" d="M1619.2,483.9c3.7,0.8,7.6,6.7,9.2,9.8c3.4,6.4,6.8,12.8,10.1,19.1c0.7,1.4,1.5,2.9,1.3,4.5
		c-0.2,1.6-1.3,2.8-2.4,4c-3.3,3.5-7.1,7.1-11.8,7.7c-5.3,0.7-10.5-2.5-13.7-6.7c-3.2-4.3-4.7-9.5-6.2-14.6
		c-0.8-2.6-1.5-5.3-0.8-7.9c0.6-2,1.9-3.6,3.2-5.2c2.4-2.8,5.4-10,9.6-10.7C1618.2,483.7,1618.7,483.8,1619.2,483.9z"/>
	<path class="st22" d="M1595.7,511.9c3.4,5.9,6.8,11.7,10.3,17.6c2,3.4,4,7.1,3.4,10.9c-1,6.3-9.4,9.4-15.3,6.8
		c-5.9-2.6-9.3-8.9-10.7-15.2c-0.9-4-1.2-8.3,0.2-12.1c1.4-3.9,4.7-7.2,8.8-7.7L1595.7,511.9z"/>
	<path class="st22" d="M1569.4,543.2c7.2-1.1,13.9,11.8,16.7,17.4c-3.3,5.5-12.2,5.6-16.6,0.9c-3-3.1-7.2-16.9-0.4-18.3
		C1569.2,543.2,1569.3,543.2,1569.4,543.2z"/>
	<path class="st22" d="M1555.1,565.7c1.6,0.7,2.9,2,4.2,3.3c2,2,4.1,4.1,5.1,6.7c1.1,2.6,0.9,6-1.2,7.9c-3.1,2.9-8.6,0.8-10.6-3
		c-2-3.7-1.6-8.2-1.2-12.4C1552.2,565.9,1555.1,565.7,1555.1,565.7z"/>
	<path class="st22" d="M1647.8,480c-2.5-2.4-4.9-4.8-7.4-7.2c1.1,3.1,2.1,6.3,3.2,9.4c1.3-1.1,2.6-2.2,3.9-3.3L1647.8,480z"/>
	<path class="st22" d="M1617.9,478.9c-2.4-4.2-5.1-8.6-9.4-10.8c0.6,4.4,1.6,8.7,3,13c2-1.1,4.2-2,6.5-2.7L1617.9,478.9z"/>
	<path class="st22" d="M1593.7,509.3c-2.3-4.2-4.6-8.5-6.9-12.7c0.5,4.6,1.3,9.3,2.1,13.8c1.4-0.3,2.8-0.9,3.9-1.7L1593.7,509.3z"/>
	<path class="st22" d="M1570.9,539.3c-1.4-4.3-3.3-8.5-5.5-12.5c-0.5,4.1,0.2,8.4,2.1,12.1c1.3-0.1,2.6-0.1,3.8,0.2L1570.9,539.3z"
		/>
	<path class="st22" d="M1554.2,561.5c-0.7-3.1-1.8-6.2-3.1-9.1c-0.3,2.2-0.5,4.5-0.6,6.8c0,1,0,2.1,0.7,2.8c0.7,0.7,2.2,0.5,2.3-0.4
		L1554.2,561.5z"/>
</g>
<g>
	<path class="st22" d="M116.4,683.4c1.1-6.5,4.2-14.6,10.7-14.4c3.9,0.1,7.1,3.5,11,4.2c3.2,0.6,6.4-0.7,9.3-2c9.3-4,18.7-8,28-12
		c4.8-2.1,12.1-3.1,13.6,2c1.2,4.1-3.1,9.7,0.4,12.3c4.5,3.4,11-7.2,15.2-3.4c1.1,1,1.3,2.7,1.5,4.2c0.8,10.1,1.7,20.1,2.5,30.2
		c0.5,5.8,1,11.8-0.2,17.5c-2.4,11.8-11.3,20.9-19.8,29.4c-3.7,3.7-7.6,7.5-12.7,8.8c-5.3,1.4-11.2-0.5-14.8-4.6
		c-3.6-4.1-4.5-10.3-2.4-15.3c-6.9,0.7-13.9-3.8-16-10.4c-1.5-4.6-1.4-10.8-5.9-12.6c-2.2-0.9-4.7-0.2-7.1-0.1
		C112.6,717.5,114.5,694,116.4,683.4z"/>
	<path class="st22" d="M132.5,643.6c0.8-3.4,2.9-6.3,5-9.1c7-9.3,15.2-18.5,26.3-22.1c2.2,1.7,2.5,4.9,2.5,7.7
		c0.1,8.3-0.1,17.1-4.3,24.3C156.1,654.4,127.5,663.8,132.5,643.6z"/>
	<path class="st22" d="M179.3,613.7c4.9-7.3,12.5-12.3,19.9-17c2.1-1.4,4.8-2.8,7-1.7c3.6,1.7,2.4,7,1.7,10.9
		c-1.8,9.5,2.4,20.2-2.6,28.4c-3.4,5.5-10.2,8.2-16.7,8.1C173,642,172.1,624.4,179.3,613.7z"/>
	<path class="st22" d="M223,625c3.2-3.7,7.7-7.7,12.3-6.1c5.3,1.9,5.5,9.4,4.2,14.9c-2.2,9.2-5.7,18.2-10.5,26.4
		c-1.6,2.8-3.5,5.6-6.5,6.9c-8.8,3.7-17.6-8.1-17.1-16C206,641.9,217.6,631.4,223,625z"/>
	<path class="st22" d="M235.8,661.6c1.5-2.2,3.1-4.4,5.5-5.6c2.4-1.2,5.7-1,7.2,1.2c1,1.4,1,3.2,1,5c-0.4,12.5-4.3,24.8-11.1,35.2
		c-2.7,4-6.7,8.2-11.5,7.5c-3.6-0.6-6.3-4-7.1-7.5C216.9,685.6,229.7,670.6,235.8,661.6z"/>
	<path class="st22" d="M178.2,594.1c-1.7,3.8-3.9,7.3-6.5,10.5c-1.8-0.5-3.5-1-5.3-1.5C166.4,603,172.8,595.9,178.2,594.1z"/>
	<path class="st22" d="M202.7,586.1c3.1-6,9-10.4,15.6-11.6c-2.2,4.1-4.4,8.2-6.6,12.2c-0.3,0.6-0.7,1.3-1.4,1.6
		c-0.7,0.3-1.4,0-2.1-0.3C206,587.2,202.7,586.1,202.7,586.1z"/>
	<path class="st22" d="M235.4,612.7c1.7-7,4.7-13.6,8.8-19.5c-0.5,5.7-1,11.3-1.6,17c-0.1,0.7-0.2,1.4-0.7,1.8
		c-0.5,0.5-1.3,0.5-2,0.4C237.2,612.5,235.4,612.7,235.4,612.7z"/>
	<path class="st22" d="M249.9,647.5c2.7-6.7,6-13.3,9.8-19.5c0.5,8-1,16.2-4.2,23.5C253.1,650.2,249.9,647.5,249.9,647.5z"/>
</g>
<path class="st22" d="M1369.8,465.6c9.8-13,23.1-108.3,53.5-60.6c4.7,7.4,4.4,16.9,8.3,24c6.3,11.6,24.3,17.3,27.5,30.6
	c1.5,6.4-1.7,13.7-7.5,16.9c-10.5,5.7-25.1-4.9-34.6-8.8c-16-6.6-33.8-6.8-48.4-0.4L1369.8,465.6z"/>
<path class="st22" d="M1358.3,393c-6.9,0.1-10.7,7.2-16.4,10.5c-5.4,3.1-13.3,3.5-15.2,9.7c1.5-3.1,5.9-3.3,9.5-2.1
	c3.6,1.2,6.9,3.5,10.5,4.4c6,1.4,11.5-1.3,16.4-4c4.5-2.4,10.2-3.7,8.2-10.2C1370,396.6,1362.3,392.9,1358.3,393z"/>
<path class="st22" d="M1300.4,471.6c9.5-0.5,19.5,4.8,28.9,4.3c9.2-0.5,16.6-7.3,18.8-16.1c3.3-12.8-5.8-18.9-16.2-11.9
	c-4.7,3.1-7.9,7.9-11.8,12C1314.7,465.3,1308,469.3,1300.4,471.6"/>
<path class="st22" d="M1325.9,512c14.5-1.6,30.3-3.8,39.4-14.6c2.4-2.9,4.3-6.7,3.4-10.7c-5.1-23.4-34.4,12.5-36.7,19.5
	C1331.1,509.2,1329.1,513,1325.9,512"/>
<path class="st22" d="M1409,488.1c-3.4-0.6-5.7,2.6-7.2,5.4c-4.9,9.5-9.8,19.6-11.9,30.1c-1.4,7.2,24.7-3.6,26.2-5.1
	c6.6-7,7.1-20.4-0.9-27.7c-1.2-1.1-2.6-2.1-4.1-2L1409,488.1z"/>
<path class="st22" d="M378.8,907.2c-1.9-2.1-3.9-4.2-6.4-5.1c-2.6-0.9-5.2-0.3-7.8-1.2c-4.6-1.7-7.3-8.9-5-13.2
	c2.4-4.3,8.9-3.9,11.9,0.6c1.2,1.8,1.8,4,2.6,6.1c3,7.6,9,13.5,14.7,18.9c3.2,3.1,7.2,6.4,10.8,5.2c4.4-1.4,4.9-8.1,4.6-13.6
	c-1.1-19.2-3.6-38.5-7.2-57.6c-0.4-2.2-0.9-4.6-2.3-6.4c-1.7-2.3-4.3-3.2-6.6-4.6c-3.9-2.3-7.2-6.5-8.3-11.3
	c-1.1-4.8,0.5-10,4.2-11.8c5-2.6,11.8,2,14.9,8c3.1,6,3.6,13,4.2,19.6c1.9,21.1,5.7,42.3,11.4,63c4.5,2.5,7.6-3.9,8.6-9
	c2.9-16,5.5-32.5,3-49.3c-1.3-8.8-3.5-19.5,2.1-24.6c1.1-1,2.5-1.6,3.9-1.2c1.9,0.6,3.2,2.9,4.1,4.9c2.4,4.9,4.7,11.4,1.5,14.9
	c-1.4,1.5-3.6,2-4.8,3.8c-0.8,1.2-0.9,2.9-1,4.4c-0.9,15.8-1,31.8-0.3,47.9c0.1,1.9,0.2,3.9,1.2,5.5c2.2,3.8,7,3.2,10.4,1.8
	c12-5,22.1-14.5,28.7-26.8c-3.3-4.7-2.6-12,1.4-14.7c4-2.7,10.4-0.2,12.9,5.1c2.4,5.3,0.4,12-4.1,13.6c-2.4,0.8-5.1,0.4-7.4,1.4
	c-2.1,1-3.6,3.1-5,5.1c-4,6-8,12-12.1,17.9c-5.1,7.5-10.2,15.2-12.7,24.4c-3,11-2.4,24-8,33.3c-3.7,6.1-10.3,9.7-17.1,9.8
	c-9,0.2-11.3-2.8-14.4-12.2C399.1,941.5,391.9,922.2,378.8,907.2z"/>
<path class="st22" d="M240.5,328.6c3.8-6.9,6.9-14.6,13.3-19.2c6.4-4.6,17.5-3.6,19.8,4c1.2,4.1-0.6,8.8,1.1,12.7
	c3.6,8.7,19.9,6.8,21.9,16.1c0.9,4-2,8.1-5.5,10.1c-3.6,2-7.8,2.5-11.8,3.2c-19.6,3.2-38.4,11.7-53.7,24.4
	c-8.3,6.9-15.8,15-25.6,19.6c-20.7,9.8-27.8-9.5-13.4-22.1C205.6,360.7,227.4,352.1,240.5,328.6z"/>
<path class="st22" d="M292.9,266.6c-5.4,6-10.9,11.9-16.3,17.9c-4.7,5.2-12.3,10.8-18,6.7C258.6,291.2,279.4,266.6,292.9,266.6z"/>
<path class="st22" d="M322,268.1c-4.6,8.7-12.9,14.7-20.8,20.5c-5.6,4-11.6,8.2-18.4,8.6C282.7,297.2,307,273.2,322,268.1z"/>
<path class="st22" d="M296,313.5c14.5-13.3,31.8-24.3,50.2-31.7c-13.6,13.1-29.5,24.4-46.6,33.3L296,313.5z"/>
<path class="st22" d="M306.1,323.7c11.7-4.6,23-10.3,33.6-17c-4.8,5.9-9.7,12-16.1,16.1c-6.4,4.1-14.7,6-21.7,3L306.1,323.7z"/>
<path class="st22" d="M304.8,347.2c8-2.2,15.6-5.5,20-12.5c4.1-4.9,12.1-10.7,4.6,0.1c-3.8,5.4-8.5,10.2-13.8,14.2
	c-1.9,1.4-4.5,2.8-6.5,1.6C306.9,349.3,304.8,347.2,304.8,347.2z"/>
</svg>
